<?xml version="1.0" encoding="UTF-8" standalone="no"?>
<!-- Created with Inkscape (http://www.inkscape.org/) -->

<svg
   xmlns:dc="http://purl.org/dc/elements/1.1/"
   xmlns:cc="http://creativecommons.org/ns#"
   xmlns:rdf="http://www.w3.org/1999/02/22-rdf-syntax-ns#"
   xmlns:svg="http://www.w3.org/2000/svg"
   xmlns="http://www.w3.org/2000/svg"
   xmlns:sodipodi="http://sodipodi.sourceforge.net/DTD/sodipodi-0.dtd"
   xmlns:inkscape="http://www.inkscape.org/namespaces/inkscape"
   width="1133.8583"
   height="297.63779"
   id="svg2"
   version="1.1"
   inkscape:version="0.48.4 r9939"
   sodipodi:docname="anschlussschiene_kz.svg"
   inkscape:export-filename="/home/peter/Documents/anschlussschiene_kz.png"
   inkscape:export-xdpi="300.02664"
   inkscape:export-ydpi="300.02664">
  <defs
     id="defs4" />
  <sodipodi:namedview
     id="base"
     pagecolor="#ffffff"
     bordercolor="#666666"
     borderopacity="1.0"
     inkscape:pageopacity="0.0"
     inkscape:pageshadow="2"
     inkscape:zoom="0.98994949"
     inkscape:cx="526.65581"
     inkscape:cy="-66.408146"
     inkscape:document-units="mm"
     inkscape:current-layer="layer1"
     showgrid="false"
     units="mm"
     inkscape:window-width="1920"
     inkscape:window-height="1025"
     inkscape:window-x="-2"
     inkscape:window-y="-3"
     inkscape:window-maximized="1" />
  <metadata
     id="metadata7">
    <rdf:RDF>
      <cc:Work
         rdf:about="">
        <dc:format>image/svg+xml</dc:format>
        <dc:type
           rdf:resource="http://purl.org/dc/dcmitype/StillImage" />
        <dc:title></dc:title>
      </cc:Work>
    </rdf:RDF>
  </metadata>
  <g
     inkscape:label="Ebene 1"
     inkscape:groupmode="layer"
     id="layer1"
     transform="translate(0,-754.7244)">
    <path
       sodipodi:type="arc"
       style="fill:none;stroke:#000000;stroke-width:2.43028712;stroke-linecap:round;stroke-miterlimit:4;stroke-opacity:1;stroke-dasharray:none"
       id="path3004"
       sodipodi:cx="134.64285"
       sodipodi:cy="82.843079"
       sodipodi:rx="47.5"
       sodipodi:ry="43.92857"
       d="m 182.14285,82.843079 a 47.5,43.92857 0 1 1 -94.999997,0 47.5,43.92857 0 1 1 94.999997,0 z"
       transform="matrix(0.69029839,0,0,0.74642025,-4.361068,841.70755)" />
    <path
       sodipodi:type="arc"
       style="fill:none;stroke:#000000;stroke-width:2.43028712;stroke-linecap:round;stroke-miterlimit:4;stroke-opacity:1;stroke-dasharray:none"
       id="path3004-5"
       sodipodi:cx="134.64285"
       sodipodi:cy="82.843079"
       sodipodi:rx="47.5"
       sodipodi:ry="43.92857"
       d="m 182.14285,82.843079 a 47.5,43.92857 0 1 1 -94.999997,0 47.5,43.92857 0 1 1 94.999997,0 z"
       transform="matrix(0.69029839,0,0,0.74642025,101.93814,841.70755)" />
    <path
       sodipodi:type="arc"
       style="fill:none;stroke:#000000;stroke-width:15.39878559;stroke-linecap:round;stroke-miterlimit:4;stroke-opacity:1;stroke-dasharray:none"
       id="path3004-51"
       sodipodi:cx="134.64285"
       sodipodi:cy="82.843079"
       sodipodi:rx="47.5"
       sodipodi:ry="43.92857"
       d="m 182.14285,82.843079 a 47.5,43.92857 0 1 1 -94.999997,0 47.5,43.92857 0 1 1 94.999997,0 z"
       transform="matrix(0.09575425,0,0,0.10353916,75.690052,848.01698)" />
    <path
       sodipodi:type="arc"
       style="fill:none;stroke:#000000;stroke-width:15.39878559;stroke-linecap:round;stroke-miterlimit:4;stroke-opacity:1;stroke-dasharray:none"
       id="path3004-51-3"
       sodipodi:cx="134.64285"
       sodipodi:cy="82.843079"
       sodipodi:rx="47.5"
       sodipodi:ry="43.92857"
       d="m 182.14285,82.843079 a 47.5,43.92857 0 1 1 -94.999997,0 47.5,43.92857 0 1 1 94.999997,0 z"
       transform="matrix(0.09575425,0,0,0.10353916,181.98926,848.01698)" />
    <path
       sodipodi:type="arc"
       style="fill:none;stroke:#000000;stroke-width:15.39878559;stroke-linecap:round;stroke-miterlimit:4;stroke-opacity:1;stroke-dasharray:none"
       id="path3004-51-3-4"
       sodipodi:cx="134.64285"
       sodipodi:cy="82.843079"
       sodipodi:rx="47.5"
       sodipodi:ry="43.92857"
       d="m 182.14285,82.843079 a 47.5,43.92857 0 1 1 -94.999997,0 47.5,43.92857 0 1 1 94.999997,0 z"
       transform="matrix(0.09575425,0,0,0.10353916,181.98926,941.91462)" />
    <path
       sodipodi:type="arc"
       style="fill:none;stroke:#000000;stroke-width:15.39878559;stroke-linecap:round;stroke-miterlimit:4;stroke-opacity:1;stroke-dasharray:none"
       id="path3004-51-3-4-0"
       sodipodi:cx="134.64285"
       sodipodi:cy="82.843079"
       sodipodi:rx="47.5"
       sodipodi:ry="43.92857"
       d="m 182.14285,82.843079 a 47.5,43.92857 0 1 1 -94.999997,0 47.5,43.92857 0 1 1 94.999997,0 z"
       transform="matrix(0.09575425,0,0,0.10353916,75.690052,941.91462)" />
    <rect
       style="fill:none;stroke:#000000;stroke-width:3.61149454;stroke-linecap:round;stroke-miterlimit:4;stroke-opacity:1;stroke-dasharray:none"
       id="rect3864"
       width="1059.3806"
       height="223.16016"
       x="37.238819"
       y="791.9632" />
    <path
       sodipodi:type="arc"
       style="fill:none;stroke:#000000;stroke-width:5.3378787;stroke-linecap:round;stroke-miterlimit:4;stroke-opacity:1;stroke-dasharray:none"
       id="path3004-51-3-8"
       sodipodi:cx="134.64285"
       sodipodi:cy="82.843079"
       sodipodi:rx="47.5"
       sodipodi:ry="43.92857"
       d="m 182.14285,82.843079 a 47.5,43.92857 0 1 1 -94.999997,0 47.5,43.92857 0 1 1 94.999997,0 z"
       transform="matrix(0.35239036,0,0,0.38103999,324.6004,907.40985)" />
    <path
       sodipodi:type="arc"
       style="fill:none;stroke:#000000;stroke-width:5.3378787;stroke-linecap:round;stroke-miterlimit:4;stroke-opacity:1;stroke-dasharray:none"
       id="path3004-51-3-8-6"
       sodipodi:cx="134.64285"
       sodipodi:cy="82.843079"
       sodipodi:rx="47.5"
       sodipodi:ry="43.92857"
       d="m 182.14285,82.843079 a 47.5,43.92857 0 1 1 -94.999997,0 47.5,43.92857 0 1 1 94.999997,0 z"
       transform="matrix(0.35239036,0,0,0.38103999,395.46654,836.54371)" />
    <path
       sodipodi:type="arc"
       style="fill:none;stroke:#000000;stroke-width:5.3378787;stroke-linecap:round;stroke-miterlimit:4;stroke-opacity:1;stroke-dasharray:none"
       id="path3004-51-3-8-60"
       sodipodi:cx="134.64285"
       sodipodi:cy="82.843079"
       sodipodi:rx="47.5"
       sodipodi:ry="43.92857"
       d="m 182.14285,82.843079 a 47.5,43.92857 0 1 1 -94.999997,0 47.5,43.92857 0 1 1 94.999997,0 z"
       transform="matrix(0.35239036,0,0,0.38103999,395.46654,907.40985)" />
    <path
       sodipodi:type="arc"
       style="fill:none;stroke:#000000;stroke-width:5.3378787;stroke-linecap:round;stroke-miterlimit:4;stroke-opacity:1;stroke-dasharray:none"
       id="path3004-51-3-8-1"
       sodipodi:cx="134.64285"
       sodipodi:cy="82.843079"
       sodipodi:rx="47.5"
       sodipodi:ry="43.92857"
       d="m 182.14285,82.843079 a 47.5,43.92857 0 1 1 -94.999997,0 47.5,43.92857 0 1 1 94.999997,0 z"
       transform="matrix(0.35239036,0,0,0.38103999,466.33268,907.40985)" />
    <path
       sodipodi:type="arc"
       style="fill:none;stroke:#000000;stroke-width:5.3378787;stroke-linecap:round;stroke-miterlimit:4;stroke-opacity:1;stroke-dasharray:none"
       id="path3004-51-3-8-63"
       sodipodi:cx="134.64285"
       sodipodi:cy="82.843079"
       sodipodi:rx="47.5"
       sodipodi:ry="43.92857"
       d="m 182.14285,82.843079 a 47.5,43.92857 0 1 1 -94.999997,0 47.5,43.92857 0 1 1 94.999997,0 z"
       transform="matrix(0.35239036,0,0,0.38103999,466.33268,836.54371)" />
    <path
       sodipodi:type="arc"
       style="fill:none;stroke:#000000;stroke-width:5.3378787;stroke-linecap:round;stroke-miterlimit:4;stroke-opacity:1;stroke-dasharray:none"
       id="path3004-51-3-8-0"
       sodipodi:cx="134.64285"
       sodipodi:cy="82.843079"
       sodipodi:rx="47.5"
       sodipodi:ry="43.92857"
       d="m 182.14285,82.843079 a 47.5,43.92857 0 1 1 -94.999997,0 47.5,43.92857 0 1 1 94.999997,0 z"
       transform="matrix(0.35239036,0,0,0.38103999,324.6004,836.54371)" />
    <path
       sodipodi:type="arc"
       style="fill:none;stroke:#000000;stroke-width:5.3378787;stroke-linecap:round;stroke-miterlimit:4;stroke-opacity:1;stroke-dasharray:none"
       id="path3004-51-3-8-5"
       sodipodi:cx="134.64285"
       sodipodi:cy="82.843079"
       sodipodi:rx="47.5"
       sodipodi:ry="43.92857"
       d="m 182.14285,82.843079 a 47.5,43.92857 0 1 1 -94.999997,0 47.5,43.92857 0 1 1 94.999997,0 z"
       transform="matrix(0.35239036,0,0,0.38103999,537.19883,836.54371)" />
    <path
       sodipodi:type="arc"
       style="fill:none;stroke:#000000;stroke-width:5.3378787;stroke-linecap:round;stroke-miterlimit:4;stroke-opacity:1;stroke-dasharray:none"
       id="path3004-51-3-8-7"
       sodipodi:cx="134.64285"
       sodipodi:cy="82.843079"
       sodipodi:rx="47.5"
       sodipodi:ry="43.92857"
       d="m 182.14285,82.843079 a 47.5,43.92857 0 1 1 -94.999997,0 47.5,43.92857 0 1 1 94.999997,0 z"
       transform="matrix(0.35239036,0,0,0.38103999,537.19883,907.40985)" />
    <path
       sodipodi:type="arc"
       style="fill:none;stroke:#000000;stroke-width:1.99551225;stroke-linecap:round;stroke-miterlimit:4;stroke-opacity:1;stroke-dasharray:none"
       id="path3004-5-4"
       sodipodi:cx="134.64285"
       sodipodi:cy="82.843079"
       sodipodi:rx="47.5"
       sodipodi:ry="43.92857"
       d="m 182.14285,82.843079 a 47.5,43.92857 0 1 1 -94.999997,0 47.5,43.92857 0 1 1 94.999997,0 z"
       transform="matrix(0.85776644,0,0,0.92750359,646.3189,826.70605)" />
    <path
       sodipodi:type="arc"
       style="fill:none;stroke:#000000;stroke-width:1.99551225;stroke-linecap:round;stroke-miterlimit:4;stroke-opacity:1;stroke-dasharray:none"
       id="path3004-5-4-4"
       sodipodi:cx="134.64285"
       sodipodi:cy="82.843079"
       sodipodi:rx="47.5"
       sodipodi:ry="43.92857"
       d="m 182.14285,82.843079 a 47.5,43.92857 0 1 1 -94.999997,0 47.5,43.92857 0 1 1 94.999997,0 z"
       transform="matrix(0.85776644,0,0,0.92750359,788.05119,826.70605)" />
    <path
       sodipodi:type="arc"
       style="fill:none;stroke:#000000;stroke-width:1.99551225;stroke-linecap:round;stroke-miterlimit:4;stroke-opacity:1;stroke-dasharray:none"
       id="path3004-5-4-2"
       sodipodi:cx="134.64285"
       sodipodi:cy="82.843079"
       sodipodi:rx="47.5"
       sodipodi:ry="43.92857"
       d="m 182.14285,82.843079 a 47.5,43.92857 0 1 1 -94.999997,0 47.5,43.92857 0 1 1 94.999997,0 z"
       transform="matrix(0.85776644,0,0,0.92750359,929.78347,881.62731)" />
    <path
       sodipodi:type="arc"
       style="fill:none;stroke:#000000;stroke-width:1.99551225;stroke-linecap:round;stroke-miterlimit:4;stroke-opacity:1;stroke-dasharray:none"
       id="path3004-5-4-2-5"
       sodipodi:cx="134.64285"
       sodipodi:cy="82.843079"
       sodipodi:rx="47.5"
       sodipodi:ry="43.92857"
       d="m 182.14285,82.843079 a 47.5,43.92857 0 1 1 -94.999997,0 47.5,43.92857 0 1 1 94.999997,0 z"
       transform="matrix(0.85776644,0,0,0.92750359,929.78347,771.78479)" />
    <path
       sodipodi:type="arc"
       style="fill:none;stroke:#000000;stroke-width:15.39878559;stroke-linecap:round;stroke-miterlimit:4;stroke-opacity:1;stroke-dasharray:none"
       id="path3004-51-3-81"
       sodipodi:cx="134.64285"
       sodipodi:cy="82.843079"
       sodipodi:rx="47.5"
       sodipodi:ry="43.92857"
       d="m 182.14285,82.843079 a 47.5,43.92857 0 1 1 -94.999997,0 47.5,43.92857 0 1 1 94.999997,0 z"
       transform="matrix(0.09575425,0,0,0.10353916,715.25698,937.48549)" />
    <path
       sodipodi:type="arc"
       style="fill:none;stroke:#000000;stroke-width:15.39878559;stroke-linecap:round;stroke-miterlimit:4;stroke-opacity:1;stroke-dasharray:none"
       id="path3004-51-3-81-4"
       sodipodi:cx="134.64285"
       sodipodi:cy="82.843079"
       sodipodi:rx="47.5"
       sodipodi:ry="43.92857"
       d="m 182.14285,82.843079 a 47.5,43.92857 0 1 1 -94.999997,0 47.5,43.92857 0 1 1 94.999997,0 z"
       transform="matrix(0.09575425,0,0,0.10353916,856.98926,937.48549)" />
    <path
       sodipodi:type="arc"
       style="fill:none;stroke:#000000;stroke-width:15.39878559;stroke-linecap:round;stroke-miterlimit:4;stroke-opacity:1;stroke-dasharray:none"
       id="path3004-51-3-81-4-9"
       sodipodi:cx="134.64285"
       sodipodi:cy="82.843079"
       sodipodi:rx="47.5"
       sodipodi:ry="43.92857"
       d="m 182.14285,82.843079 a 47.5,43.92857 0 1 1 -94.999997,0 47.5,43.92857 0 1 1 94.999997,0 z"
       transform="matrix(0.09575425,0,0,0.10353916,998.72155,992.40674)" />
    <path
       sodipodi:type="arc"
       style="fill:none;stroke:#000000;stroke-width:15.39878559;stroke-linecap:round;stroke-miterlimit:4;stroke-opacity:1;stroke-dasharray:none"
       id="path3004-51-3-81-4-9-9"
       sodipodi:cx="134.64285"
       sodipodi:cy="82.843079"
       sodipodi:rx="47.5"
       sodipodi:ry="43.92857"
       d="m 182.14285,82.843079 a 47.5,43.92857 0 1 1 -94.999997,0 47.5,43.92857 0 1 1 94.999997,0 z"
       transform="matrix(0.09575425,0,0,0.10353916,998.72155,882.56423)" />
    <path
       sodipodi:type="arc"
       style="fill:none;stroke:#000000;stroke-width:15.39878559;stroke-linecap:round;stroke-miterlimit:4;stroke-opacity:1;stroke-dasharray:none"
       id="path3004-51-3-81-46"
       sodipodi:cx="134.64285"
       sodipodi:cy="82.843079"
       sodipodi:rx="47.5"
       sodipodi:ry="43.92857"
       d="m 182.14285,82.843079 a 47.5,43.92857 0 1 1 -94.999997,0 47.5,43.92857 0 1 1 94.999997,0 z"
       transform="matrix(0.09575425,0,0,0.10353916,782.57981,852.44612)" />
    <path
       sodipodi:type="arc"
       style="fill:none;stroke:#000000;stroke-width:15.39878559;stroke-linecap:round;stroke-miterlimit:4;stroke-opacity:1;stroke-dasharray:none"
       id="path3004-51-3-81-46-9"
       sodipodi:cx="134.64285"
       sodipodi:cy="82.843079"
       sodipodi:rx="47.5"
       sodipodi:ry="43.92857"
       d="m 182.14285,82.843079 a 47.5,43.92857 0 1 1 -94.999997,0 47.5,43.92857 0 1 1 94.999997,0 z"
       transform="matrix(0.09575425,0,0,0.10353916,924.3121,852.44612)" />
    <path
       sodipodi:type="arc"
       style="fill:none;stroke:#000000;stroke-width:15.39878559;stroke-linecap:round;stroke-miterlimit:4;stroke-opacity:1;stroke-dasharray:none"
       id="path3004-51-3-81-46-5"
       sodipodi:cx="134.64285"
       sodipodi:cy="82.843079"
       sodipodi:rx="47.5"
       sodipodi:ry="43.92857"
       d="m 182.14285,82.843079 a 47.5,43.92857 0 1 1 -94.999997,0 47.5,43.92857 0 1 1 94.999997,0 z"
       transform="matrix(0.09575425,0,0,0.10353916,1066.0444,797.52486)" />
    <path
       sodipodi:type="arc"
       style="fill:none;stroke:#000000;stroke-width:15.39878559;stroke-linecap:round;stroke-miterlimit:4;stroke-opacity:1;stroke-dasharray:none"
       id="path3004-51-3-81-46-7"
       sodipodi:cx="134.64285"
       sodipodi:cy="82.843079"
       sodipodi:rx="47.5"
       sodipodi:ry="43.92857"
       d="m 182.14285,82.843079 a 47.5,43.92857 0 1 1 -94.999997,0 47.5,43.92857 0 1 1 94.999997,0 z"
       transform="matrix(0.09575425,0,0,0.10353916,1066.0444,907.36738)" />
  </g>
</svg>
