G75*
%MOIN*%
%OFA0B0*%
%FSLAX24Y24*%
%IPPOS*%
%LPD*%
%AMOC8*
5,1,8,0,0,1.08239X$1,22.5*
%
%ADD10C,0.0000*%
%ADD11C,0.0150*%
%ADD12C,0.0433*%
%ADD13OC8,0.0512*%
%ADD14R,0.0591X0.0591*%
%ADD15C,0.1000*%
%ADD16OC8,0.1000*%
%ADD17C,0.0600*%
%ADD18OC8,0.0500*%
%ADD19C,0.0500*%
%ADD20R,0.0710X0.0630*%
%ADD21R,0.0689X0.0689*%
%ADD22C,0.0705*%
%ADD23R,0.0236X0.0866*%
%ADD24C,0.0500*%
%ADD25C,0.0400*%
%ADD26R,0.0356X0.0356*%
%ADD27C,0.0160*%
%ADD28C,0.0240*%
%ADD29C,0.0120*%
%ADD30C,0.2756*%
%ADD31C,0.0320*%
D10*
X007676Y000126D02*
X007676Y033501D01*
X031376Y033501D01*
X031376Y000126D01*
X007676Y000126D01*
D11*
X007851Y016840D02*
X007851Y017741D01*
X007851Y017291D02*
X009202Y017291D01*
X008752Y017741D01*
X008752Y026090D02*
X008977Y026090D01*
X009202Y026316D01*
X009202Y026766D01*
X008977Y026991D01*
X008752Y026090D02*
X007851Y026991D01*
X007851Y026090D01*
X029850Y026686D02*
X030526Y026010D01*
X030526Y026911D01*
X031201Y026686D02*
X029850Y026686D01*
X030075Y017661D02*
X029850Y017436D01*
X029850Y016985D01*
X030075Y016760D01*
X030526Y017210D02*
X030526Y017436D01*
X030751Y017661D01*
X030976Y017661D01*
X031201Y017436D01*
X031201Y016985D01*
X030976Y016760D01*
X030526Y017436D02*
X030300Y017661D01*
X030075Y017661D01*
D12*
X021888Y029868D02*
X021888Y030301D01*
X021101Y030301D02*
X021101Y029868D01*
X020314Y029868D02*
X020314Y030301D01*
X019526Y030301D02*
X019526Y029868D01*
X018739Y029868D02*
X018739Y030301D01*
X017951Y030301D02*
X017951Y029868D01*
X017164Y029868D02*
X017164Y030301D01*
X016377Y030301D02*
X016377Y029868D01*
X015589Y029868D02*
X015589Y030301D01*
X014802Y030301D02*
X014802Y029868D01*
X014014Y029868D02*
X014014Y030301D01*
X013227Y030301D02*
X013227Y029868D01*
X012440Y029868D02*
X012440Y030301D01*
X012833Y031443D02*
X012833Y031876D01*
X013621Y031659D02*
X013621Y032092D01*
X014408Y032092D02*
X014408Y031659D01*
X015195Y031876D02*
X015195Y031443D01*
X015983Y031659D02*
X015983Y032092D01*
X018345Y032092D02*
X018345Y031659D01*
X019132Y031876D02*
X019132Y031443D01*
X019920Y031659D02*
X019920Y032092D01*
X020707Y032092D02*
X020707Y031659D01*
X021495Y031876D02*
X021495Y031443D01*
D13*
X017558Y031876D03*
X016770Y031876D03*
D14*
X016776Y027376D03*
X015776Y027376D03*
X015776Y025376D03*
X016776Y025376D03*
X017776Y025376D03*
X018776Y025376D03*
X018776Y027376D03*
X017776Y027376D03*
X018776Y022376D03*
X018276Y021376D03*
X019276Y021376D03*
X019776Y022376D03*
X020276Y021376D03*
X020776Y022376D03*
X023026Y016626D03*
X024026Y014876D03*
X025026Y014876D03*
X025026Y016626D03*
X020026Y014876D03*
X019026Y014876D03*
X016026Y016626D03*
X015026Y014876D03*
X014026Y014876D03*
X014026Y016626D03*
D15*
X011026Y028376D03*
X027776Y028376D03*
D16*
X029776Y028376D03*
X009026Y028376D03*
D17*
X016526Y015176D02*
X016526Y014576D01*
X017526Y014576D02*
X017526Y015176D01*
X021526Y015176D02*
X021526Y014576D01*
X022526Y014576D02*
X022526Y015176D01*
X024825Y032201D02*
X024825Y032801D01*
X025825Y032801D02*
X025825Y032201D01*
X026825Y032201D02*
X026825Y032801D01*
D18*
X025626Y030126D03*
X024176Y030126D03*
D19*
X023376Y030126D03*
X026426Y030126D03*
D20*
X022776Y012185D03*
X022776Y011066D03*
D21*
X020526Y004126D03*
X020526Y003126D03*
X019526Y003126D03*
X019526Y004126D03*
X018526Y004126D03*
X018526Y003126D03*
D22*
X011879Y012641D02*
X011174Y012641D01*
X011174Y014610D02*
X011879Y014610D01*
X011629Y018923D02*
X010924Y018923D01*
X010924Y020891D02*
X011629Y020891D01*
X011629Y022860D02*
X010924Y022860D01*
X010924Y024828D02*
X011629Y024828D01*
X027424Y024828D02*
X028129Y024828D01*
X028129Y022860D02*
X027424Y022860D01*
X027424Y020891D02*
X028129Y020891D01*
X028129Y018923D02*
X027424Y018923D01*
D23*
X021276Y011687D03*
X020776Y011687D03*
X020276Y011687D03*
X019776Y011687D03*
X019276Y011687D03*
X018776Y011687D03*
X018276Y011687D03*
X017776Y011687D03*
X017776Y008065D03*
X018276Y008065D03*
X018776Y008065D03*
X019276Y008065D03*
X019776Y008065D03*
X020276Y008065D03*
X020776Y008065D03*
X021276Y008065D03*
D24*
X028276Y009876D02*
X010776Y009876D01*
X010026Y010626D01*
X010026Y011126D01*
X011526Y012626D01*
X010026Y014126D01*
X010026Y027376D01*
X011026Y028376D01*
X010026Y029376D01*
X012026Y031376D01*
X012026Y032376D01*
X012526Y032876D01*
X012776Y032876D01*
X014408Y032876D01*
X019920Y032876D01*
X021526Y032876D01*
X023276Y032876D01*
X024901Y031251D01*
X024901Y029751D01*
X026276Y028376D01*
X029026Y025626D01*
X029026Y010626D01*
X028276Y009876D01*
X027776Y028376D02*
X026276Y028376D01*
X026426Y030126D02*
X026825Y030126D01*
X026825Y032501D01*
X024825Y032501D02*
X024825Y032876D01*
X024026Y032876D01*
X023776Y032876D01*
X023276Y032876D01*
X023376Y032876D02*
X023376Y030126D01*
X019920Y031876D02*
X019920Y032876D01*
X014408Y032876D02*
X014408Y031876D01*
X011026Y028376D02*
X010026Y028376D01*
X010026Y029376D01*
X010026Y028376D02*
X010026Y027376D01*
X010026Y014126D02*
X010026Y012626D01*
X011526Y012626D01*
X010026Y012626D02*
X010026Y011126D01*
D25*
X022776Y011066D02*
X022966Y010876D01*
X025026Y010876D01*
X027276Y010876D01*
X027776Y011376D01*
X027776Y015876D01*
X027776Y016876D01*
X026276Y018376D01*
X026276Y026126D01*
X021526Y032626D02*
X021526Y032876D01*
X023376Y032876D02*
X023776Y032876D01*
X024026Y032876D02*
X024126Y032876D01*
X012776Y032876D02*
X012776Y032626D01*
X022776Y012185D02*
X023966Y012185D01*
X024026Y012126D01*
D26*
X024026Y012126D03*
X025026Y011376D03*
X023776Y008126D03*
X022026Y007566D03*
X021776Y008876D03*
X020026Y007185D03*
X017026Y008126D03*
X015216Y010876D03*
X017026Y011626D03*
X020526Y012876D03*
X021901Y011626D03*
X020526Y016126D03*
X026276Y026126D03*
X021526Y032626D03*
X012776Y032626D03*
D27*
X022776Y022626D02*
X022776Y022126D01*
X022276Y021876D02*
X022294Y021823D01*
X022315Y021772D01*
X022341Y021722D01*
X022369Y021675D01*
X022401Y021629D01*
X022436Y021586D01*
X022474Y021546D01*
X022515Y021508D01*
X022559Y021473D01*
X022605Y021442D01*
X022653Y021414D01*
X022702Y021389D01*
X022754Y021368D01*
X022807Y021350D01*
X022860Y021337D01*
X022915Y021327D01*
X022970Y021321D01*
X023026Y021319D01*
X023082Y021321D01*
X023137Y021327D01*
X023192Y021337D01*
X023245Y021350D01*
X023298Y021368D01*
X023350Y021389D01*
X023399Y021414D01*
X023447Y021442D01*
X023493Y021473D01*
X023537Y021508D01*
X023578Y021546D01*
X023616Y021586D01*
X023651Y021629D01*
X023683Y021675D01*
X023711Y021722D01*
X023737Y021772D01*
X023758Y021823D01*
X023776Y021876D01*
X023276Y022126D02*
X023276Y022626D01*
X021276Y011687D02*
X021276Y011566D01*
X021276Y008066D02*
X021276Y008065D01*
D28*
X021276Y008876D01*
X021776Y008876D01*
X021276Y008876D02*
X018276Y008876D01*
X015776Y008876D01*
X015026Y008126D01*
X015026Y002126D01*
X015776Y001376D01*
X023026Y001376D01*
X023776Y002126D01*
X023776Y004126D02*
X020526Y004126D01*
X018526Y004126D02*
X018526Y006126D01*
X019276Y006876D01*
X019276Y008065D01*
X018776Y008065D02*
X018776Y007126D01*
X017526Y005876D01*
X017526Y003626D01*
X018026Y003126D01*
X018526Y003126D01*
X020026Y007185D02*
X019776Y007435D01*
X019776Y008065D01*
X020776Y008065D02*
X020776Y007376D01*
X021026Y007126D01*
X021586Y007126D01*
X022026Y007566D01*
X023776Y008126D02*
X023776Y004126D01*
X022776Y010876D02*
X020776Y010876D01*
X020776Y011687D01*
X021276Y011687D02*
X021276Y012185D01*
X021901Y012185D01*
X021901Y011626D01*
X021901Y012185D02*
X022776Y012185D01*
X022776Y011066D02*
X022776Y010876D01*
X020776Y010876D02*
X017776Y010876D01*
X015216Y010876D01*
X015526Y013126D02*
X015026Y013626D01*
X015026Y014876D01*
X015526Y013126D02*
X018276Y013126D01*
X018776Y012626D01*
X018776Y011687D01*
X018276Y011687D02*
X018276Y012376D01*
X018026Y012626D01*
X017276Y012626D01*
X017026Y012376D01*
X017026Y011626D01*
X017776Y011687D02*
X017776Y010876D01*
X019276Y011687D02*
X019276Y012876D01*
X019776Y013376D01*
X023526Y013376D01*
X024026Y013876D01*
X024026Y014876D01*
X025026Y016626D02*
X025276Y016876D01*
X025276Y027126D01*
X022526Y029876D01*
X022526Y030626D01*
X022276Y030876D01*
X021026Y030876D01*
X020707Y031194D01*
X020707Y031876D01*
X021888Y030301D02*
X021888Y029763D01*
X024776Y026876D01*
X024776Y020626D01*
X024026Y019876D01*
X022026Y019876D01*
X020776Y018626D01*
X019276Y018626D01*
X018526Y017876D01*
X018526Y015376D01*
X019026Y014876D01*
X020526Y016126D02*
X020776Y015876D01*
X027776Y015876D01*
X026276Y018126D02*
X026276Y018376D01*
X025026Y011376D02*
X025026Y010876D01*
X020526Y012876D02*
X020276Y012876D01*
X019776Y012376D01*
X019776Y011687D01*
X018276Y008876D02*
X018276Y008065D01*
X017776Y008065D02*
X017715Y008126D01*
X017026Y008126D01*
X014026Y016626D02*
X013776Y016876D01*
X013776Y028876D01*
X013621Y029031D01*
D29*
X013621Y031876D01*
X013168Y031268D02*
X013181Y031255D01*
X013181Y030897D01*
X013108Y030897D01*
X012889Y030807D01*
X012721Y030639D01*
X012696Y030577D01*
X012680Y030593D01*
X012618Y030634D01*
X012549Y030663D01*
X012477Y030677D01*
X012448Y030677D01*
X012448Y030310D01*
X012431Y030310D01*
X012431Y030677D01*
X012402Y030677D01*
X012330Y030663D01*
X012261Y030634D01*
X012200Y030593D01*
X012147Y030541D01*
X012106Y030479D01*
X012078Y030411D01*
X012063Y030338D01*
X012063Y030310D01*
X012431Y030310D01*
X012431Y030292D01*
X012448Y030292D01*
X012448Y029491D01*
X012477Y029491D01*
X012549Y029506D01*
X012618Y029534D01*
X012680Y029575D01*
X012696Y029591D01*
X012721Y029530D01*
X012889Y029362D01*
X013108Y029271D01*
X013179Y029271D01*
X013121Y029131D01*
X013121Y028932D01*
X013197Y028748D01*
X013276Y028668D01*
X013276Y016776D01*
X013351Y016596D01*
X013351Y016255D01*
X013409Y016115D01*
X013516Y016008D01*
X013655Y015950D01*
X014397Y015950D01*
X014537Y016008D01*
X014644Y016115D01*
X014701Y016255D01*
X014701Y016996D01*
X014644Y017136D01*
X014537Y017243D01*
X014397Y017301D01*
X014276Y017301D01*
X014276Y028975D01*
X014200Y029159D01*
X014088Y029271D01*
X014133Y029271D01*
X014352Y029362D01*
X014408Y029418D01*
X014464Y029362D01*
X014683Y029271D01*
X014920Y029271D01*
X015140Y029362D01*
X015195Y029418D01*
X015251Y029362D01*
X015471Y029271D01*
X015708Y029271D01*
X015927Y029362D01*
X015983Y029418D01*
X016039Y029362D01*
X016258Y029271D01*
X016330Y029271D01*
X016330Y028020D01*
X016276Y027997D01*
X016147Y028051D01*
X015405Y028051D01*
X015266Y027993D01*
X015159Y027886D01*
X015101Y027746D01*
X015101Y027005D01*
X015159Y026865D01*
X015266Y026758D01*
X015405Y026700D01*
X016147Y026700D01*
X016276Y026754D01*
X016405Y026700D01*
X017147Y026700D01*
X017276Y026754D01*
X017405Y026700D01*
X018147Y026700D01*
X018276Y026754D01*
X018405Y026700D01*
X019147Y026700D01*
X019287Y026758D01*
X019394Y026865D01*
X019451Y027005D01*
X019451Y027746D01*
X019394Y027886D01*
X019287Y027993D01*
X019147Y028051D01*
X018973Y028051D01*
X017998Y029026D01*
X017998Y029271D01*
X018070Y029271D01*
X018289Y029362D01*
X018345Y029418D01*
X018401Y029362D01*
X018620Y029271D01*
X018857Y029271D01*
X019077Y029362D01*
X019132Y029418D01*
X019188Y029362D01*
X019408Y029271D01*
X019645Y029271D01*
X019864Y029362D01*
X019920Y029418D01*
X019976Y029362D01*
X020195Y029271D01*
X020432Y029271D01*
X020651Y029362D01*
X020707Y029418D01*
X020763Y029362D01*
X020982Y029271D01*
X021220Y029271D01*
X021439Y029362D01*
X021495Y029418D01*
X021550Y029362D01*
X021605Y029339D01*
X024276Y026668D01*
X024276Y021932D01*
X024210Y022307D01*
X023991Y022686D01*
X023656Y022967D01*
X023545Y023007D01*
X023537Y023016D01*
X023368Y023086D01*
X023330Y023086D01*
X023245Y023116D01*
X022807Y023116D01*
X022723Y023086D01*
X022685Y023086D01*
X022516Y023016D01*
X022507Y023007D01*
X022396Y022967D01*
X022061Y022686D01*
X022061Y022686D01*
X021842Y022307D01*
X021842Y022307D01*
X021766Y021876D01*
X021842Y021445D01*
X021842Y021445D01*
X022061Y021066D01*
X022061Y021066D01*
X022396Y020784D01*
X022807Y020635D01*
X023245Y020635D01*
X023656Y020784D01*
X023656Y020784D01*
X023991Y021066D01*
X024210Y021445D01*
X024276Y021819D01*
X024276Y020833D01*
X023819Y020376D01*
X021927Y020376D01*
X021743Y020299D01*
X020569Y019126D01*
X019177Y019126D01*
X018993Y019049D01*
X018243Y018299D01*
X018102Y018159D01*
X018026Y017975D01*
X018026Y017566D01*
X015439Y017566D01*
X015277Y017499D01*
X015153Y017375D01*
X015086Y017213D01*
X015086Y015551D01*
X014655Y015551D01*
X014526Y015497D01*
X014397Y015551D01*
X013655Y015551D01*
X013516Y015493D01*
X013409Y015386D01*
X013351Y015246D01*
X013351Y014505D01*
X013409Y014365D01*
X013516Y014258D01*
X013655Y014200D01*
X014397Y014200D01*
X014526Y014254D01*
X014526Y014254D01*
X014526Y013526D01*
X014602Y013342D01*
X014743Y013202D01*
X015086Y012858D01*
X015086Y011434D01*
X014963Y011434D01*
X014823Y011376D01*
X014716Y011269D01*
X014658Y011129D01*
X014658Y010622D01*
X014706Y010506D01*
X011037Y010506D01*
X010667Y010876D01*
X011700Y011909D01*
X012024Y011909D01*
X012294Y012020D01*
X012500Y012226D01*
X012611Y012496D01*
X012611Y012787D01*
X012500Y013056D01*
X012294Y013262D01*
X012024Y013374D01*
X011669Y013374D01*
X010656Y014387D01*
X010656Y018241D01*
X010778Y018190D01*
X011774Y018190D01*
X012044Y018302D01*
X012250Y018508D01*
X012361Y018777D01*
X012361Y019069D01*
X012250Y019338D01*
X012044Y019544D01*
X011774Y019655D01*
X010778Y019655D01*
X010656Y019605D01*
X010656Y020209D01*
X010778Y020159D01*
X011774Y020159D01*
X012044Y020270D01*
X012250Y020476D01*
X012361Y020746D01*
X012361Y021037D01*
X012250Y021306D01*
X012044Y021512D01*
X011774Y021624D01*
X010778Y021624D01*
X010656Y021573D01*
X010656Y022178D01*
X010778Y022127D01*
X011774Y022127D01*
X012044Y022239D01*
X012250Y022445D01*
X012361Y022714D01*
X012361Y023006D01*
X012250Y023275D01*
X012044Y023481D01*
X011774Y023592D01*
X010778Y023592D01*
X010656Y023542D01*
X010656Y024146D01*
X010778Y024096D01*
X011774Y024096D01*
X012044Y024207D01*
X012250Y024413D01*
X012361Y024683D01*
X012361Y024974D01*
X012250Y025243D01*
X012044Y025449D01*
X011774Y025561D01*
X010778Y025561D01*
X010656Y025510D01*
X010656Y027115D01*
X011037Y027496D01*
X011201Y027496D01*
X011525Y027630D01*
X011772Y027877D01*
X011906Y028201D01*
X011906Y028551D01*
X013276Y028551D01*
X013276Y028433D02*
X011906Y028433D01*
X011906Y028551D02*
X011772Y028874D01*
X011525Y029122D01*
X011201Y029256D01*
X011037Y029256D01*
X010917Y029376D01*
X012383Y030842D01*
X012560Y031019D01*
X012610Y031139D01*
X012655Y031109D01*
X012723Y031080D01*
X012796Y031066D01*
X012824Y031066D01*
X012824Y031867D01*
X012842Y031867D01*
X012842Y031066D01*
X012870Y031066D01*
X012943Y031080D01*
X013012Y031109D01*
X013073Y031150D01*
X013126Y031202D01*
X013167Y031264D01*
X013168Y031268D01*
X013181Y031158D02*
X013081Y031158D01*
X013181Y031040D02*
X012569Y031040D01*
X012463Y030921D02*
X013181Y030921D01*
X012885Y030803D02*
X012344Y030803D01*
X012226Y030684D02*
X012767Y030684D01*
X012448Y030566D02*
X012431Y030566D01*
X012431Y030447D02*
X012448Y030447D01*
X012448Y030329D02*
X012431Y030329D01*
X012431Y030292D02*
X012063Y030292D01*
X012063Y029831D01*
X012078Y029758D01*
X012106Y029689D01*
X012147Y029628D01*
X012200Y029575D01*
X012261Y029534D01*
X012330Y029506D01*
X012402Y029491D01*
X012431Y029491D01*
X012431Y030292D01*
X012431Y030210D02*
X012448Y030210D01*
X012448Y030092D02*
X012431Y030092D01*
X012431Y029973D02*
X012448Y029973D01*
X012448Y029855D02*
X012431Y029855D01*
X012431Y029736D02*
X012448Y029736D01*
X012448Y029618D02*
X012431Y029618D01*
X012431Y029499D02*
X012448Y029499D01*
X012517Y029499D02*
X012752Y029499D01*
X012870Y029381D02*
X010922Y029381D01*
X011031Y029262D02*
X013175Y029262D01*
X013126Y029144D02*
X011471Y029144D01*
X011621Y029025D02*
X013121Y029025D01*
X013131Y028907D02*
X011740Y028907D01*
X011808Y028788D02*
X013180Y028788D01*
X013275Y028670D02*
X011857Y028670D01*
X011906Y028314D02*
X013276Y028314D01*
X013276Y028196D02*
X011904Y028196D01*
X011855Y028077D02*
X013276Y028077D01*
X013276Y027959D02*
X011806Y027959D01*
X011735Y027840D02*
X013276Y027840D01*
X013276Y027722D02*
X011617Y027722D01*
X011461Y027603D02*
X013276Y027603D01*
X013276Y027485D02*
X011026Y027485D01*
X010908Y027366D02*
X013276Y027366D01*
X013276Y027248D02*
X010789Y027248D01*
X010671Y027129D02*
X013276Y027129D01*
X013276Y027011D02*
X010656Y027011D01*
X010656Y026892D02*
X013276Y026892D01*
X013276Y026774D02*
X010656Y026774D01*
X010656Y026655D02*
X013276Y026655D01*
X013276Y026537D02*
X010656Y026537D01*
X010656Y026418D02*
X013276Y026418D01*
X013276Y026300D02*
X010656Y026300D01*
X010656Y026181D02*
X013276Y026181D01*
X013276Y026063D02*
X010656Y026063D01*
X010656Y025944D02*
X013276Y025944D01*
X013276Y025826D02*
X010656Y025826D01*
X010656Y025707D02*
X013276Y025707D01*
X013276Y025589D02*
X010656Y025589D01*
X010656Y024048D02*
X013276Y024048D01*
X013276Y023930D02*
X010656Y023930D01*
X010656Y023811D02*
X013276Y023811D01*
X013276Y023693D02*
X010656Y023693D01*
X010656Y023574D02*
X010734Y023574D01*
X011818Y023574D02*
X013276Y023574D01*
X013276Y023456D02*
X012069Y023456D01*
X012187Y023337D02*
X013276Y023337D01*
X013276Y023219D02*
X012273Y023219D01*
X012322Y023100D02*
X013276Y023100D01*
X013276Y022982D02*
X012361Y022982D01*
X012361Y022863D02*
X013276Y022863D01*
X013276Y022745D02*
X012361Y022745D01*
X012325Y022626D02*
X013276Y022626D01*
X013276Y022508D02*
X012276Y022508D01*
X012194Y022389D02*
X013276Y022389D01*
X013276Y022271D02*
X012075Y022271D01*
X011834Y022152D02*
X013276Y022152D01*
X013276Y022034D02*
X010656Y022034D01*
X010656Y022152D02*
X010718Y022152D01*
X010656Y021915D02*
X013276Y021915D01*
X013276Y021797D02*
X010656Y021797D01*
X010656Y021678D02*
X013276Y021678D01*
X013276Y021560D02*
X011929Y021560D01*
X012115Y021441D02*
X013276Y021441D01*
X013276Y021323D02*
X012233Y021323D01*
X012292Y021204D02*
X013276Y021204D01*
X013276Y021086D02*
X012341Y021086D01*
X012361Y020967D02*
X013276Y020967D01*
X013276Y020849D02*
X012361Y020849D01*
X012355Y020730D02*
X013276Y020730D01*
X013276Y020612D02*
X012306Y020612D01*
X012257Y020493D02*
X013276Y020493D01*
X013276Y020375D02*
X012148Y020375D01*
X012009Y020256D02*
X013276Y020256D01*
X013276Y020138D02*
X010656Y020138D01*
X010656Y020019D02*
X013276Y020019D01*
X013276Y019901D02*
X010656Y019901D01*
X010656Y019782D02*
X013276Y019782D01*
X013276Y019664D02*
X010656Y019664D01*
X012040Y019545D02*
X013276Y019545D01*
X013276Y019427D02*
X012161Y019427D01*
X012262Y019308D02*
X013276Y019308D01*
X013276Y019190D02*
X012311Y019190D01*
X012360Y019071D02*
X013276Y019071D01*
X013276Y018953D02*
X012361Y018953D01*
X012361Y018834D02*
X013276Y018834D01*
X013276Y018716D02*
X012336Y018716D01*
X012287Y018597D02*
X013276Y018597D01*
X013276Y018479D02*
X012220Y018479D01*
X012102Y018360D02*
X013276Y018360D01*
X013276Y018242D02*
X011898Y018242D01*
X010656Y018123D02*
X013276Y018123D01*
X013276Y018005D02*
X010656Y018005D01*
X010656Y017886D02*
X013276Y017886D01*
X013276Y017768D02*
X010656Y017768D01*
X010656Y017649D02*
X013276Y017649D01*
X013276Y017531D02*
X010656Y017531D01*
X010656Y017412D02*
X013276Y017412D01*
X013276Y017294D02*
X010656Y017294D01*
X010656Y017175D02*
X013276Y017175D01*
X013276Y017057D02*
X010656Y017057D01*
X010656Y016938D02*
X013276Y016938D01*
X013276Y016820D02*
X010656Y016820D01*
X010656Y016701D02*
X013307Y016701D01*
X013351Y016583D02*
X010656Y016583D01*
X010656Y016464D02*
X013351Y016464D01*
X013351Y016346D02*
X010656Y016346D01*
X010656Y016227D02*
X013362Y016227D01*
X013415Y016109D02*
X010656Y016109D01*
X010656Y015990D02*
X013559Y015990D01*
X013571Y015516D02*
X010656Y015516D01*
X010656Y015398D02*
X013420Y015398D01*
X013364Y015279D02*
X010656Y015279D01*
X010656Y015161D02*
X013351Y015161D01*
X013351Y015042D02*
X012156Y015042D01*
X012147Y015048D02*
X012075Y015085D01*
X011999Y015110D01*
X011919Y015122D01*
X011584Y015122D01*
X011584Y014667D01*
X012388Y014667D01*
X012379Y014730D01*
X012354Y014807D01*
X012317Y014878D01*
X012270Y014944D01*
X012213Y015001D01*
X012147Y015048D01*
X012284Y014924D02*
X013351Y014924D01*
X013351Y014805D02*
X012354Y014805D01*
X012385Y014687D02*
X013351Y014687D01*
X013351Y014568D02*
X011584Y014568D01*
X011584Y014552D02*
X011584Y014667D01*
X011469Y014667D01*
X011469Y014552D01*
X011584Y014552D01*
X011584Y014097D01*
X011919Y014097D01*
X011999Y014110D01*
X012075Y014135D01*
X012147Y014172D01*
X012213Y014219D01*
X012270Y014276D01*
X012317Y014341D01*
X012354Y014413D01*
X012379Y014490D01*
X012388Y014552D01*
X011584Y014552D01*
X011584Y014450D02*
X011469Y014450D01*
X011469Y014552D02*
X011469Y014097D01*
X011133Y014097D01*
X011054Y014110D01*
X010977Y014135D01*
X010905Y014172D01*
X010840Y014219D01*
X010783Y014276D01*
X010735Y014341D01*
X010699Y014413D01*
X010674Y014490D01*
X010664Y014552D01*
X011469Y014552D01*
X011469Y014568D02*
X010656Y014568D01*
X010664Y014667D02*
X011469Y014667D01*
X011469Y015122D01*
X011133Y015122D01*
X011054Y015110D01*
X010977Y015085D01*
X010905Y015048D01*
X010840Y015001D01*
X010783Y014944D01*
X010735Y014878D01*
X010699Y014807D01*
X010674Y014730D01*
X010664Y014667D01*
X010667Y014687D02*
X010656Y014687D01*
X010656Y014805D02*
X010698Y014805D01*
X010656Y014924D02*
X010768Y014924D01*
X010656Y015042D02*
X010897Y015042D01*
X011469Y015042D02*
X011584Y015042D01*
X011584Y014924D02*
X011469Y014924D01*
X011469Y014805D02*
X011584Y014805D01*
X011584Y014687D02*
X011469Y014687D01*
X011469Y014331D02*
X011584Y014331D01*
X011584Y014213D02*
X011469Y014213D01*
X011186Y013857D02*
X014526Y013857D01*
X014526Y013739D02*
X011304Y013739D01*
X011423Y013620D02*
X014526Y013620D01*
X014536Y013502D02*
X011541Y013502D01*
X011660Y013383D02*
X014585Y013383D01*
X014680Y013265D02*
X012288Y013265D01*
X012410Y013146D02*
X014799Y013146D01*
X014917Y013028D02*
X012512Y013028D01*
X012561Y012909D02*
X015036Y012909D01*
X015086Y012791D02*
X012610Y012791D01*
X012611Y012672D02*
X015086Y012672D01*
X015086Y012554D02*
X012611Y012554D01*
X012586Y012435D02*
X015086Y012435D01*
X015086Y012317D02*
X012537Y012317D01*
X012471Y012198D02*
X015086Y012198D01*
X015086Y012080D02*
X012353Y012080D01*
X012151Y011961D02*
X015086Y011961D01*
X015086Y011843D02*
X011634Y011843D01*
X011516Y011724D02*
X015086Y011724D01*
X015086Y011606D02*
X011397Y011606D01*
X011279Y011487D02*
X015086Y011487D01*
X014816Y011369D02*
X011160Y011369D01*
X011042Y011250D02*
X014708Y011250D01*
X014659Y011132D02*
X010923Y011132D01*
X010805Y011013D02*
X014658Y011013D01*
X014658Y010895D02*
X010686Y010895D01*
X010767Y010776D02*
X014658Y010776D01*
X014658Y010658D02*
X010885Y010658D01*
X011004Y010539D02*
X014693Y010539D01*
X015966Y011376D02*
X015966Y012626D01*
X018069Y012626D01*
X018276Y012418D01*
X018276Y011687D01*
X018276Y011786D01*
X018276Y012280D01*
X018239Y012280D01*
X018216Y012335D01*
X018110Y012442D01*
X017970Y012500D01*
X017582Y012500D01*
X017443Y012442D01*
X017336Y012335D01*
X017278Y012195D01*
X017278Y011791D01*
X017276Y011786D01*
X017276Y011376D01*
X015966Y011376D01*
X015966Y011487D02*
X017276Y011487D01*
X017276Y011606D02*
X015966Y011606D01*
X015966Y011724D02*
X017276Y011724D01*
X017278Y011843D02*
X015966Y011843D01*
X015966Y011961D02*
X017278Y011961D01*
X017278Y012080D02*
X015966Y012080D01*
X015966Y012198D02*
X017279Y012198D01*
X017328Y012317D02*
X015966Y012317D01*
X015966Y012435D02*
X017436Y012435D01*
X018116Y012435D02*
X018260Y012435D01*
X018276Y012317D02*
X018224Y012317D01*
X018276Y012198D02*
X018276Y012198D01*
X018276Y012080D02*
X018276Y012080D01*
X018276Y011961D02*
X018276Y011961D01*
X018276Y011843D02*
X018276Y011843D01*
X018276Y011786D02*
X018276Y011786D01*
X018276Y011724D02*
X018276Y011724D01*
X018276Y011687D02*
X018276Y011687D01*
X018141Y012554D02*
X015966Y012554D01*
X015966Y013626D02*
X015966Y016170D01*
X016007Y016170D01*
X016007Y016607D01*
X016045Y016607D01*
X016045Y016644D01*
X016481Y016644D01*
X016481Y016686D01*
X018026Y016686D01*
X018026Y015637D01*
X017911Y015752D01*
X017661Y015856D01*
X017391Y015856D01*
X017141Y015752D01*
X016950Y015561D01*
X016901Y015443D01*
X016877Y015475D01*
X016826Y015526D01*
X016767Y015569D01*
X016703Y015602D01*
X016634Y015624D01*
X016566Y015635D01*
X016566Y014916D01*
X016486Y014916D01*
X016486Y015635D01*
X016418Y015624D01*
X016350Y015602D01*
X016285Y015569D01*
X016227Y015526D01*
X016175Y015475D01*
X016133Y015417D01*
X016100Y015352D01*
X016078Y015283D01*
X016066Y015212D01*
X016066Y014916D01*
X016486Y014916D01*
X016486Y014836D01*
X016066Y014836D01*
X016066Y014539D01*
X016078Y014468D01*
X016100Y014399D01*
X016133Y014334D01*
X016175Y014276D01*
X016227Y014225D01*
X016285Y014182D01*
X016350Y014149D01*
X016418Y014127D01*
X016486Y014116D01*
X016486Y014836D01*
X016566Y014836D01*
X016566Y014116D01*
X016634Y014127D01*
X016703Y014149D01*
X016767Y014182D01*
X016826Y014225D01*
X016877Y014276D01*
X016901Y014309D01*
X016950Y014190D01*
X017141Y013999D01*
X017391Y013896D01*
X017661Y013896D01*
X017911Y013999D01*
X018103Y014190D01*
X018206Y014440D01*
X018206Y014988D01*
X018351Y014844D01*
X018351Y014505D01*
X018409Y014365D01*
X018516Y014258D01*
X018655Y014200D01*
X019397Y014200D01*
X019526Y014254D01*
X019655Y014200D01*
X020397Y014200D01*
X020537Y014258D01*
X020644Y014365D01*
X020701Y014505D01*
X020701Y015246D01*
X020644Y015386D01*
X020638Y015392D01*
X020677Y015376D01*
X020873Y015376D01*
X020846Y015311D01*
X020846Y014440D01*
X020950Y014190D01*
X021141Y013999D01*
X021391Y013896D01*
X021661Y013896D01*
X021911Y013999D01*
X022103Y014190D01*
X022152Y014309D01*
X022175Y014276D01*
X022227Y014225D01*
X022285Y014182D01*
X022350Y014149D01*
X022418Y014127D01*
X022486Y014116D01*
X022486Y014836D01*
X022566Y014836D01*
X022566Y014916D01*
X022986Y014916D01*
X022986Y015212D01*
X022975Y015283D01*
X022952Y015352D01*
X022941Y015376D01*
X023336Y015376D01*
X023336Y013893D01*
X023319Y013876D01*
X019677Y013876D01*
X019493Y013799D01*
X019352Y013659D01*
X018901Y013208D01*
X018700Y013409D01*
X018559Y013549D01*
X018376Y013626D01*
X015966Y013626D01*
X015966Y013739D02*
X019432Y013739D01*
X019314Y013620D02*
X018389Y013620D01*
X018607Y013502D02*
X019195Y013502D01*
X019077Y013383D02*
X018726Y013383D01*
X018844Y013265D02*
X018958Y013265D01*
X019632Y013857D02*
X015966Y013857D01*
X015966Y013976D02*
X017198Y013976D01*
X017046Y014094D02*
X015966Y014094D01*
X015966Y014213D02*
X016243Y014213D01*
X016135Y014331D02*
X015966Y014331D01*
X015966Y014450D02*
X016083Y014450D01*
X016066Y014568D02*
X015966Y014568D01*
X015966Y014687D02*
X016066Y014687D01*
X016066Y014805D02*
X015966Y014805D01*
X015966Y014924D02*
X016066Y014924D01*
X016066Y015042D02*
X015966Y015042D01*
X015966Y015161D02*
X016066Y015161D01*
X016077Y015279D02*
X015966Y015279D01*
X015966Y015398D02*
X016123Y015398D01*
X016216Y015516D02*
X015966Y015516D01*
X015966Y015635D02*
X016484Y015635D01*
X016486Y015635D02*
X016566Y015635D01*
X016569Y015635D02*
X017024Y015635D01*
X016931Y015516D02*
X016836Y015516D01*
X016566Y015516D02*
X016486Y015516D01*
X016486Y015398D02*
X016566Y015398D01*
X016566Y015279D02*
X016486Y015279D01*
X016486Y015161D02*
X016566Y015161D01*
X016566Y015042D02*
X016486Y015042D01*
X016486Y014924D02*
X016566Y014924D01*
X016566Y014805D02*
X016486Y014805D01*
X016486Y014687D02*
X016566Y014687D01*
X016566Y014568D02*
X016486Y014568D01*
X016486Y014450D02*
X016566Y014450D01*
X016566Y014331D02*
X016486Y014331D01*
X016486Y014213D02*
X016566Y014213D01*
X016809Y014213D02*
X016941Y014213D01*
X017855Y013976D02*
X021198Y013976D01*
X021046Y014094D02*
X018006Y014094D01*
X018112Y014213D02*
X018626Y014213D01*
X018443Y014331D02*
X018161Y014331D01*
X018206Y014450D02*
X018374Y014450D01*
X018351Y014568D02*
X018206Y014568D01*
X018206Y014687D02*
X018351Y014687D01*
X018351Y014805D02*
X018206Y014805D01*
X018206Y014924D02*
X018271Y014924D01*
X018026Y015753D02*
X017909Y015753D01*
X018026Y015872D02*
X015966Y015872D01*
X015966Y015990D02*
X018026Y015990D01*
X018026Y016109D02*
X015966Y016109D01*
X016045Y016170D02*
X016343Y016170D01*
X016383Y016181D01*
X016420Y016202D01*
X016449Y016232D01*
X016471Y016269D01*
X016481Y016309D01*
X016481Y016607D01*
X016045Y016607D01*
X016045Y016170D01*
X016045Y016227D02*
X016007Y016227D01*
X016007Y016346D02*
X016045Y016346D01*
X016045Y016464D02*
X016007Y016464D01*
X016007Y016583D02*
X016045Y016583D01*
X016481Y016583D02*
X018026Y016583D01*
X018026Y016464D02*
X016481Y016464D01*
X016481Y016346D02*
X018026Y016346D01*
X018026Y016227D02*
X016445Y016227D01*
X015966Y015753D02*
X017144Y015753D01*
X018026Y017649D02*
X014276Y017649D01*
X014276Y017531D02*
X015354Y017531D01*
X015190Y017412D02*
X014276Y017412D01*
X014415Y017294D02*
X015120Y017294D01*
X015086Y017175D02*
X014605Y017175D01*
X014677Y017057D02*
X015086Y017057D01*
X015086Y016938D02*
X014701Y016938D01*
X014701Y016820D02*
X015086Y016820D01*
X015086Y016701D02*
X014701Y016701D01*
X014701Y016583D02*
X015086Y016583D01*
X015086Y016464D02*
X014701Y016464D01*
X014701Y016346D02*
X015086Y016346D01*
X015086Y016227D02*
X014690Y016227D01*
X014637Y016109D02*
X015086Y016109D01*
X015086Y015990D02*
X014493Y015990D01*
X014481Y015516D02*
X014571Y015516D01*
X015086Y015635D02*
X010656Y015635D01*
X010656Y015753D02*
X015086Y015753D01*
X015086Y015872D02*
X010656Y015872D01*
X010656Y014450D02*
X010687Y014450D01*
X010712Y014331D02*
X010743Y014331D01*
X010830Y014213D02*
X010848Y014213D01*
X010949Y014094D02*
X014526Y014094D01*
X014526Y013976D02*
X011067Y013976D01*
X012204Y014213D02*
X013626Y014213D01*
X013443Y014331D02*
X012310Y014331D01*
X012365Y014450D02*
X013374Y014450D01*
X014427Y014213D02*
X014526Y014213D01*
X014276Y017768D02*
X018026Y017768D01*
X018026Y017886D02*
X014276Y017886D01*
X014276Y018005D02*
X018038Y018005D01*
X018088Y018123D02*
X014276Y018123D01*
X014276Y018242D02*
X018185Y018242D01*
X018304Y018360D02*
X014276Y018360D01*
X014276Y018479D02*
X018422Y018479D01*
X018541Y018597D02*
X014276Y018597D01*
X014276Y018716D02*
X018659Y018716D01*
X018778Y018834D02*
X014276Y018834D01*
X014276Y018953D02*
X018896Y018953D01*
X019045Y019071D02*
X014276Y019071D01*
X014276Y019190D02*
X020633Y019190D01*
X020752Y019308D02*
X014276Y019308D01*
X014276Y019427D02*
X020870Y019427D01*
X020989Y019545D02*
X014276Y019545D01*
X014276Y019664D02*
X021107Y019664D01*
X021226Y019782D02*
X014276Y019782D01*
X014276Y019901D02*
X021344Y019901D01*
X021463Y020019D02*
X014276Y020019D01*
X014276Y020138D02*
X021581Y020138D01*
X021700Y020256D02*
X014276Y020256D01*
X014276Y020375D02*
X021924Y020375D01*
X022320Y020849D02*
X020877Y020849D01*
X020894Y020865D02*
X020951Y021005D01*
X020951Y021700D01*
X021147Y021700D01*
X021287Y021758D01*
X021394Y021865D01*
X021451Y022005D01*
X021451Y022746D01*
X021394Y022886D01*
X021287Y022993D01*
X021147Y023051D01*
X020405Y023051D01*
X020266Y022993D01*
X020159Y022886D01*
X020132Y022820D01*
X020093Y022831D01*
X019796Y022831D01*
X019796Y022396D01*
X019756Y022396D01*
X019756Y022831D01*
X019460Y022831D01*
X019421Y022820D01*
X019394Y022886D01*
X019287Y022993D01*
X019147Y023051D01*
X018405Y023051D01*
X018266Y022993D01*
X018159Y022886D01*
X018101Y022746D01*
X018101Y022051D01*
X017905Y022051D01*
X017766Y021993D01*
X017659Y021886D01*
X017601Y021746D01*
X017601Y021005D01*
X017659Y020865D01*
X017766Y020758D01*
X017905Y020700D01*
X018647Y020700D01*
X018787Y020758D01*
X018894Y020865D01*
X018921Y020931D01*
X018960Y020920D01*
X019256Y020920D01*
X019256Y021356D01*
X019296Y021356D01*
X019296Y020920D01*
X019593Y020920D01*
X019632Y020931D01*
X019659Y020865D01*
X019766Y020758D01*
X019905Y020700D01*
X020647Y020700D01*
X020787Y020758D01*
X020894Y020865D01*
X020936Y020967D02*
X022178Y020967D01*
X022061Y021066D02*
X022061Y021066D01*
X022049Y021086D02*
X020951Y021086D01*
X020951Y021204D02*
X021981Y021204D01*
X021913Y021323D02*
X020951Y021323D01*
X020951Y021441D02*
X021844Y021441D01*
X021822Y021560D02*
X020951Y021560D01*
X020951Y021678D02*
X021801Y021678D01*
X021780Y021797D02*
X021325Y021797D01*
X021414Y021915D02*
X021773Y021915D01*
X021766Y021876D02*
X021766Y021876D01*
X021794Y022034D02*
X021451Y022034D01*
X021451Y022152D02*
X021815Y022152D01*
X021836Y022271D02*
X021451Y022271D01*
X021451Y022389D02*
X021890Y022389D01*
X021958Y022508D02*
X021451Y022508D01*
X021451Y022626D02*
X022027Y022626D01*
X022131Y022745D02*
X021451Y022745D01*
X021403Y022863D02*
X022273Y022863D01*
X022396Y022967D02*
X022396Y022967D01*
X022437Y022982D02*
X021298Y022982D01*
X020254Y022982D02*
X019298Y022982D01*
X019403Y022863D02*
X020149Y022863D01*
X019796Y022745D02*
X019756Y022745D01*
X019756Y022626D02*
X019796Y022626D01*
X019796Y022508D02*
X019756Y022508D01*
X019693Y021920D02*
X019659Y021886D01*
X019632Y021820D01*
X019593Y021831D01*
X019359Y021831D01*
X019394Y021865D01*
X019421Y021931D01*
X019460Y021920D01*
X019693Y021920D01*
X019688Y021915D02*
X019414Y021915D01*
X019296Y021323D02*
X019256Y021323D01*
X019256Y021204D02*
X019296Y021204D01*
X019296Y021086D02*
X019256Y021086D01*
X019256Y020967D02*
X019296Y020967D01*
X019675Y020849D02*
X018877Y020849D01*
X018719Y020730D02*
X019833Y020730D01*
X020719Y020730D02*
X022545Y020730D01*
X023507Y020730D02*
X024174Y020730D01*
X024276Y020849D02*
X023733Y020849D01*
X023874Y020967D02*
X024276Y020967D01*
X024276Y021086D02*
X024003Y021086D01*
X023991Y021066D02*
X023991Y021066D01*
X024071Y021204D02*
X024276Y021204D01*
X024276Y021323D02*
X024140Y021323D01*
X024208Y021441D02*
X024276Y021441D01*
X024210Y021445D02*
X024210Y021445D01*
X024230Y021560D02*
X024276Y021560D01*
X024276Y021678D02*
X024251Y021678D01*
X024272Y021797D02*
X024276Y021797D01*
X024258Y022034D02*
X024276Y022034D01*
X024276Y022152D02*
X024237Y022152D01*
X024217Y022271D02*
X024276Y022271D01*
X024210Y022307D02*
X024210Y022307D01*
X024163Y022389D02*
X024276Y022389D01*
X024276Y022508D02*
X024094Y022508D01*
X024026Y022626D02*
X024276Y022626D01*
X024276Y022745D02*
X023921Y022745D01*
X023991Y022686D02*
X023991Y022686D01*
X023991Y022686D01*
X023780Y022863D02*
X024276Y022863D01*
X024276Y022982D02*
X023615Y022982D01*
X023656Y022967D02*
X023656Y022967D01*
X023290Y023100D02*
X024276Y023100D01*
X024276Y023219D02*
X014276Y023219D01*
X014276Y023337D02*
X024276Y023337D01*
X024276Y023456D02*
X014276Y023456D01*
X014276Y023574D02*
X024276Y023574D01*
X024276Y023693D02*
X014276Y023693D01*
X014276Y023811D02*
X024276Y023811D01*
X024276Y023930D02*
X014276Y023930D01*
X014276Y024048D02*
X024276Y024048D01*
X024276Y024167D02*
X014276Y024167D01*
X014276Y024285D02*
X024276Y024285D01*
X024276Y024404D02*
X014276Y024404D01*
X014276Y024522D02*
X024276Y024522D01*
X024276Y024641D02*
X014276Y024641D01*
X014276Y024759D02*
X015265Y024759D01*
X015266Y024758D02*
X015405Y024700D01*
X016147Y024700D01*
X016276Y024754D01*
X016405Y024700D01*
X017147Y024700D01*
X017276Y024754D01*
X017405Y024700D01*
X018147Y024700D01*
X018276Y024754D01*
X018405Y024700D01*
X019147Y024700D01*
X019287Y024758D01*
X019394Y024865D01*
X019451Y025005D01*
X019451Y025746D01*
X019394Y025886D01*
X019287Y025993D01*
X019147Y026051D01*
X018405Y026051D01*
X018276Y025997D01*
X018147Y026051D01*
X017405Y026051D01*
X017276Y025997D01*
X017147Y026051D01*
X016405Y026051D01*
X016276Y025997D01*
X016147Y026051D01*
X015405Y026051D01*
X015266Y025993D01*
X015159Y025886D01*
X015101Y025746D01*
X015101Y025005D01*
X015159Y024865D01*
X015266Y024758D01*
X015154Y024878D02*
X014276Y024878D01*
X014276Y024996D02*
X015104Y024996D01*
X015101Y025115D02*
X014276Y025115D01*
X014276Y025233D02*
X015101Y025233D01*
X015101Y025352D02*
X014276Y025352D01*
X014276Y025470D02*
X015101Y025470D01*
X015101Y025589D02*
X014276Y025589D01*
X014276Y025707D02*
X015101Y025707D01*
X015134Y025826D02*
X014276Y025826D01*
X014276Y025944D02*
X015217Y025944D01*
X015250Y026774D02*
X014276Y026774D01*
X014276Y026892D02*
X015148Y026892D01*
X015101Y027011D02*
X014276Y027011D01*
X014276Y027129D02*
X015101Y027129D01*
X015101Y027248D02*
X014276Y027248D01*
X014276Y027366D02*
X015101Y027366D01*
X015101Y027485D02*
X014276Y027485D01*
X014276Y027603D02*
X015101Y027603D01*
X015101Y027722D02*
X014276Y027722D01*
X014276Y027840D02*
X015140Y027840D01*
X015231Y027959D02*
X014276Y027959D01*
X014276Y028077D02*
X016330Y028077D01*
X016330Y028196D02*
X014276Y028196D01*
X014276Y028314D02*
X016330Y028314D01*
X016330Y028433D02*
X014276Y028433D01*
X014276Y028551D02*
X016330Y028551D01*
X016330Y028670D02*
X014276Y028670D01*
X014276Y028788D02*
X016330Y028788D01*
X016330Y028907D02*
X014276Y028907D01*
X014255Y029025D02*
X016330Y029025D01*
X016330Y029144D02*
X014206Y029144D01*
X014097Y029262D02*
X016330Y029262D01*
X016020Y029381D02*
X015946Y029381D01*
X015233Y029381D02*
X015158Y029381D01*
X014445Y029381D02*
X014371Y029381D01*
X014408Y030751D02*
X014352Y030807D01*
X014133Y030897D01*
X014061Y030897D01*
X014061Y031163D01*
X014070Y031153D01*
X014289Y031063D01*
X014527Y031063D01*
X014746Y031153D01*
X014860Y031268D01*
X014862Y031264D01*
X014903Y031202D01*
X014955Y031150D01*
X015017Y031109D01*
X015086Y031080D01*
X015158Y031066D01*
X015187Y031066D01*
X015187Y031867D01*
X015204Y031867D01*
X015204Y031066D01*
X015233Y031066D01*
X015305Y031080D01*
X015374Y031109D01*
X015435Y031150D01*
X015488Y031202D01*
X015529Y031264D01*
X015531Y031268D01*
X015645Y031153D01*
X015864Y031063D01*
X016102Y031063D01*
X016321Y031153D01*
X016330Y031163D01*
X016330Y030897D01*
X016258Y030897D01*
X016039Y030807D01*
X015983Y030751D01*
X015927Y030807D01*
X015708Y030897D01*
X015471Y030897D01*
X015251Y030807D01*
X015195Y030751D01*
X015140Y030807D01*
X014920Y030897D01*
X014683Y030897D01*
X014464Y030807D01*
X014408Y030751D01*
X014356Y030803D02*
X014460Y030803D01*
X014061Y030921D02*
X016330Y030921D01*
X016330Y031040D02*
X014061Y031040D01*
X014061Y031158D02*
X014065Y031158D01*
X014751Y031158D02*
X014947Y031158D01*
X015187Y031158D02*
X015204Y031158D01*
X015204Y031277D02*
X015187Y031277D01*
X015187Y031395D02*
X015204Y031395D01*
X015204Y031514D02*
X015187Y031514D01*
X015187Y031632D02*
X015204Y031632D01*
X015204Y031751D02*
X015187Y031751D01*
X015038Y032218D02*
X015038Y032246D01*
X015126Y032246D01*
X015086Y032238D01*
X015038Y032218D01*
X015038Y032225D02*
X015054Y032225D01*
X015265Y032246D02*
X015401Y032246D01*
X015386Y032211D01*
X015386Y032201D01*
X015374Y032209D01*
X015305Y032238D01*
X015265Y032246D01*
X015337Y032225D02*
X015392Y032225D01*
X015444Y031158D02*
X015640Y031158D01*
X015931Y030803D02*
X016035Y030803D01*
X016326Y031158D02*
X016330Y031158D01*
X016770Y031876D02*
X016770Y027381D01*
X016776Y027376D01*
X017210Y028025D02*
X017210Y028569D01*
X017729Y028051D01*
X017405Y028051D01*
X017276Y027997D01*
X017210Y028025D01*
X017210Y028077D02*
X017702Y028077D01*
X017584Y028196D02*
X017210Y028196D01*
X017210Y028314D02*
X017465Y028314D01*
X017347Y028433D02*
X017210Y028433D01*
X017210Y028551D02*
X017228Y028551D01*
X017558Y028844D02*
X018776Y027626D01*
X018776Y027376D01*
X018947Y028077D02*
X022868Y028077D01*
X022986Y027959D02*
X019321Y027959D01*
X019413Y027840D02*
X023105Y027840D01*
X023223Y027722D02*
X019451Y027722D01*
X019451Y027603D02*
X023342Y027603D01*
X023460Y027485D02*
X019451Y027485D01*
X019451Y027366D02*
X023579Y027366D01*
X023697Y027248D02*
X019451Y027248D01*
X019451Y027129D02*
X023816Y027129D01*
X023934Y027011D02*
X019451Y027011D01*
X019405Y026892D02*
X024053Y026892D01*
X024171Y026774D02*
X019302Y026774D01*
X019336Y025944D02*
X024276Y025944D01*
X024276Y025826D02*
X019419Y025826D01*
X019451Y025707D02*
X024276Y025707D01*
X024276Y025589D02*
X019451Y025589D01*
X019451Y025470D02*
X024276Y025470D01*
X024276Y025352D02*
X019451Y025352D01*
X019451Y025233D02*
X024276Y025233D01*
X024276Y025115D02*
X019451Y025115D01*
X019448Y024996D02*
X024276Y024996D01*
X024276Y024878D02*
X019399Y024878D01*
X019288Y024759D02*
X024276Y024759D01*
X024276Y026063D02*
X014276Y026063D01*
X014276Y026181D02*
X024276Y026181D01*
X024276Y026300D02*
X014276Y026300D01*
X014276Y026418D02*
X024276Y026418D01*
X024276Y026537D02*
X014276Y026537D01*
X014276Y026655D02*
X024276Y026655D01*
X025150Y027959D02*
X025802Y027959D01*
X025742Y028019D02*
X028200Y025561D01*
X027278Y025561D01*
X027009Y025449D01*
X026856Y025297D01*
X026856Y026241D01*
X026834Y026294D01*
X026834Y026379D01*
X026776Y026519D01*
X026670Y026626D01*
X026530Y026684D01*
X026444Y026684D01*
X026392Y026706D01*
X026161Y026706D01*
X026108Y026684D01*
X026022Y026684D01*
X025883Y026626D01*
X025776Y026519D01*
X025776Y027225D01*
X025700Y027409D01*
X025559Y027549D01*
X023581Y029528D01*
X023733Y029592D01*
X023910Y029769D01*
X023923Y029799D01*
X024006Y029716D01*
X024156Y029716D01*
X024156Y030106D01*
X024196Y030106D01*
X024196Y029716D01*
X024271Y029716D01*
X024271Y029625D01*
X024367Y029394D01*
X024544Y029217D01*
X025742Y028019D01*
X025742Y028019D01*
X025684Y028077D02*
X025032Y028077D01*
X024913Y028196D02*
X025565Y028196D01*
X025447Y028314D02*
X024795Y028314D01*
X024676Y028433D02*
X025328Y028433D01*
X025210Y028551D02*
X024558Y028551D01*
X024439Y028670D02*
X025091Y028670D01*
X024973Y028788D02*
X024321Y028788D01*
X024202Y028907D02*
X024854Y028907D01*
X024736Y029025D02*
X024084Y029025D01*
X023965Y029144D02*
X024617Y029144D01*
X024499Y029262D02*
X023847Y029262D01*
X023728Y029381D02*
X024380Y029381D01*
X024323Y029499D02*
X023610Y029499D01*
X023759Y029618D02*
X024274Y029618D01*
X024196Y029736D02*
X024156Y029736D01*
X024156Y029855D02*
X024196Y029855D01*
X024196Y029973D02*
X024156Y029973D01*
X024156Y030092D02*
X024196Y030092D01*
X024196Y030146D02*
X024156Y030146D01*
X024156Y030536D01*
X024006Y030536D01*
X024006Y030535D01*
X024006Y031255D01*
X024271Y030990D01*
X024271Y030536D01*
X024196Y030536D01*
X024196Y030146D01*
X024196Y030210D02*
X024156Y030210D01*
X024156Y030329D02*
X024196Y030329D01*
X024196Y030447D02*
X024156Y030447D01*
X024271Y030566D02*
X024006Y030566D01*
X024006Y030684D02*
X024271Y030684D01*
X024271Y030803D02*
X024006Y030803D01*
X024006Y030921D02*
X024271Y030921D01*
X024221Y031040D02*
X024006Y031040D01*
X024006Y031158D02*
X024103Y031158D01*
X025315Y031728D02*
X025402Y031815D01*
X025451Y031934D01*
X025475Y031901D01*
X025526Y031850D01*
X025584Y031807D01*
X025649Y031774D01*
X025718Y031752D01*
X025785Y031741D01*
X025785Y032461D01*
X025865Y032461D01*
X025865Y031741D01*
X025933Y031752D01*
X026002Y031774D01*
X026066Y031807D01*
X026125Y031850D01*
X026176Y031901D01*
X026195Y031927D01*
X026195Y030712D01*
X026069Y030660D01*
X025892Y030482D01*
X025880Y030452D01*
X025796Y030536D01*
X025646Y030536D01*
X025646Y030146D01*
X025606Y030146D01*
X025606Y030536D01*
X025531Y030536D01*
X025531Y031376D01*
X025435Y031607D01*
X025315Y031728D01*
X025337Y031751D02*
X025726Y031751D01*
X025785Y031751D02*
X025865Y031751D01*
X025925Y031751D02*
X026195Y031751D01*
X026195Y031869D02*
X026144Y031869D01*
X026195Y031632D02*
X025411Y031632D01*
X025474Y031514D02*
X026195Y031514D01*
X026195Y031395D02*
X025523Y031395D01*
X025531Y031277D02*
X026195Y031277D01*
X026195Y031158D02*
X025531Y031158D01*
X025531Y031040D02*
X026195Y031040D01*
X026195Y030921D02*
X025531Y030921D01*
X025531Y030803D02*
X026195Y030803D01*
X026128Y030684D02*
X025531Y030684D01*
X025531Y030566D02*
X025975Y030566D01*
X025646Y030447D02*
X025606Y030447D01*
X025606Y030329D02*
X025646Y030329D01*
X025646Y030210D02*
X025606Y030210D01*
X025880Y029799D02*
X025892Y029769D01*
X026069Y029592D01*
X026301Y029496D01*
X026951Y029496D01*
X027182Y029592D01*
X027359Y029769D01*
X027455Y030000D01*
X027455Y030946D01*
X029026Y029376D01*
X029026Y026517D01*
X028019Y027524D01*
X028275Y027630D01*
X028522Y027877D01*
X028656Y028201D01*
X028656Y028551D01*
X029026Y028551D01*
X029026Y028433D02*
X028656Y028433D01*
X028656Y028551D02*
X028522Y028874D01*
X028275Y029122D01*
X027951Y029256D01*
X027601Y029256D01*
X027278Y029122D01*
X027162Y029006D01*
X026537Y029006D01*
X025812Y029731D01*
X025880Y029799D01*
X025925Y029736D02*
X025817Y029736D01*
X025925Y029618D02*
X026043Y029618D01*
X026044Y029499D02*
X026292Y029499D01*
X026162Y029381D02*
X029021Y029381D01*
X029026Y029262D02*
X026281Y029262D01*
X026399Y029144D02*
X027331Y029144D01*
X027181Y029025D02*
X026518Y029025D01*
X026959Y029499D02*
X028903Y029499D01*
X028784Y029618D02*
X027208Y029618D01*
X027327Y029736D02*
X028666Y029736D01*
X028547Y029855D02*
X027395Y029855D01*
X027444Y029973D02*
X028429Y029973D01*
X028310Y030092D02*
X027455Y030092D01*
X027455Y030210D02*
X028192Y030210D01*
X028073Y030329D02*
X027455Y030329D01*
X027455Y030447D02*
X027955Y030447D01*
X027836Y030566D02*
X027455Y030566D01*
X027455Y030684D02*
X027718Y030684D01*
X027599Y030803D02*
X027455Y030803D01*
X027455Y030921D02*
X027481Y030921D01*
X028221Y029144D02*
X029026Y029144D01*
X029026Y029025D02*
X028371Y029025D01*
X028490Y028907D02*
X029026Y028907D01*
X029026Y028788D02*
X028558Y028788D01*
X028607Y028670D02*
X029026Y028670D01*
X029026Y028314D02*
X028656Y028314D01*
X028654Y028196D02*
X029026Y028196D01*
X029026Y028077D02*
X028605Y028077D01*
X028556Y027959D02*
X029026Y027959D01*
X029026Y027840D02*
X028485Y027840D01*
X028367Y027722D02*
X029026Y027722D01*
X029026Y027603D02*
X028211Y027603D01*
X028058Y027485D02*
X029026Y027485D01*
X029026Y027366D02*
X028177Y027366D01*
X028295Y027248D02*
X029026Y027248D01*
X029026Y027129D02*
X028414Y027129D01*
X028532Y027011D02*
X029026Y027011D01*
X029026Y026892D02*
X028651Y026892D01*
X028769Y026774D02*
X029026Y026774D01*
X029026Y026655D02*
X028888Y026655D01*
X029006Y026537D02*
X029026Y026537D01*
X028172Y025589D02*
X026856Y025589D01*
X026856Y025707D02*
X028054Y025707D01*
X027935Y025826D02*
X026856Y025826D01*
X026856Y025944D02*
X027817Y025944D01*
X027698Y026063D02*
X026856Y026063D01*
X026856Y026181D02*
X027580Y026181D01*
X027461Y026300D02*
X026834Y026300D01*
X026818Y026418D02*
X027343Y026418D01*
X027224Y026537D02*
X026759Y026537D01*
X026599Y026655D02*
X027106Y026655D01*
X026987Y026774D02*
X025776Y026774D01*
X025776Y026892D02*
X026869Y026892D01*
X026750Y027011D02*
X025776Y027011D01*
X025776Y027129D02*
X026632Y027129D01*
X026513Y027248D02*
X025767Y027248D01*
X025718Y027366D02*
X026395Y027366D01*
X026276Y027485D02*
X025624Y027485D01*
X025506Y027603D02*
X026158Y027603D01*
X026039Y027722D02*
X025387Y027722D01*
X025269Y027840D02*
X025921Y027840D01*
X025954Y026655D02*
X025776Y026655D01*
X025776Y026537D02*
X025794Y026537D01*
X026856Y025470D02*
X027059Y025470D01*
X026911Y025352D02*
X026856Y025352D01*
X026856Y024360D02*
X027009Y024207D01*
X027278Y024096D01*
X028274Y024096D01*
X028396Y024146D01*
X028396Y023542D01*
X028274Y023592D01*
X027278Y023592D01*
X027009Y023481D01*
X026856Y023328D01*
X026856Y024360D01*
X026856Y024285D02*
X026931Y024285D01*
X026856Y024167D02*
X027107Y024167D01*
X026856Y024048D02*
X028396Y024048D01*
X028396Y023930D02*
X026856Y023930D01*
X026856Y023811D02*
X028396Y023811D01*
X028396Y023693D02*
X026856Y023693D01*
X026856Y023574D02*
X027234Y023574D01*
X026984Y023456D02*
X026856Y023456D01*
X026856Y023337D02*
X026865Y023337D01*
X026856Y022391D02*
X027009Y022239D01*
X027278Y022127D01*
X028274Y022127D01*
X028396Y022178D01*
X028396Y021573D01*
X028274Y021624D01*
X027278Y021624D01*
X027009Y021512D01*
X026856Y021360D01*
X026856Y022391D01*
X026856Y022389D02*
X026858Y022389D01*
X026856Y022271D02*
X026977Y022271D01*
X026856Y022152D02*
X027218Y022152D01*
X026856Y022034D02*
X028396Y022034D01*
X028396Y022152D02*
X028334Y022152D01*
X028396Y021915D02*
X026856Y021915D01*
X026856Y021797D02*
X028396Y021797D01*
X028396Y021678D02*
X026856Y021678D01*
X026856Y021560D02*
X027123Y021560D01*
X026938Y021441D02*
X026856Y021441D01*
X026856Y020423D02*
X027009Y020270D01*
X027278Y020159D01*
X028274Y020159D01*
X028396Y020209D01*
X028396Y019605D01*
X028274Y019655D01*
X027278Y019655D01*
X027009Y019544D01*
X026856Y019391D01*
X026856Y020423D01*
X026856Y020375D02*
X026904Y020375D01*
X026856Y020256D02*
X027043Y020256D01*
X026856Y020138D02*
X028396Y020138D01*
X028396Y020019D02*
X026856Y020019D01*
X026856Y019901D02*
X028396Y019901D01*
X028396Y019782D02*
X026856Y019782D01*
X026856Y019664D02*
X028396Y019664D01*
X028396Y018241D02*
X028396Y010887D01*
X028015Y010506D01*
X027726Y010506D01*
X027768Y010547D01*
X028268Y011047D01*
X028356Y011260D01*
X028356Y011491D01*
X028356Y015991D01*
X028356Y016991D01*
X028268Y017204D01*
X028105Y017367D01*
X027282Y018190D01*
X028274Y018190D01*
X028396Y018241D01*
X028396Y018123D02*
X027349Y018123D01*
X027467Y018005D02*
X028396Y018005D01*
X028396Y017886D02*
X027586Y017886D01*
X027704Y017768D02*
X028396Y017768D01*
X028396Y017649D02*
X027823Y017649D01*
X027941Y017531D02*
X028396Y017531D01*
X028396Y017412D02*
X028060Y017412D01*
X028178Y017294D02*
X028396Y017294D01*
X028396Y017175D02*
X028280Y017175D01*
X028329Y017057D02*
X028396Y017057D01*
X028396Y016938D02*
X028356Y016938D01*
X028356Y016820D02*
X028396Y016820D01*
X028396Y016701D02*
X028356Y016701D01*
X028356Y016583D02*
X028396Y016583D01*
X028396Y016464D02*
X028356Y016464D01*
X028356Y016346D02*
X028396Y016346D01*
X028396Y016227D02*
X028356Y016227D01*
X028356Y016109D02*
X028396Y016109D01*
X028396Y015990D02*
X028356Y015990D01*
X028356Y015872D02*
X028396Y015872D01*
X028396Y015753D02*
X028356Y015753D01*
X028356Y015635D02*
X028396Y015635D01*
X028396Y015516D02*
X028356Y015516D01*
X028356Y015398D02*
X028396Y015398D01*
X028396Y015279D02*
X028356Y015279D01*
X028356Y015161D02*
X028396Y015161D01*
X028396Y015042D02*
X028356Y015042D01*
X028356Y014924D02*
X028396Y014924D01*
X028396Y014805D02*
X028356Y014805D01*
X028356Y014687D02*
X028396Y014687D01*
X028396Y014568D02*
X028356Y014568D01*
X028356Y014450D02*
X028396Y014450D01*
X028396Y014331D02*
X028356Y014331D01*
X028356Y014213D02*
X028396Y014213D01*
X028396Y014094D02*
X028356Y014094D01*
X028356Y013976D02*
X028396Y013976D01*
X028396Y013857D02*
X028356Y013857D01*
X028356Y013739D02*
X028396Y013739D01*
X028396Y013620D02*
X028356Y013620D01*
X028356Y013502D02*
X028396Y013502D01*
X028396Y013383D02*
X028356Y013383D01*
X028356Y013265D02*
X028396Y013265D01*
X028396Y013146D02*
X028356Y013146D01*
X028356Y013028D02*
X028396Y013028D01*
X028396Y012909D02*
X028356Y012909D01*
X028356Y012791D02*
X028396Y012791D01*
X028396Y012672D02*
X028356Y012672D01*
X028356Y012554D02*
X028396Y012554D01*
X028396Y012435D02*
X028356Y012435D01*
X028356Y012317D02*
X028396Y012317D01*
X028396Y012198D02*
X028356Y012198D01*
X028356Y012080D02*
X028396Y012080D01*
X028396Y011961D02*
X028356Y011961D01*
X028356Y011843D02*
X028396Y011843D01*
X028396Y011724D02*
X028356Y011724D01*
X028356Y011606D02*
X028396Y011606D01*
X028396Y011487D02*
X028356Y011487D01*
X028356Y011369D02*
X028396Y011369D01*
X028396Y011250D02*
X028352Y011250D01*
X028396Y011132D02*
X028303Y011132D01*
X028234Y011013D02*
X028396Y011013D01*
X028396Y010895D02*
X028115Y010895D01*
X027997Y010776D02*
X028286Y010776D01*
X028167Y010658D02*
X027878Y010658D01*
X027760Y010539D02*
X028049Y010539D01*
X027067Y011487D02*
X025584Y011487D01*
X025584Y011456D02*
X025584Y011629D01*
X025526Y011769D01*
X025420Y011876D01*
X025280Y011934D01*
X024772Y011934D01*
X024633Y011876D01*
X024526Y011769D01*
X024468Y011629D01*
X024468Y011456D01*
X024216Y011456D01*
X024216Y013358D01*
X024309Y013452D01*
X024450Y013592D01*
X024526Y013776D01*
X024526Y014254D01*
X024526Y014254D01*
X024655Y014200D01*
X025397Y014200D01*
X025537Y014258D01*
X025644Y014365D01*
X025701Y014505D01*
X025701Y015246D01*
X025648Y015376D01*
X027196Y015376D01*
X027196Y011616D01*
X027036Y011456D01*
X025584Y011456D01*
X025584Y011606D02*
X027186Y011606D01*
X027196Y011724D02*
X025545Y011724D01*
X025453Y011843D02*
X027196Y011843D01*
X027196Y011961D02*
X024216Y011961D01*
X024216Y011843D02*
X024600Y011843D01*
X024507Y011724D02*
X024216Y011724D01*
X024216Y011606D02*
X024468Y011606D01*
X024468Y011487D02*
X024216Y011487D01*
X024216Y012080D02*
X027196Y012080D01*
X027196Y012198D02*
X024216Y012198D01*
X024216Y012317D02*
X027196Y012317D01*
X027196Y012435D02*
X024216Y012435D01*
X024216Y012554D02*
X027196Y012554D01*
X027196Y012672D02*
X024216Y012672D01*
X024216Y012791D02*
X027196Y012791D01*
X027196Y012909D02*
X024216Y012909D01*
X024216Y013028D02*
X027196Y013028D01*
X027196Y013146D02*
X024216Y013146D01*
X024216Y013265D02*
X027196Y013265D01*
X027196Y013383D02*
X024241Y013383D01*
X024359Y013502D02*
X027196Y013502D01*
X027196Y013620D02*
X024462Y013620D01*
X024511Y013739D02*
X027196Y013739D01*
X027196Y013857D02*
X024526Y013857D01*
X024526Y013976D02*
X027196Y013976D01*
X027196Y014094D02*
X024526Y014094D01*
X024526Y014213D02*
X024626Y014213D01*
X025427Y014213D02*
X027196Y014213D01*
X027196Y014331D02*
X025610Y014331D01*
X025679Y014450D02*
X027196Y014450D01*
X027196Y014568D02*
X025701Y014568D01*
X025701Y014687D02*
X027196Y014687D01*
X027196Y014805D02*
X025701Y014805D01*
X025701Y014924D02*
X027196Y014924D01*
X027196Y015042D02*
X025701Y015042D01*
X025701Y015161D02*
X027196Y015161D01*
X027196Y015279D02*
X025688Y015279D01*
X025701Y016376D02*
X025701Y016596D01*
X025776Y016776D01*
X025776Y018067D01*
X025776Y018067D01*
X025776Y018026D01*
X025852Y017842D01*
X025993Y017702D01*
X026177Y017626D01*
X026206Y017626D01*
X027196Y016635D01*
X027196Y016376D01*
X025701Y016376D01*
X025701Y016464D02*
X027196Y016464D01*
X027196Y016583D02*
X025701Y016583D01*
X025745Y016701D02*
X027130Y016701D01*
X027012Y016820D02*
X025776Y016820D01*
X025776Y016938D02*
X026893Y016938D01*
X026775Y017057D02*
X025776Y017057D01*
X025776Y017175D02*
X026656Y017175D01*
X026538Y017294D02*
X025776Y017294D01*
X025776Y017412D02*
X026419Y017412D01*
X026301Y017531D02*
X025776Y017531D01*
X025776Y017649D02*
X026120Y017649D01*
X025927Y017768D02*
X025776Y017768D01*
X025776Y017886D02*
X025834Y017886D01*
X025785Y018005D02*
X025776Y018005D01*
X024776Y018005D02*
X019362Y018005D01*
X019481Y018123D02*
X024776Y018123D01*
X024776Y018242D02*
X021099Y018242D01*
X021059Y018202D02*
X021200Y018342D01*
X022233Y019376D01*
X024126Y019376D01*
X024309Y019452D01*
X024450Y019592D01*
X024776Y019918D01*
X024776Y017301D01*
X024655Y017301D01*
X024516Y017243D01*
X024409Y017136D01*
X024351Y016996D01*
X024351Y016376D01*
X024216Y016376D01*
X024216Y017213D01*
X024149Y017375D01*
X024025Y017499D01*
X023864Y017566D01*
X019026Y017566D01*
X019026Y017668D01*
X019483Y018126D01*
X020876Y018126D01*
X021059Y018202D01*
X021218Y018360D02*
X024776Y018360D01*
X024776Y018479D02*
X021336Y018479D01*
X021455Y018597D02*
X024776Y018597D01*
X024776Y018716D02*
X021573Y018716D01*
X021692Y018834D02*
X024776Y018834D01*
X024776Y018953D02*
X021810Y018953D01*
X021929Y019071D02*
X024776Y019071D01*
X024776Y019190D02*
X022047Y019190D01*
X022166Y019308D02*
X024776Y019308D01*
X024776Y019427D02*
X024249Y019427D01*
X024403Y019545D02*
X024776Y019545D01*
X024776Y019664D02*
X024521Y019664D01*
X024640Y019782D02*
X024776Y019782D01*
X024776Y019901D02*
X024758Y019901D01*
X024055Y020612D02*
X014276Y020612D01*
X014276Y020730D02*
X017833Y020730D01*
X017675Y020849D02*
X014276Y020849D01*
X014276Y020967D02*
X017616Y020967D01*
X017601Y021086D02*
X014276Y021086D01*
X014276Y021204D02*
X017601Y021204D01*
X017601Y021323D02*
X014276Y021323D01*
X014276Y021441D02*
X017601Y021441D01*
X017601Y021560D02*
X014276Y021560D01*
X014276Y021678D02*
X017601Y021678D01*
X017622Y021797D02*
X014276Y021797D01*
X014276Y021915D02*
X017688Y021915D01*
X017864Y022034D02*
X014276Y022034D01*
X014276Y022152D02*
X018101Y022152D01*
X018101Y022271D02*
X014276Y022271D01*
X014276Y022389D02*
X018101Y022389D01*
X018101Y022508D02*
X014276Y022508D01*
X014276Y022626D02*
X018101Y022626D01*
X018101Y022745D02*
X014276Y022745D01*
X014276Y022863D02*
X018149Y022863D01*
X018254Y022982D02*
X014276Y022982D01*
X014276Y023100D02*
X022763Y023100D01*
X023937Y020493D02*
X014276Y020493D01*
X013276Y024167D02*
X011945Y024167D01*
X012121Y024285D02*
X013276Y024285D01*
X013276Y024404D02*
X012240Y024404D01*
X012295Y024522D02*
X013276Y024522D01*
X013276Y024641D02*
X012344Y024641D01*
X012361Y024759D02*
X013276Y024759D01*
X013276Y024878D02*
X012361Y024878D01*
X012352Y024996D02*
X013276Y024996D01*
X013276Y025115D02*
X012303Y025115D01*
X012254Y025233D02*
X013276Y025233D01*
X013276Y025352D02*
X012141Y025352D01*
X011993Y025470D02*
X013276Y025470D01*
X012362Y029499D02*
X011041Y029499D01*
X011159Y029618D02*
X012157Y029618D01*
X012087Y029736D02*
X011278Y029736D01*
X011396Y029855D02*
X012063Y029855D01*
X012063Y029973D02*
X011515Y029973D01*
X011633Y030092D02*
X012063Y030092D01*
X012063Y030210D02*
X011752Y030210D01*
X011870Y030329D02*
X012063Y030329D01*
X012093Y030447D02*
X011989Y030447D01*
X012107Y030566D02*
X012172Y030566D01*
X012824Y031158D02*
X012842Y031158D01*
X012842Y031277D02*
X012824Y031277D01*
X012824Y031395D02*
X012842Y031395D01*
X012842Y031514D02*
X012824Y031514D01*
X012824Y031632D02*
X012842Y031632D01*
X012842Y031751D02*
X012824Y031751D01*
X015144Y030803D02*
X015247Y030803D01*
X017558Y031876D02*
X017558Y028844D01*
X017999Y029025D02*
X021920Y029025D01*
X022038Y028907D02*
X018117Y028907D01*
X018236Y028788D02*
X022157Y028788D01*
X022275Y028670D02*
X018354Y028670D01*
X018473Y028551D02*
X022394Y028551D01*
X022512Y028433D02*
X018591Y028433D01*
X018710Y028314D02*
X022631Y028314D01*
X022749Y028196D02*
X018828Y028196D01*
X019095Y029381D02*
X019170Y029381D01*
X019883Y029381D02*
X019957Y029381D01*
X020670Y029381D02*
X020744Y029381D01*
X021458Y029381D02*
X021532Y029381D01*
X021683Y029262D02*
X017998Y029262D01*
X017998Y029144D02*
X021801Y029144D01*
X022746Y031113D02*
X022559Y031299D01*
X022376Y031376D01*
X021865Y031376D01*
X021871Y031405D01*
X021871Y031867D01*
X021504Y031867D01*
X021504Y031884D01*
X021871Y031884D01*
X021871Y031913D01*
X021857Y031985D01*
X021828Y032054D01*
X021811Y032080D01*
X021920Y032125D01*
X022026Y032232D01*
X022032Y032246D01*
X022746Y032246D01*
X022746Y031113D01*
X022746Y031158D02*
X022701Y031158D01*
X022746Y031277D02*
X022582Y031277D01*
X022746Y031395D02*
X021869Y031395D01*
X021871Y031514D02*
X022746Y031514D01*
X022746Y031632D02*
X021871Y031632D01*
X021871Y031751D02*
X022746Y031751D01*
X022746Y031869D02*
X021504Y031869D01*
X021856Y031988D02*
X022746Y031988D01*
X022746Y032106D02*
X021873Y032106D01*
X022019Y032225D02*
X022746Y032225D01*
X023878Y029736D02*
X023986Y029736D01*
X025424Y031869D02*
X025506Y031869D01*
X025785Y031869D02*
X025865Y031869D01*
X025865Y031988D02*
X025785Y031988D01*
X025785Y032106D02*
X025865Y032106D01*
X025865Y032225D02*
X025785Y032225D01*
X025785Y032343D02*
X025865Y032343D01*
X020297Y030897D02*
X020195Y030897D01*
X019976Y030807D01*
X019920Y030751D01*
X019864Y030807D01*
X019645Y030897D01*
X019408Y030897D01*
X019188Y030807D01*
X019132Y030751D01*
X019077Y030807D01*
X018857Y030897D01*
X018620Y030897D01*
X018401Y030807D01*
X018345Y030751D01*
X018289Y030807D01*
X018070Y030897D01*
X017998Y030897D01*
X017998Y031163D01*
X018007Y031153D01*
X018226Y031063D01*
X018464Y031063D01*
X018683Y031153D01*
X018797Y031268D01*
X018799Y031264D01*
X018840Y031202D01*
X018892Y031150D01*
X018954Y031109D01*
X019023Y031080D01*
X019095Y031066D01*
X019124Y031066D01*
X019124Y031867D01*
X019141Y031867D01*
X019141Y031066D01*
X019170Y031066D01*
X019242Y031080D01*
X019311Y031109D01*
X019373Y031150D01*
X019425Y031202D01*
X019466Y031264D01*
X019468Y031268D01*
X019582Y031153D01*
X019801Y031063D01*
X020039Y031063D01*
X020207Y031132D01*
X020207Y031095D01*
X020283Y030911D01*
X020297Y030897D01*
X020279Y030921D02*
X017998Y030921D01*
X017998Y031040D02*
X020230Y031040D01*
X019972Y030803D02*
X019868Y030803D01*
X019577Y031158D02*
X019381Y031158D01*
X019141Y031158D02*
X019124Y031158D01*
X019124Y031277D02*
X019141Y031277D01*
X019141Y031395D02*
X019124Y031395D01*
X019124Y031514D02*
X019141Y031514D01*
X019141Y031632D02*
X019124Y031632D01*
X019124Y031751D02*
X019141Y031751D01*
X019290Y032218D02*
X019242Y032238D01*
X019202Y032246D01*
X019290Y032246D01*
X019290Y032218D01*
X019290Y032225D02*
X019274Y032225D01*
X019063Y032246D02*
X019023Y032238D01*
X018954Y032209D01*
X018942Y032201D01*
X018942Y032211D01*
X018927Y032246D01*
X019063Y032246D01*
X018991Y032225D02*
X018936Y032225D01*
X018884Y031158D02*
X018688Y031158D01*
X018397Y030803D02*
X018293Y030803D01*
X018002Y031158D02*
X017998Y031158D01*
X019081Y030803D02*
X019184Y030803D01*
X018382Y029381D02*
X018308Y029381D01*
X019244Y017886D02*
X024776Y017886D01*
X024776Y017768D02*
X019125Y017768D01*
X019026Y017649D02*
X024776Y017649D01*
X024776Y017531D02*
X023948Y017531D01*
X024112Y017412D02*
X024776Y017412D01*
X024638Y017294D02*
X024183Y017294D01*
X024216Y017175D02*
X024448Y017175D01*
X024376Y017057D02*
X024216Y017057D01*
X024216Y016938D02*
X024351Y016938D01*
X024351Y016820D02*
X024216Y016820D01*
X024216Y016701D02*
X024351Y016701D01*
X024351Y016583D02*
X024216Y016583D01*
X024216Y016464D02*
X024351Y016464D01*
X023336Y015279D02*
X022976Y015279D01*
X022986Y015161D02*
X023336Y015161D01*
X023336Y015042D02*
X022986Y015042D01*
X022986Y014924D02*
X023336Y014924D01*
X023336Y014805D02*
X022986Y014805D01*
X022986Y014836D02*
X022566Y014836D01*
X022566Y014116D01*
X022634Y014127D01*
X022703Y014149D01*
X022767Y014182D01*
X022826Y014225D01*
X022877Y014276D01*
X022920Y014334D01*
X022952Y014399D01*
X022975Y014468D01*
X022986Y014539D01*
X022986Y014836D01*
X022986Y014687D02*
X023336Y014687D01*
X023336Y014568D02*
X022986Y014568D01*
X022969Y014450D02*
X023336Y014450D01*
X023336Y014331D02*
X022917Y014331D01*
X022809Y014213D02*
X023336Y014213D01*
X023336Y014094D02*
X022006Y014094D01*
X022112Y014213D02*
X022243Y014213D01*
X022486Y014213D02*
X022566Y014213D01*
X022566Y014331D02*
X022486Y014331D01*
X022486Y014450D02*
X022566Y014450D01*
X022566Y014568D02*
X022486Y014568D01*
X022486Y014687D02*
X022566Y014687D01*
X022566Y014805D02*
X022486Y014805D01*
X021855Y013976D02*
X023336Y013976D01*
X023336Y012876D02*
X023336Y011707D01*
X023236Y011749D01*
X023259Y011772D01*
X023280Y011809D01*
X023291Y011849D01*
X023291Y012125D01*
X022836Y012125D01*
X022836Y012245D01*
X023291Y012245D01*
X023291Y012521D01*
X023280Y012562D01*
X023259Y012599D01*
X023229Y012628D01*
X023193Y012649D01*
X023152Y012660D01*
X022836Y012660D01*
X022836Y012245D01*
X022716Y012245D01*
X022716Y012125D01*
X022261Y012125D01*
X022261Y011849D01*
X022272Y011809D01*
X022293Y011772D01*
X022317Y011749D01*
X022206Y011703D01*
X022099Y011596D01*
X022041Y011456D01*
X022041Y011376D01*
X021554Y011376D01*
X021554Y011687D01*
X021554Y012141D01*
X021543Y012181D01*
X021522Y012218D01*
X021493Y012248D01*
X021456Y012269D01*
X021415Y012280D01*
X021276Y012280D01*
X021239Y012280D01*
X021216Y012335D01*
X021110Y012442D01*
X021022Y012478D01*
X021026Y012482D01*
X021084Y012622D01*
X021084Y012876D01*
X023336Y012876D01*
X023336Y012791D02*
X021084Y012791D01*
X021084Y012672D02*
X023336Y012672D01*
X023336Y012554D02*
X023282Y012554D01*
X023291Y012435D02*
X023336Y012435D01*
X023336Y012317D02*
X023291Y012317D01*
X023336Y012198D02*
X022836Y012198D01*
X022836Y012317D02*
X022716Y012317D01*
X022716Y012245D02*
X022716Y012660D01*
X022400Y012660D01*
X022360Y012649D01*
X022323Y012628D01*
X022293Y012599D01*
X022272Y012562D01*
X022261Y012521D01*
X022261Y012245D01*
X022716Y012245D01*
X022716Y012198D02*
X021534Y012198D01*
X021554Y012080D02*
X022261Y012080D01*
X022261Y011961D02*
X021554Y011961D01*
X021554Y011843D02*
X022263Y011843D01*
X022257Y011724D02*
X021554Y011724D01*
X021554Y011687D02*
X021276Y011687D01*
X021276Y011786D01*
X021276Y012280D01*
X021276Y011687D01*
X021276Y011687D01*
X021276Y011687D01*
X021554Y011687D01*
X021554Y011606D02*
X022109Y011606D01*
X022054Y011487D02*
X021554Y011487D01*
X021276Y011487D02*
X021276Y011487D01*
X021276Y011376D02*
X021276Y011687D01*
X021276Y011687D01*
X021276Y011376D01*
X021276Y011376D01*
X021276Y011606D02*
X021276Y011606D01*
X021276Y011724D02*
X021276Y011724D01*
X021276Y011786D02*
X021276Y011786D01*
X021276Y011843D02*
X021276Y011843D01*
X021276Y011961D02*
X021276Y011961D01*
X021276Y012080D02*
X021276Y012080D01*
X021276Y012198D02*
X021276Y012198D01*
X021224Y012317D02*
X022261Y012317D01*
X022261Y012435D02*
X021116Y012435D01*
X021056Y012554D02*
X022270Y012554D01*
X022716Y012554D02*
X022836Y012554D01*
X022836Y012435D02*
X022716Y012435D01*
X023291Y012080D02*
X023336Y012080D01*
X023336Y011961D02*
X023291Y011961D01*
X023289Y011843D02*
X023336Y011843D01*
X023336Y011724D02*
X023295Y011724D01*
X023026Y008876D02*
X023331Y008571D01*
X023242Y008482D01*
X023146Y008251D01*
X023146Y004756D01*
X020401Y004756D01*
X020198Y004672D01*
X020193Y004685D01*
X020086Y004792D01*
X019946Y004850D01*
X019106Y004850D01*
X019026Y004817D01*
X019026Y005918D01*
X023146Y005918D01*
X023146Y006036D02*
X019144Y006036D01*
X019026Y005918D02*
X019700Y006592D01*
X019723Y006648D01*
X019772Y006627D01*
X020280Y006627D01*
X020420Y006685D01*
X020526Y006792D01*
X020563Y006881D01*
X020602Y006842D01*
X020743Y006702D01*
X020927Y006626D01*
X021685Y006626D01*
X021869Y006702D01*
X022175Y007008D01*
X022280Y007008D01*
X022420Y007065D01*
X022526Y007172D01*
X022584Y007312D01*
X022584Y007819D01*
X022526Y007959D01*
X022420Y008066D01*
X022280Y008124D01*
X021772Y008124D01*
X021633Y008066D01*
X021554Y007987D01*
X021554Y008065D01*
X021554Y008519D01*
X021543Y008559D01*
X021522Y008596D01*
X021493Y008626D01*
X021456Y008647D01*
X021415Y008658D01*
X021276Y008658D01*
X021239Y008658D01*
X021216Y008713D01*
X021110Y008820D01*
X020975Y008876D01*
X023026Y008876D01*
X023140Y008762D02*
X021168Y008762D01*
X021276Y008658D02*
X021276Y008164D01*
X021276Y008164D01*
X021276Y008065D01*
X021276Y008065D01*
X021276Y008658D01*
X021276Y008643D02*
X021276Y008643D01*
X021276Y008525D02*
X021276Y008525D01*
X021276Y008406D02*
X021276Y008406D01*
X021276Y008288D02*
X021276Y008288D01*
X021276Y008169D02*
X021276Y008169D01*
X021276Y008065D02*
X021554Y008065D01*
X021276Y008065D01*
X021276Y008065D01*
X021554Y008051D02*
X021617Y008051D01*
X021554Y008169D02*
X023146Y008169D01*
X023146Y008051D02*
X022435Y008051D01*
X022538Y007932D02*
X023146Y007932D01*
X023146Y007814D02*
X022584Y007814D01*
X022584Y007695D02*
X023146Y007695D01*
X023146Y007577D02*
X022584Y007577D01*
X022584Y007458D02*
X023146Y007458D01*
X023146Y007340D02*
X022584Y007340D01*
X022547Y007221D02*
X023146Y007221D01*
X023146Y007103D02*
X022457Y007103D01*
X022152Y006984D02*
X023146Y006984D01*
X023146Y006866D02*
X022033Y006866D01*
X021915Y006747D02*
X023146Y006747D01*
X023146Y006629D02*
X021693Y006629D01*
X020919Y006629D02*
X020283Y006629D01*
X020481Y006747D02*
X020698Y006747D01*
X020602Y006842D02*
X020602Y006842D01*
X020579Y006866D02*
X020557Y006866D01*
X019769Y006629D02*
X019715Y006629D01*
X019618Y006510D02*
X023146Y006510D01*
X023146Y006392D02*
X019499Y006392D01*
X019381Y006273D02*
X023146Y006273D01*
X023146Y006155D02*
X019262Y006155D01*
X019026Y005799D02*
X023146Y005799D01*
X023146Y005681D02*
X019026Y005681D01*
X019026Y005562D02*
X023146Y005562D01*
X023146Y005444D02*
X019026Y005444D01*
X019026Y005325D02*
X023146Y005325D01*
X023146Y005207D02*
X019026Y005207D01*
X019026Y005088D02*
X023146Y005088D01*
X023146Y004970D02*
X019026Y004970D01*
X019026Y004851D02*
X023146Y004851D01*
X023776Y003496D02*
X023776Y002126D01*
X015026Y002126D01*
X015026Y008126D01*
X015776Y008876D01*
X017578Y008876D01*
X017443Y008820D01*
X017336Y008713D01*
X017317Y008668D01*
X017280Y008684D01*
X016772Y008684D01*
X016633Y008626D01*
X016526Y008519D01*
X016468Y008379D01*
X016468Y007872D01*
X016526Y007732D01*
X016633Y007625D01*
X016772Y007567D01*
X017278Y007567D01*
X017278Y007556D01*
X017336Y007416D01*
X017443Y007309D01*
X017582Y007251D01*
X017970Y007251D01*
X018110Y007309D01*
X018216Y007416D01*
X018239Y007471D01*
X018276Y007471D01*
X018276Y007965D01*
X018276Y007965D01*
X018276Y008065D01*
X018276Y008164D01*
X018276Y008658D01*
X018239Y008658D01*
X018216Y008713D01*
X018110Y008820D01*
X017975Y008876D01*
X018578Y008876D01*
X018443Y008820D01*
X018336Y008713D01*
X018313Y008658D01*
X018276Y008658D01*
X018276Y008164D01*
X018276Y008164D01*
X018276Y008065D01*
X018276Y008065D01*
X018276Y007333D01*
X017102Y006159D01*
X017026Y005975D01*
X017026Y003526D01*
X017102Y003342D01*
X017602Y002842D01*
X017743Y002702D01*
X017816Y002672D01*
X017860Y002566D01*
X017966Y002459D01*
X018106Y002401D01*
X018946Y002401D01*
X019026Y002434D01*
X019106Y002401D01*
X019946Y002401D01*
X020026Y002434D01*
X020106Y002401D01*
X020946Y002401D01*
X021086Y002459D01*
X021193Y002566D01*
X021251Y002706D01*
X021251Y003496D01*
X023776Y003496D01*
X023776Y003429D02*
X021251Y003429D01*
X021251Y003311D02*
X023776Y003311D01*
X023776Y003192D02*
X021251Y003192D01*
X021251Y003074D02*
X023776Y003074D01*
X023776Y002955D02*
X021251Y002955D01*
X021251Y002837D02*
X023776Y002837D01*
X023776Y002718D02*
X021251Y002718D01*
X021207Y002600D02*
X023776Y002600D01*
X023776Y002481D02*
X021108Y002481D01*
X020345Y004733D02*
X020146Y004733D01*
X018276Y007340D02*
X018140Y007340D01*
X018165Y007221D02*
X015026Y007221D01*
X015026Y007103D02*
X018046Y007103D01*
X017928Y006984D02*
X015026Y006984D01*
X015026Y006866D02*
X017809Y006866D01*
X017691Y006747D02*
X015026Y006747D01*
X015026Y006629D02*
X017572Y006629D01*
X017454Y006510D02*
X015026Y006510D01*
X015026Y006392D02*
X017335Y006392D01*
X017217Y006273D02*
X015026Y006273D01*
X015026Y006155D02*
X017101Y006155D01*
X017051Y006036D02*
X015026Y006036D01*
X015026Y005918D02*
X017026Y005918D01*
X017026Y005799D02*
X015026Y005799D01*
X015026Y005681D02*
X017026Y005681D01*
X017026Y005562D02*
X015026Y005562D01*
X015026Y005444D02*
X017026Y005444D01*
X017026Y005325D02*
X015026Y005325D01*
X015026Y005207D02*
X017026Y005207D01*
X017026Y005088D02*
X015026Y005088D01*
X015026Y004970D02*
X017026Y004970D01*
X017026Y004851D02*
X015026Y004851D01*
X015026Y004733D02*
X017026Y004733D01*
X017026Y004614D02*
X015026Y004614D01*
X015026Y004496D02*
X017026Y004496D01*
X017026Y004377D02*
X015026Y004377D01*
X015026Y004259D02*
X017026Y004259D01*
X017026Y004140D02*
X015026Y004140D01*
X015026Y004022D02*
X017026Y004022D01*
X017026Y003903D02*
X015026Y003903D01*
X015026Y003785D02*
X017026Y003785D01*
X017026Y003666D02*
X015026Y003666D01*
X015026Y003548D02*
X017026Y003548D01*
X017066Y003429D02*
X015026Y003429D01*
X015026Y003311D02*
X017134Y003311D01*
X017253Y003192D02*
X015026Y003192D01*
X015026Y003074D02*
X017371Y003074D01*
X017490Y002955D02*
X015026Y002955D01*
X015026Y002837D02*
X017608Y002837D01*
X017602Y002842D02*
X017602Y002842D01*
X017727Y002718D02*
X015026Y002718D01*
X015026Y002600D02*
X017846Y002600D01*
X017944Y002481D02*
X015026Y002481D01*
X015026Y002363D02*
X023776Y002363D01*
X023776Y002244D02*
X015026Y002244D01*
X015026Y002126D02*
X015776Y001376D01*
X023026Y001376D01*
X023776Y002126D01*
X023658Y002007D02*
X015145Y002007D01*
X015263Y001889D02*
X023539Y001889D01*
X023421Y001770D02*
X015382Y001770D01*
X015500Y001652D02*
X023302Y001652D01*
X023184Y001533D02*
X015619Y001533D01*
X015737Y001415D02*
X023065Y001415D01*
X023161Y008288D02*
X021554Y008288D01*
X021554Y008406D02*
X023210Y008406D01*
X023284Y008525D02*
X021553Y008525D01*
X021462Y008643D02*
X023259Y008643D01*
X020578Y008876D02*
X020526Y008854D01*
X020475Y008876D01*
X020578Y008876D01*
X020078Y008876D02*
X019975Y008876D01*
X020026Y008854D01*
X020078Y008876D01*
X019578Y008876D02*
X019526Y008854D01*
X019475Y008876D01*
X019578Y008876D01*
X019078Y008876D02*
X019026Y008854D01*
X018975Y008876D01*
X019078Y008876D01*
X018385Y008762D02*
X018168Y008762D01*
X018276Y008643D02*
X018276Y008643D01*
X018276Y008525D02*
X018276Y008525D01*
X018276Y008406D02*
X018276Y008406D01*
X018276Y008288D02*
X018276Y008288D01*
X018276Y008169D02*
X018276Y008169D01*
X018276Y008164D02*
X018276Y008164D01*
X018276Y008065D02*
X018276Y008065D01*
X018276Y008051D02*
X018276Y008051D01*
X018276Y007932D02*
X018276Y007932D01*
X018276Y007814D02*
X018276Y007814D01*
X018276Y007695D02*
X018276Y007695D01*
X018276Y007577D02*
X018276Y007577D01*
X018276Y007458D02*
X018234Y007458D01*
X017413Y007340D02*
X015026Y007340D01*
X015026Y007458D02*
X017319Y007458D01*
X016750Y007577D02*
X015026Y007577D01*
X015026Y007695D02*
X016563Y007695D01*
X016492Y007814D02*
X015026Y007814D01*
X015026Y007932D02*
X016468Y007932D01*
X016468Y008051D02*
X015026Y008051D01*
X015070Y008169D02*
X016468Y008169D01*
X016468Y008288D02*
X015188Y008288D01*
X015307Y008406D02*
X016479Y008406D01*
X016532Y008525D02*
X015425Y008525D01*
X015544Y008643D02*
X016674Y008643D01*
X017385Y008762D02*
X015662Y008762D01*
X018026Y005668D02*
X018026Y004817D01*
X018026Y004817D01*
X018026Y005668D01*
X018026Y005668D01*
X018026Y005562D02*
X018026Y005562D01*
X018026Y005444D02*
X018026Y005444D01*
X018026Y005325D02*
X018026Y005325D01*
X018026Y005207D02*
X018026Y005207D01*
X018026Y005088D02*
X018026Y005088D01*
X018026Y004970D02*
X018026Y004970D01*
X018026Y004851D02*
X018026Y004851D01*
X019427Y014213D02*
X019626Y014213D01*
X019526Y015497D02*
X019397Y015551D01*
X019058Y015551D01*
X019026Y015583D01*
X019026Y016686D01*
X022571Y016686D01*
X022571Y016644D01*
X023007Y016644D01*
X023007Y016607D01*
X022571Y016607D01*
X022571Y016376D01*
X021084Y016376D01*
X021084Y016379D01*
X021026Y016519D01*
X020920Y016626D01*
X020780Y016684D01*
X020272Y016684D01*
X020133Y016626D01*
X020026Y016519D01*
X019968Y016379D01*
X019968Y015872D01*
X020026Y015732D01*
X020133Y015625D01*
X020272Y015567D01*
X020377Y015567D01*
X020394Y015551D01*
X019655Y015551D01*
X019526Y015497D01*
X019481Y015516D02*
X019571Y015516D01*
X020017Y015753D02*
X019026Y015753D01*
X019026Y015635D02*
X020124Y015635D01*
X019968Y015872D02*
X019026Y015872D01*
X019026Y015990D02*
X019968Y015990D01*
X019968Y016109D02*
X019026Y016109D01*
X019026Y016227D02*
X019968Y016227D01*
X019968Y016346D02*
X019026Y016346D01*
X019026Y016464D02*
X020003Y016464D01*
X020090Y016583D02*
X019026Y016583D01*
X020688Y015279D02*
X020846Y015279D01*
X020846Y015161D02*
X020701Y015161D01*
X020701Y015042D02*
X020846Y015042D01*
X020846Y014924D02*
X020701Y014924D01*
X020701Y014805D02*
X020846Y014805D01*
X020846Y014687D02*
X020701Y014687D01*
X020701Y014568D02*
X020846Y014568D01*
X020846Y014450D02*
X020679Y014450D01*
X020610Y014331D02*
X020891Y014331D01*
X020941Y014213D02*
X020427Y014213D01*
X021049Y016464D02*
X022571Y016464D01*
X022571Y016583D02*
X020963Y016583D01*
X026856Y019427D02*
X026892Y019427D01*
X026856Y019545D02*
X027012Y019545D01*
X028318Y023574D02*
X028396Y023574D01*
D30*
X029369Y031968D03*
X009684Y031968D03*
X009684Y002409D03*
X029369Y002409D03*
D31*
X030526Y018376D02*
X030526Y018876D01*
X030526Y019376D01*
X030526Y018876D02*
X030026Y018876D01*
X030526Y018876D02*
X031026Y018876D01*
X030526Y020376D02*
X030526Y021376D01*
X030526Y022376D02*
X030526Y022876D01*
X030526Y023376D01*
X030526Y022876D02*
X030026Y022876D01*
X030526Y022876D02*
X031026Y022876D01*
X030526Y024376D02*
X030526Y025376D01*
X009276Y012376D02*
X008651Y012376D01*
X008526Y012376D01*
X008026Y012376D01*
X008651Y012376D02*
X008651Y013001D01*
X008651Y012376D02*
X008651Y011751D01*
X008651Y014001D02*
X008651Y015251D01*
X008526Y018376D02*
X008526Y018876D01*
X008526Y019376D01*
X008526Y018876D02*
X008026Y018876D01*
X008526Y018876D02*
X009026Y018876D01*
X008526Y020376D02*
X008526Y021376D01*
X008526Y022376D02*
X008526Y022876D01*
X008526Y023376D01*
X008526Y022876D02*
X008026Y022876D01*
X008526Y022876D02*
X009026Y022876D01*
X008526Y024376D02*
X008526Y025376D01*
M02*
