G75*
%MOIN*%
%OFA0B0*%
%FSLAX24Y24*%
%IPPOS*%
%LPD*%
%AMOC8*
5,1,8,0,0,1.08239X$1,22.5*
%
%ADD10C,0.0000*%
%ADD11C,0.0150*%
%ADD12C,0.0433*%
%ADD13OC8,0.0512*%
%ADD14R,0.0591X0.0591*%
%ADD15R,0.0709X0.0866*%
%ADD16R,0.0630X0.0710*%
%ADD17R,0.0710X0.0630*%
%ADD18C,0.1000*%
%ADD19OC8,0.1000*%
%ADD20C,0.0600*%
%ADD21OC8,0.0500*%
%ADD22C,0.0500*%
%ADD23R,0.0689X0.0689*%
%ADD24C,0.0705*%
%ADD25C,0.0500*%
%ADD26R,0.0356X0.0356*%
%ADD27C,0.0400*%
%ADD28C,0.0240*%
%ADD29C,0.0320*%
%ADD30C,0.0120*%
%ADD31C,0.0160*%
%ADD32C,0.2756*%
D10*
X007676Y000126D02*
X007676Y033501D01*
X031376Y033501D01*
X031376Y000126D01*
X007676Y000126D01*
D11*
X007851Y017010D02*
X007851Y017911D01*
X007851Y017460D02*
X009202Y017460D01*
X008752Y017010D01*
X008977Y026010D02*
X009202Y026235D01*
X009202Y026686D01*
X008977Y026911D01*
X008752Y026911D01*
X007851Y026010D01*
X007851Y026911D01*
X029850Y026316D02*
X030526Y026991D01*
X030526Y026090D01*
X031201Y026316D02*
X029850Y026316D01*
X030075Y017741D02*
X029850Y017516D01*
X029850Y017066D01*
X030075Y016840D01*
X030300Y016840D01*
X030526Y017066D01*
X030751Y016840D01*
X030976Y016840D01*
X031201Y017066D01*
X031201Y017516D01*
X030976Y017741D01*
X030526Y017291D02*
X030526Y017066D01*
D12*
X021888Y029868D02*
X021888Y030301D01*
X021101Y030301D02*
X021101Y029868D01*
X020314Y029868D02*
X020314Y030301D01*
X019526Y030301D02*
X019526Y029868D01*
X018739Y029868D02*
X018739Y030301D01*
X017951Y030301D02*
X017951Y029868D01*
X017164Y029868D02*
X017164Y030301D01*
X016377Y030301D02*
X016377Y029868D01*
X015589Y029868D02*
X015589Y030301D01*
X014802Y030301D02*
X014802Y029868D01*
X014014Y029868D02*
X014014Y030301D01*
X013227Y030301D02*
X013227Y029868D01*
X012440Y029868D02*
X012440Y030301D01*
X012833Y031443D02*
X012833Y031876D01*
X013621Y031659D02*
X013621Y032092D01*
X014408Y032092D02*
X014408Y031659D01*
X015195Y031876D02*
X015195Y031443D01*
X015983Y031659D02*
X015983Y032092D01*
X018345Y032092D02*
X018345Y031659D01*
X019132Y031876D02*
X019132Y031443D01*
X019920Y031659D02*
X019920Y032092D01*
X020707Y032092D02*
X020707Y031659D01*
X021495Y031876D02*
X021495Y031443D01*
D13*
X017558Y031876D03*
X016770Y031876D03*
D14*
X016776Y027376D03*
X015776Y027376D03*
X015776Y025376D03*
X016776Y025376D03*
X017776Y025376D03*
X018776Y025376D03*
X018776Y027376D03*
X017776Y027376D03*
X018776Y022376D03*
X018276Y021376D03*
X019276Y021376D03*
X019776Y022376D03*
X020276Y021376D03*
X020776Y022376D03*
X023026Y016626D03*
X024026Y014876D03*
X025026Y014876D03*
X025026Y016626D03*
X020026Y014876D03*
X019026Y014876D03*
X016026Y016626D03*
X015026Y014876D03*
X014026Y014876D03*
X014026Y016626D03*
D15*
X015237Y032751D03*
X017065Y032751D03*
D16*
X018091Y032876D03*
X019211Y032876D03*
X023216Y029126D03*
X024336Y029126D03*
X025466Y029126D03*
X026586Y029126D03*
X023586Y018876D03*
X022466Y018876D03*
X022466Y017626D03*
X023586Y017626D03*
X016586Y017626D03*
X016586Y018876D03*
X015466Y018876D03*
X015466Y017626D03*
X015716Y004376D03*
X016836Y004376D03*
X016836Y002876D03*
X015716Y002876D03*
D17*
X020026Y005316D03*
X020026Y006435D03*
X022776Y007566D03*
X022776Y008685D03*
X025026Y012066D03*
X025026Y013185D03*
X019526Y016316D03*
X019526Y017435D03*
X014026Y013185D03*
X014026Y012066D03*
X012026Y031316D03*
X012026Y032435D03*
X022526Y032435D03*
X022526Y031316D03*
D18*
X027776Y028376D03*
X011026Y028376D03*
D19*
X009026Y028376D03*
X029776Y028376D03*
D20*
X026825Y032201D02*
X026825Y032801D01*
X025825Y032801D02*
X025825Y032201D01*
X024825Y032201D02*
X024825Y032801D01*
X022526Y015176D02*
X022526Y014576D01*
X021526Y014576D02*
X021526Y015176D01*
X017526Y015176D02*
X017526Y014576D01*
X016526Y014576D02*
X016526Y015176D01*
D21*
X024176Y030126D03*
X025626Y030126D03*
D22*
X026426Y030126D03*
X023376Y030126D03*
D23*
X020526Y004126D03*
X020526Y003126D03*
X019526Y003126D03*
X019526Y004126D03*
X018526Y004126D03*
X018526Y003126D03*
D24*
X011879Y012641D02*
X011174Y012641D01*
X011174Y014610D02*
X011879Y014610D01*
X011629Y018923D02*
X010924Y018923D01*
X010924Y020891D02*
X011629Y020891D01*
X011629Y022860D02*
X010924Y022860D01*
X010924Y024828D02*
X011629Y024828D01*
X027424Y024828D02*
X028129Y024828D01*
X028129Y022860D02*
X027424Y022860D01*
X027424Y020891D02*
X028129Y020891D01*
X028129Y018923D02*
X027424Y018923D01*
D25*
X029026Y010626D02*
X029026Y028626D01*
X026776Y030876D01*
X025825Y030876D01*
X025626Y030876D01*
X025626Y030126D01*
X025466Y030816D02*
X025466Y029126D01*
X024336Y029126D02*
X024336Y030816D01*
X024276Y030876D02*
X024176Y030876D01*
X022526Y030876D01*
X022526Y031316D01*
X022526Y032435D02*
X022526Y032626D01*
X021526Y032626D01*
X023376Y030126D02*
X023216Y029966D01*
X023216Y029126D01*
X024276Y030876D02*
X025526Y030876D01*
X025626Y030876D01*
X025825Y030876D02*
X025825Y032501D01*
X026426Y030126D02*
X026586Y029966D01*
X026586Y029126D01*
X029026Y028626D02*
X029276Y028376D01*
X029776Y028376D01*
X017164Y030301D02*
X017164Y030876D01*
X012833Y030876D02*
X012526Y030876D01*
X012440Y030876D01*
X012026Y030876D01*
X011526Y030876D01*
X010026Y029376D01*
X009026Y028376D01*
X010026Y027376D01*
X010026Y028376D01*
X009026Y028376D01*
X010026Y028376D02*
X010026Y029376D01*
X010026Y027376D02*
X010026Y016126D01*
X011526Y014626D01*
X010026Y013126D01*
X010026Y014626D01*
X010042Y014610D01*
X011526Y014610D01*
X010026Y014626D02*
X010026Y016126D01*
X010026Y013126D02*
X010026Y010626D01*
X010776Y009876D01*
X024026Y009876D01*
X028276Y009876D01*
X029026Y010626D01*
X012833Y030876D02*
X012833Y031876D01*
X012440Y030876D02*
X012440Y030301D01*
D26*
X012776Y032626D03*
X021526Y032626D03*
X026276Y026126D03*
X020526Y016126D03*
X020526Y012876D03*
X021901Y011626D03*
X024026Y012126D03*
X025026Y011376D03*
X023776Y008126D03*
X022026Y007566D03*
X021776Y008876D03*
X020026Y007185D03*
X017026Y008126D03*
X015216Y010876D03*
X017026Y011626D03*
D27*
X011276Y018923D02*
X012526Y020173D01*
X014276Y023876D01*
X014276Y027376D01*
X015589Y028689D01*
X015589Y030301D01*
X015195Y030876D02*
X016276Y030876D01*
X017164Y030876D01*
X018276Y030876D01*
X019132Y030876D01*
X021495Y030876D01*
X022526Y030876D01*
X021495Y030876D02*
X021495Y031876D01*
X021101Y030301D02*
X021101Y029551D01*
X025776Y024876D01*
X027729Y024876D01*
X027776Y024828D01*
X027776Y022860D02*
X026792Y022860D01*
X020314Y029338D01*
X020314Y030301D01*
X019526Y030301D02*
X019526Y029126D01*
X027760Y020891D01*
X027776Y020891D01*
X026276Y020423D02*
X027776Y018923D01*
X026276Y020423D02*
X026276Y021376D01*
X018739Y028913D01*
X018739Y030301D01*
X019132Y030876D02*
X019132Y031876D01*
X015195Y031876D02*
X015195Y030876D01*
X012833Y030876D01*
X012526Y030876D02*
X012026Y030876D01*
X012026Y031316D01*
X012026Y032435D02*
X012026Y032626D01*
X012776Y032626D01*
X013227Y030301D02*
X013227Y029326D01*
X012026Y028126D01*
X012026Y025578D01*
X011276Y024828D01*
X012776Y024376D02*
X011276Y022860D01*
X012526Y022141D02*
X011276Y020891D01*
X012526Y022141D02*
X013526Y024126D01*
X013526Y027626D01*
X014802Y028901D01*
X014802Y030301D01*
X014014Y030301D02*
X014014Y029114D01*
X012776Y027876D01*
X012776Y024376D01*
X024176Y030126D02*
X024176Y030876D01*
X024276Y030876D02*
X024336Y030816D01*
X025466Y030816D02*
X025526Y030876D01*
X026586Y029126D02*
X026586Y026435D01*
X026276Y026126D01*
X024026Y012126D02*
X024026Y009876D01*
D28*
X023026Y008876D02*
X022776Y008876D01*
X022776Y008685D01*
X022586Y008876D01*
X022776Y008876D02*
X021776Y008876D01*
X015776Y008876D01*
X015026Y008126D01*
X015026Y002126D01*
X015776Y001376D01*
X023026Y001376D01*
X023776Y002126D01*
X023776Y008126D01*
X023026Y008876D01*
X022776Y007566D02*
X022776Y003626D01*
X022276Y003126D01*
X020526Y003126D01*
X019526Y003126D02*
X019526Y004126D01*
X019526Y004816D01*
X020026Y005316D01*
X020026Y006435D02*
X020026Y007185D01*
X021401Y008126D02*
X021961Y007566D01*
X022026Y007566D01*
X022776Y007566D01*
X021401Y008126D02*
X017026Y008126D01*
X016026Y008126D01*
X015526Y007626D01*
X015526Y004566D01*
X015716Y004376D01*
X015526Y004566D02*
X015526Y003066D01*
X015716Y002876D01*
X016836Y002876D02*
X018276Y002876D01*
X018526Y003126D01*
X018526Y004126D02*
X018276Y004376D01*
X016836Y004376D01*
X017776Y010876D02*
X021151Y010876D01*
X021901Y011626D01*
X022526Y012251D01*
X022526Y014876D01*
X022526Y016126D01*
X023026Y016626D01*
X022466Y017626D02*
X021526Y017626D01*
X021526Y018376D01*
X022026Y018876D01*
X022466Y018876D01*
X023586Y018876D02*
X024776Y018876D01*
X025276Y018376D01*
X025276Y016876D01*
X025026Y016626D01*
X024026Y017185D02*
X023586Y017626D01*
X024026Y017185D02*
X024026Y014876D01*
X025026Y014876D02*
X025026Y013185D01*
X025026Y012066D02*
X025026Y011376D01*
X021526Y014876D02*
X021526Y017626D01*
X020526Y017126D02*
X020526Y016126D01*
X020026Y015376D02*
X019526Y015876D01*
X019526Y016316D01*
X020026Y015376D02*
X020026Y014876D01*
X019026Y014876D02*
X019026Y013376D01*
X019526Y012876D01*
X020526Y012876D01*
X017776Y010876D02*
X017026Y011626D01*
X016526Y012126D01*
X016526Y014876D01*
X016526Y016126D01*
X016026Y016626D01*
X015026Y017185D02*
X015466Y017626D01*
X015026Y017185D02*
X015026Y014876D01*
X014026Y014876D02*
X014026Y013185D01*
X014026Y012066D02*
X015216Y010876D01*
X017526Y014876D02*
X017526Y017626D01*
X016586Y017626D01*
X017526Y017626D02*
X017526Y018376D01*
X017026Y018876D01*
X016586Y018876D01*
X015466Y018876D02*
X014276Y018876D01*
X013776Y018376D01*
X013776Y016876D01*
X014026Y016626D01*
X019276Y021376D02*
X019276Y021626D01*
X019776Y022126D01*
X019776Y022376D01*
X019526Y017435D02*
X019586Y017376D01*
X020276Y017376D01*
X020526Y017126D01*
D29*
X030026Y018876D02*
X030510Y018876D01*
X030526Y018876D01*
X030526Y019376D01*
X030526Y018876D02*
X031026Y018876D01*
X030526Y018876D02*
X030526Y018376D01*
X030526Y020376D02*
X030526Y021376D01*
X030526Y022376D02*
X030526Y022876D01*
X030510Y022876D01*
X030026Y022876D01*
X030526Y022876D02*
X030526Y023376D01*
X030526Y022876D02*
X031026Y022876D01*
X030526Y024376D02*
X030526Y025376D01*
X019132Y031876D02*
X019132Y032876D01*
X019211Y032876D01*
X018345Y032876D02*
X018345Y031876D01*
X018345Y032876D02*
X018091Y032876D01*
X017065Y032751D02*
X016401Y032751D01*
X015983Y032332D01*
X015983Y031876D01*
X015195Y031876D02*
X015195Y032751D01*
X015237Y032751D01*
X008526Y025376D02*
X008526Y024376D01*
X008526Y023376D02*
X008526Y022876D01*
X008463Y022876D01*
X008026Y022876D01*
X008526Y022876D02*
X008526Y022376D01*
X008526Y022876D02*
X009026Y022876D01*
X008526Y021376D02*
X008526Y020376D01*
X008526Y019376D02*
X008526Y018876D01*
X008463Y018876D01*
X008026Y018876D01*
X008526Y018876D02*
X008526Y018376D01*
X008526Y018876D02*
X009026Y018876D01*
X008651Y015251D02*
X008651Y014001D01*
X008651Y013001D02*
X008651Y012376D01*
X008857Y012376D01*
X009276Y012376D01*
X008651Y012376D02*
X008651Y011751D01*
X008651Y012376D02*
X008026Y012376D01*
D30*
X010026Y012435D02*
X010466Y012435D01*
X010441Y012496D02*
X010553Y012226D01*
X010759Y012020D01*
X011028Y011909D01*
X012024Y011909D01*
X012294Y012020D01*
X012500Y012226D01*
X012611Y012496D01*
X012611Y012787D01*
X012500Y013056D01*
X012294Y013262D01*
X012024Y013374D01*
X011028Y013374D01*
X010759Y013262D01*
X010553Y013056D01*
X010441Y012787D01*
X010441Y012496D01*
X010441Y012554D02*
X010026Y012554D01*
X010026Y012672D02*
X010441Y012672D01*
X010443Y012791D02*
X010026Y012791D01*
X010026Y012909D02*
X010492Y012909D01*
X010541Y013028D02*
X010026Y013028D01*
X010026Y013146D02*
X010643Y013146D01*
X010764Y013265D02*
X010026Y013265D01*
X010026Y013383D02*
X013291Y013383D01*
X013291Y013265D02*
X012288Y013265D01*
X012410Y013146D02*
X013291Y013146D01*
X013291Y013028D02*
X012512Y013028D01*
X012561Y012909D02*
X013291Y012909D01*
X013291Y012795D02*
X013349Y012655D01*
X013379Y012626D01*
X013349Y012596D01*
X013291Y012456D01*
X013291Y011675D01*
X013349Y011536D01*
X013456Y011429D01*
X013596Y011371D01*
X014014Y011371D01*
X014658Y010727D01*
X014658Y010622D01*
X014716Y010482D01*
X014823Y010375D01*
X014963Y010317D01*
X015212Y010317D01*
X015277Y010253D01*
X015439Y010186D01*
X023864Y010186D01*
X024025Y010253D01*
X024149Y010376D01*
X024216Y010538D01*
X024216Y014200D01*
X024397Y014200D01*
X024526Y014254D01*
X024526Y013852D01*
X024456Y013823D01*
X024349Y013716D01*
X024291Y013576D01*
X024291Y012795D01*
X024349Y012655D01*
X024379Y012626D01*
X024349Y012596D01*
X024291Y012456D01*
X024291Y011675D01*
X024349Y011536D01*
X024456Y011429D01*
X024468Y011424D01*
X024468Y011122D01*
X024526Y010982D01*
X024633Y010875D01*
X024772Y010817D01*
X025280Y010817D01*
X025420Y010875D01*
X025526Y010982D01*
X025584Y011122D01*
X025584Y011424D01*
X025596Y011429D01*
X025703Y011536D01*
X025761Y011675D01*
X025761Y012456D01*
X025703Y012596D01*
X025674Y012626D01*
X025703Y012655D01*
X025761Y012795D01*
X025761Y013576D01*
X025703Y013716D01*
X025596Y013823D01*
X025526Y013852D01*
X025526Y014254D01*
X025537Y014258D01*
X025644Y014365D01*
X025701Y014505D01*
X025701Y015246D01*
X025644Y015386D01*
X025537Y015493D01*
X025397Y015551D01*
X024655Y015551D01*
X024526Y015497D01*
X024526Y015497D01*
X024526Y016004D01*
X024655Y015950D01*
X025397Y015950D01*
X025537Y016008D01*
X025644Y016115D01*
X025701Y016255D01*
X025701Y016596D01*
X025776Y016776D01*
X025776Y018475D01*
X025700Y018659D01*
X025559Y018799D01*
X025059Y019299D01*
X024876Y019376D01*
X024252Y019376D01*
X024223Y019446D01*
X024116Y019553D01*
X023977Y019611D01*
X023195Y019611D01*
X023056Y019553D01*
X023026Y019523D01*
X022997Y019553D01*
X022857Y019611D01*
X022076Y019611D01*
X021936Y019553D01*
X021829Y019446D01*
X021774Y019312D01*
X021743Y019299D01*
X021602Y019159D01*
X021102Y018659D01*
X021026Y018475D01*
X021026Y017566D01*
X020793Y017566D01*
X020700Y017659D01*
X020559Y017799D01*
X020376Y017876D01*
X020241Y017876D01*
X020203Y017966D01*
X020096Y018073D01*
X019957Y018130D01*
X019096Y018130D01*
X018956Y018073D01*
X018849Y017966D01*
X018791Y017826D01*
X018791Y017566D01*
X018026Y017566D01*
X018026Y018475D01*
X017950Y018659D01*
X017450Y019159D01*
X017309Y019299D01*
X017278Y019312D01*
X017223Y019446D01*
X017116Y019553D01*
X016977Y019611D01*
X016195Y019611D01*
X016056Y019553D01*
X016026Y019523D01*
X015997Y019553D01*
X015857Y019611D01*
X015076Y019611D01*
X014936Y019553D01*
X014829Y019446D01*
X014800Y019376D01*
X014177Y019376D01*
X013993Y019299D01*
X013493Y018799D01*
X013352Y018659D01*
X013276Y018475D01*
X013276Y016776D01*
X013351Y016596D01*
X013351Y016255D01*
X013409Y016115D01*
X013516Y016008D01*
X013655Y015950D01*
X014397Y015950D01*
X014526Y016004D01*
X014526Y015497D01*
X014397Y015551D01*
X013655Y015551D01*
X013516Y015493D01*
X013409Y015386D01*
X013351Y015246D01*
X013351Y014505D01*
X013409Y014365D01*
X013516Y014258D01*
X013526Y014254D01*
X013526Y013852D01*
X013456Y013823D01*
X013349Y013716D01*
X013291Y013576D01*
X013291Y012795D01*
X013293Y012791D02*
X012610Y012791D01*
X012611Y012672D02*
X013342Y012672D01*
X013332Y012554D02*
X012611Y012554D01*
X012586Y012435D02*
X013291Y012435D01*
X013291Y012317D02*
X012537Y012317D01*
X012471Y012198D02*
X013291Y012198D01*
X013291Y012080D02*
X012353Y012080D01*
X012151Y011961D02*
X013291Y011961D01*
X013291Y011843D02*
X010026Y011843D01*
X010026Y011961D02*
X010902Y011961D01*
X010699Y012080D02*
X010026Y012080D01*
X010026Y012198D02*
X010581Y012198D01*
X010515Y012317D02*
X010026Y012317D01*
X010026Y011724D02*
X013291Y011724D01*
X013320Y011606D02*
X010026Y011606D01*
X010026Y011487D02*
X013398Y011487D01*
X014016Y011369D02*
X010026Y011369D01*
X010026Y011250D02*
X014135Y011250D01*
X014253Y011132D02*
X010026Y011132D01*
X010026Y011013D02*
X014372Y011013D01*
X014490Y010895D02*
X010026Y010895D01*
X010026Y010776D02*
X014609Y010776D01*
X014658Y010658D02*
X010026Y010658D01*
X010026Y010626D02*
X010026Y029376D01*
X011548Y030898D01*
X011573Y030873D01*
X011610Y030852D01*
X011650Y030841D01*
X011966Y030841D01*
X011966Y031256D01*
X011906Y031256D01*
X011966Y031316D01*
X011966Y031256D01*
X012086Y031256D01*
X012086Y030841D01*
X012402Y030841D01*
X012443Y030852D01*
X012479Y030873D01*
X012509Y030903D01*
X012530Y030939D01*
X012541Y030980D01*
X012541Y031202D01*
X012593Y031150D01*
X012655Y031109D01*
X012723Y031080D01*
X012796Y031066D01*
X012824Y031066D01*
X012824Y031867D01*
X012842Y031867D01*
X012842Y031066D01*
X012870Y031066D01*
X012943Y031080D01*
X013012Y031109D01*
X013073Y031150D01*
X013126Y031202D01*
X013167Y031264D01*
X013168Y031268D01*
X013283Y031153D01*
X013502Y031063D01*
X013739Y031063D01*
X013959Y031153D01*
X014014Y031209D01*
X014070Y031153D01*
X014289Y031063D01*
X014527Y031063D01*
X014746Y031153D01*
X014860Y031268D01*
X014862Y031264D01*
X014903Y031202D01*
X014955Y031150D01*
X015017Y031109D01*
X015086Y031080D01*
X015158Y031066D01*
X015187Y031066D01*
X015187Y031867D01*
X015204Y031867D01*
X015204Y031066D01*
X015233Y031066D01*
X015305Y031080D01*
X015374Y031109D01*
X015435Y031150D01*
X015488Y031202D01*
X015529Y031264D01*
X015531Y031268D01*
X015645Y031153D01*
X015864Y031063D01*
X016102Y031063D01*
X016321Y031153D01*
X016457Y031290D01*
X016507Y031240D01*
X017034Y031240D01*
X017164Y031370D01*
X017294Y031240D01*
X017821Y031240D01*
X017871Y031290D01*
X018007Y031153D01*
X018226Y031063D01*
X018464Y031063D01*
X018683Y031153D01*
X018797Y031268D01*
X018799Y031264D01*
X018840Y031202D01*
X018892Y031150D01*
X018954Y031109D01*
X019023Y031080D01*
X019095Y031066D01*
X019124Y031066D01*
X019124Y031867D01*
X019141Y031867D01*
X019141Y031066D01*
X019170Y031066D01*
X019242Y031080D01*
X019311Y031109D01*
X019373Y031150D01*
X019425Y031202D01*
X019466Y031264D01*
X019468Y031268D01*
X019582Y031153D01*
X019801Y031063D01*
X020039Y031063D01*
X020258Y031153D01*
X020314Y031209D01*
X020369Y031153D01*
X020589Y031063D01*
X020826Y031063D01*
X021045Y031153D01*
X021160Y031268D01*
X021161Y031264D01*
X021202Y031202D01*
X021255Y031150D01*
X021316Y031109D01*
X021385Y031080D01*
X021458Y031066D01*
X021486Y031066D01*
X021486Y031867D01*
X021504Y031867D01*
X021504Y031884D01*
X021870Y031884D01*
X021956Y031798D01*
X022067Y031752D01*
X022043Y031729D01*
X022022Y031692D01*
X022011Y031652D01*
X022011Y031376D01*
X022466Y031376D01*
X022466Y031256D01*
X022011Y031256D01*
X022011Y030980D01*
X022022Y030939D01*
X022043Y030903D01*
X022073Y030873D01*
X022090Y030863D01*
X022007Y030897D01*
X021770Y030897D01*
X021550Y030807D01*
X021495Y030751D01*
X021439Y030807D01*
X021220Y030897D01*
X020982Y030897D01*
X020763Y030807D01*
X020707Y030751D01*
X020651Y030807D01*
X020432Y030897D01*
X020195Y030897D01*
X019976Y030807D01*
X019920Y030751D01*
X019864Y030807D01*
X019645Y030897D01*
X019408Y030897D01*
X019188Y030807D01*
X019132Y030751D01*
X019077Y030807D01*
X018857Y030897D01*
X018620Y030897D01*
X018401Y030807D01*
X018345Y030751D01*
X018289Y030807D01*
X018070Y030897D01*
X017833Y030897D01*
X017613Y030807D01*
X017446Y030639D01*
X017420Y030577D01*
X017404Y030593D01*
X017342Y030634D01*
X017274Y030663D01*
X017201Y030677D01*
X017173Y030677D01*
X017173Y030310D01*
X017155Y030310D01*
X017155Y030677D01*
X017127Y030677D01*
X017054Y030663D01*
X016986Y030634D01*
X016924Y030593D01*
X016908Y030577D01*
X016882Y030639D01*
X016714Y030807D01*
X016495Y030897D01*
X016258Y030897D01*
X016039Y030807D01*
X015983Y030751D01*
X015927Y030807D01*
X015708Y030897D01*
X015471Y030897D01*
X015251Y030807D01*
X015195Y030751D01*
X015140Y030807D01*
X014920Y030897D01*
X014683Y030897D01*
X014464Y030807D01*
X014408Y030751D01*
X014352Y030807D01*
X014133Y030897D01*
X013896Y030897D01*
X013676Y030807D01*
X013621Y030751D01*
X013565Y030807D01*
X013346Y030897D01*
X013108Y030897D01*
X012889Y030807D01*
X012721Y030639D01*
X012696Y030577D01*
X012680Y030593D01*
X012618Y030634D01*
X012549Y030663D01*
X012477Y030677D01*
X012448Y030677D01*
X012448Y030310D01*
X012431Y030310D01*
X012431Y030677D01*
X012402Y030677D01*
X012330Y030663D01*
X012261Y030634D01*
X012200Y030593D01*
X012147Y030541D01*
X012106Y030479D01*
X012078Y030411D01*
X012063Y030338D01*
X012063Y030310D01*
X012431Y030310D01*
X012431Y030292D01*
X012448Y030292D01*
X012448Y029491D01*
X012477Y029491D01*
X012549Y029506D01*
X012612Y029532D01*
X011826Y028745D01*
X011772Y028874D01*
X011525Y029122D01*
X011201Y029256D01*
X010851Y029256D01*
X010528Y029122D01*
X010280Y028874D01*
X010146Y028551D01*
X010146Y028201D01*
X010280Y027877D01*
X010528Y027630D01*
X010851Y027496D01*
X011201Y027496D01*
X011446Y027597D01*
X011446Y025819D01*
X011188Y025561D01*
X010778Y025561D01*
X010509Y025449D01*
X010303Y025243D01*
X010191Y024974D01*
X010191Y024683D01*
X010303Y024413D01*
X010509Y024207D01*
X010778Y024096D01*
X011683Y024096D01*
X011185Y023592D01*
X010778Y023592D01*
X010509Y023481D01*
X010303Y023275D01*
X010191Y023006D01*
X010191Y022714D01*
X010303Y022445D01*
X010509Y022239D01*
X010778Y022127D01*
X011692Y022127D01*
X011188Y021624D01*
X010778Y021624D01*
X010509Y021512D01*
X010303Y021306D01*
X010191Y021037D01*
X010191Y020746D01*
X010303Y020476D01*
X010509Y020270D01*
X010778Y020159D01*
X011692Y020159D01*
X011188Y019655D01*
X010778Y019655D01*
X010509Y019544D01*
X010303Y019338D01*
X010191Y019069D01*
X010191Y018777D01*
X010303Y018508D01*
X010509Y018302D01*
X010778Y018190D01*
X011774Y018190D01*
X012044Y018302D01*
X012250Y018508D01*
X012361Y018777D01*
X012361Y019069D01*
X012326Y019153D01*
X012926Y019753D01*
X013001Y019821D01*
X013008Y019834D01*
X013018Y019844D01*
X013057Y019938D01*
X014758Y023537D01*
X014768Y023547D01*
X014807Y023641D01*
X014850Y023732D01*
X014851Y023747D01*
X014856Y023760D01*
X014856Y023861D01*
X014861Y023963D01*
X014856Y023976D01*
X014856Y027135D01*
X015101Y027380D01*
X015101Y027005D01*
X015159Y026865D01*
X015266Y026758D01*
X015405Y026700D01*
X016147Y026700D01*
X016276Y026754D01*
X016405Y026700D01*
X017147Y026700D01*
X017276Y026754D01*
X017405Y026700D01*
X018147Y026700D01*
X018276Y026754D01*
X018405Y026700D01*
X019147Y026700D01*
X019287Y026758D01*
X019394Y026865D01*
X019451Y027005D01*
X019451Y027380D01*
X025696Y021135D01*
X025696Y020307D01*
X025784Y020094D01*
X026726Y019153D01*
X026691Y019069D01*
X026691Y018777D01*
X026803Y018508D01*
X027009Y018302D01*
X027278Y018190D01*
X028274Y018190D01*
X028544Y018302D01*
X028750Y018508D01*
X028861Y018777D01*
X028861Y019069D01*
X028750Y019338D01*
X028544Y019544D01*
X028274Y019655D01*
X027864Y019655D01*
X027360Y020159D01*
X028274Y020159D01*
X028544Y020270D01*
X028750Y020476D01*
X028861Y020746D01*
X028861Y021037D01*
X028750Y021306D01*
X028544Y021512D01*
X028274Y021624D01*
X027848Y021624D01*
X027345Y022127D01*
X028274Y022127D01*
X028544Y022239D01*
X028750Y022445D01*
X028861Y022714D01*
X028861Y023006D01*
X028750Y023275D01*
X028544Y023481D01*
X028274Y023592D01*
X027278Y023592D01*
X027009Y023481D01*
X027000Y023472D01*
X026176Y024296D01*
X026921Y024296D01*
X027009Y024207D01*
X027278Y024096D01*
X028274Y024096D01*
X028544Y024207D01*
X028750Y024413D01*
X028861Y024683D01*
X028861Y024974D01*
X028750Y025243D01*
X028544Y025449D01*
X028274Y025561D01*
X027278Y025561D01*
X027024Y025456D01*
X026016Y025456D01*
X023081Y028391D01*
X023607Y028391D01*
X023747Y028449D01*
X023853Y028555D01*
X023899Y028666D01*
X023923Y028643D01*
X023959Y028622D01*
X024000Y028611D01*
X024276Y028611D01*
X024276Y029066D01*
X024396Y029066D01*
X024396Y029186D01*
X024276Y029186D01*
X024276Y029641D01*
X024000Y029641D01*
X023959Y029630D01*
X023923Y029609D01*
X023899Y029585D01*
X023853Y029696D01*
X023846Y029703D01*
X023846Y029705D01*
X023910Y029769D01*
X023923Y029799D01*
X024006Y029716D01*
X024156Y029716D01*
X024156Y030106D01*
X024196Y030106D01*
X024196Y030146D01*
X024156Y030146D01*
X024156Y030536D01*
X024006Y030536D01*
X023923Y030452D01*
X023910Y030482D01*
X023733Y030660D01*
X023501Y030756D01*
X023251Y030756D01*
X023019Y030660D01*
X022682Y030323D01*
X022586Y030091D01*
X022586Y029703D01*
X022579Y029696D01*
X022521Y029556D01*
X022521Y028951D01*
X022144Y029328D01*
X022226Y029362D01*
X022394Y029530D01*
X022485Y029749D01*
X022485Y030419D01*
X022394Y030639D01*
X022226Y030807D01*
X022131Y030846D01*
X022150Y030841D01*
X022466Y030841D01*
X022466Y031256D01*
X022586Y031256D01*
X022586Y031376D01*
X023041Y031376D01*
X023041Y031652D01*
X023030Y031692D01*
X023009Y031729D01*
X022986Y031752D01*
X023096Y031798D01*
X023203Y031905D01*
X023261Y032045D01*
X023261Y032826D01*
X023241Y032876D01*
X024145Y032876D01*
X024145Y032065D01*
X024249Y031815D01*
X024440Y031624D01*
X024690Y031521D01*
X024961Y031521D01*
X025211Y031624D01*
X025402Y031815D01*
X025451Y031934D01*
X025475Y031901D01*
X025526Y031850D01*
X025584Y031807D01*
X025649Y031774D01*
X025718Y031752D01*
X025785Y031741D01*
X025785Y032461D01*
X025865Y032461D01*
X025865Y031741D01*
X025933Y031752D01*
X026002Y031774D01*
X026066Y031807D01*
X026125Y031850D01*
X026176Y031901D01*
X026200Y031934D01*
X026249Y031815D01*
X026440Y031624D01*
X026690Y031521D01*
X026961Y031521D01*
X027211Y031624D01*
X027276Y031690D01*
X027276Y031126D01*
X029026Y029376D01*
X029026Y010626D01*
X028276Y009876D01*
X010776Y009876D01*
X010026Y010626D01*
X010113Y010539D02*
X014693Y010539D01*
X014778Y010421D02*
X010231Y010421D01*
X010350Y010302D02*
X015227Y010302D01*
X015966Y011066D02*
X015966Y016170D01*
X016007Y016170D01*
X016007Y016607D01*
X016045Y016607D01*
X016045Y016644D01*
X016481Y016644D01*
X016481Y016686D01*
X017026Y016686D01*
X017026Y015637D01*
X016950Y015561D01*
X016901Y015443D01*
X016877Y015475D01*
X016826Y015526D01*
X016767Y015569D01*
X016703Y015602D01*
X016634Y015624D01*
X016566Y015635D01*
X016566Y014916D01*
X016486Y014916D01*
X016486Y015635D01*
X016418Y015624D01*
X016350Y015602D01*
X016285Y015569D01*
X016227Y015526D01*
X016175Y015475D01*
X016133Y015417D01*
X016100Y015352D01*
X016078Y015283D01*
X016066Y015212D01*
X016066Y014916D01*
X016486Y014916D01*
X016486Y014836D01*
X016066Y014836D01*
X016066Y014539D01*
X016078Y014468D01*
X016100Y014399D01*
X016133Y014334D01*
X016175Y014276D01*
X016227Y014225D01*
X016285Y014182D01*
X016350Y014149D01*
X016418Y014127D01*
X016486Y014116D01*
X016486Y014836D01*
X016566Y014836D01*
X016566Y014116D01*
X016634Y014127D01*
X016703Y014149D01*
X016767Y014182D01*
X016826Y014225D01*
X016877Y014276D01*
X016901Y014309D01*
X016950Y014190D01*
X017141Y013999D01*
X017391Y013896D01*
X017661Y013896D01*
X017911Y013999D01*
X018103Y014190D01*
X018206Y014440D01*
X018206Y015311D01*
X018103Y015561D01*
X018026Y015637D01*
X018026Y016686D01*
X018791Y016686D01*
X018791Y015925D01*
X018849Y015786D01*
X018956Y015679D01*
X019089Y015623D01*
X019102Y015592D01*
X019144Y015551D01*
X018655Y015551D01*
X018516Y015493D01*
X018409Y015386D01*
X018351Y015246D01*
X018351Y014505D01*
X018409Y014365D01*
X018516Y014258D01*
X018526Y014254D01*
X018526Y013276D01*
X018602Y013092D01*
X018743Y012952D01*
X019243Y012452D01*
X019427Y012376D01*
X020133Y012376D01*
X020133Y012375D01*
X020272Y012317D01*
X020780Y012317D01*
X020920Y012375D01*
X021026Y012482D01*
X021084Y012622D01*
X021084Y013129D01*
X021026Y013269D01*
X020920Y013376D01*
X020780Y013434D01*
X020272Y013434D01*
X020133Y013376D01*
X020133Y013376D01*
X019733Y013376D01*
X019526Y013583D01*
X019526Y014254D01*
X019526Y014254D01*
X019655Y014200D01*
X020397Y014200D01*
X020537Y014258D01*
X020644Y014365D01*
X020701Y014505D01*
X020701Y015246D01*
X020644Y015386D01*
X020537Y015493D01*
X020515Y015502D01*
X020488Y015567D01*
X020780Y015567D01*
X020920Y015625D01*
X021026Y015732D01*
X021026Y015637D01*
X020950Y015561D01*
X020846Y015311D01*
X020846Y014440D01*
X020950Y014190D01*
X021141Y013999D01*
X021391Y013896D01*
X021661Y013896D01*
X021911Y013999D01*
X022103Y014190D01*
X022152Y014309D01*
X022175Y014276D01*
X022227Y014225D01*
X022285Y014182D01*
X022350Y014149D01*
X022418Y014127D01*
X022486Y014116D01*
X022486Y014836D01*
X022566Y014836D01*
X022566Y014916D01*
X022486Y014916D01*
X022486Y015635D01*
X022418Y015624D01*
X022350Y015602D01*
X022285Y015569D01*
X022227Y015526D01*
X022175Y015475D01*
X022152Y015443D01*
X022103Y015561D01*
X022026Y015637D01*
X022026Y016686D01*
X022571Y016686D01*
X022571Y016644D01*
X023007Y016644D01*
X023007Y016607D01*
X022571Y016607D01*
X022571Y016309D01*
X022582Y016269D01*
X022603Y016232D01*
X022633Y016202D01*
X022669Y016181D01*
X022710Y016170D01*
X023007Y016170D01*
X023007Y016607D01*
X023045Y016607D01*
X023045Y016170D01*
X023336Y016170D01*
X023336Y011066D01*
X015966Y011066D01*
X015966Y011132D02*
X023336Y011132D01*
X023336Y011250D02*
X015966Y011250D01*
X015966Y011369D02*
X023336Y011369D01*
X023336Y011487D02*
X015966Y011487D01*
X015966Y011606D02*
X023336Y011606D01*
X023336Y011724D02*
X015966Y011724D01*
X015966Y011843D02*
X023336Y011843D01*
X023336Y011961D02*
X015966Y011961D01*
X015966Y012080D02*
X023336Y012080D01*
X023336Y012198D02*
X015966Y012198D01*
X015966Y012317D02*
X023336Y012317D01*
X023336Y012435D02*
X020979Y012435D01*
X021056Y012554D02*
X023336Y012554D01*
X023336Y012672D02*
X021084Y012672D01*
X021084Y012791D02*
X023336Y012791D01*
X023336Y012909D02*
X021084Y012909D01*
X021084Y013028D02*
X023336Y013028D01*
X023336Y013146D02*
X021077Y013146D01*
X021028Y013265D02*
X023336Y013265D01*
X023336Y013383D02*
X020902Y013383D01*
X021198Y013976D02*
X019526Y013976D01*
X019526Y014094D02*
X021046Y014094D01*
X020941Y014213D02*
X020427Y014213D01*
X020610Y014331D02*
X020891Y014331D01*
X020846Y014450D02*
X020679Y014450D01*
X020701Y014568D02*
X020846Y014568D01*
X020846Y014687D02*
X020701Y014687D01*
X020701Y014805D02*
X020846Y014805D01*
X020846Y014924D02*
X020701Y014924D01*
X020701Y015042D02*
X020846Y015042D01*
X020846Y015161D02*
X020701Y015161D01*
X020688Y015279D02*
X020846Y015279D01*
X020882Y015398D02*
X020632Y015398D01*
X020509Y015516D02*
X020931Y015516D01*
X020929Y015635D02*
X021024Y015635D01*
X021026Y016519D02*
X021026Y016519D01*
X021026Y016686D01*
X021026Y016686D01*
X021026Y016519D01*
X021026Y016583D02*
X021026Y016583D01*
X021026Y017649D02*
X020710Y017649D01*
X020700Y017659D02*
X020700Y017659D01*
X020591Y017768D02*
X021026Y017768D01*
X021026Y017886D02*
X020236Y017886D01*
X020164Y018005D02*
X021026Y018005D01*
X021026Y018123D02*
X019974Y018123D01*
X019078Y018123D02*
X018026Y018123D01*
X018026Y018005D02*
X018888Y018005D01*
X018816Y017886D02*
X018026Y017886D01*
X018026Y017768D02*
X018791Y017768D01*
X018791Y017649D02*
X018026Y017649D01*
X018026Y018242D02*
X021026Y018242D01*
X021026Y018360D02*
X018026Y018360D01*
X018025Y018479D02*
X021028Y018479D01*
X021077Y018597D02*
X017976Y018597D01*
X017893Y018716D02*
X021159Y018716D01*
X021278Y018834D02*
X017775Y018834D01*
X017656Y018953D02*
X021396Y018953D01*
X021515Y019071D02*
X017538Y019071D01*
X017419Y019190D02*
X021633Y019190D01*
X021764Y019308D02*
X017289Y019308D01*
X017231Y019427D02*
X021821Y019427D01*
X021929Y019545D02*
X017124Y019545D01*
X017766Y020758D02*
X017905Y020700D01*
X018647Y020700D01*
X018787Y020758D01*
X018894Y020865D01*
X018921Y020931D01*
X018960Y020920D01*
X019256Y020920D01*
X019256Y021356D01*
X019296Y021356D01*
X019296Y020920D01*
X019593Y020920D01*
X019632Y020931D01*
X019659Y020865D01*
X019766Y020758D01*
X019905Y020700D01*
X020647Y020700D01*
X020787Y020758D01*
X020894Y020865D01*
X020951Y021005D01*
X020951Y021700D01*
X021147Y021700D01*
X021287Y021758D01*
X021394Y021865D01*
X021451Y022005D01*
X021451Y022746D01*
X021394Y022886D01*
X021287Y022993D01*
X021216Y023022D01*
X021216Y023236D01*
X021236Y023284D01*
X021236Y023467D01*
X021166Y023636D01*
X019451Y025351D01*
X019451Y025746D01*
X019394Y025886D01*
X019287Y025993D01*
X019147Y026051D01*
X018405Y026051D01*
X018276Y025997D01*
X018147Y026051D01*
X017405Y026051D01*
X017276Y025997D01*
X017147Y026051D01*
X016405Y026051D01*
X016276Y025997D01*
X016147Y026051D01*
X015405Y026051D01*
X015266Y025993D01*
X015159Y025886D01*
X015101Y025746D01*
X015101Y025005D01*
X015159Y024865D01*
X015266Y024758D01*
X015316Y024737D01*
X015316Y024284D01*
X015386Y024115D01*
X015516Y023986D01*
X017646Y021855D01*
X017601Y021746D01*
X017601Y021005D01*
X017659Y020865D01*
X017766Y020758D01*
X017833Y020730D02*
X013431Y020730D01*
X013375Y020612D02*
X025696Y020612D01*
X025696Y020730D02*
X023507Y020730D01*
X023656Y020784D02*
X023245Y020635D01*
X022807Y020635D01*
X022396Y020784D01*
X022061Y021066D01*
X022061Y021066D01*
X021842Y021445D01*
X021842Y021445D01*
X021766Y021876D01*
X021766Y021876D01*
X021842Y022307D01*
X021842Y022307D01*
X022061Y022686D01*
X022061Y022686D01*
X022396Y022967D01*
X022396Y022967D01*
X022507Y023007D01*
X022516Y023016D01*
X022685Y023086D01*
X022723Y023086D01*
X022807Y023116D01*
X023245Y023116D01*
X023330Y023086D01*
X023368Y023086D01*
X023537Y023016D01*
X023545Y023007D01*
X023656Y022967D01*
X023656Y022967D01*
X023991Y022686D01*
X023991Y022686D01*
X023991Y022686D01*
X024210Y022307D01*
X024210Y022307D01*
X024286Y021876D01*
X024210Y021445D01*
X023991Y021066D01*
X023991Y021066D01*
X023656Y020784D01*
X023656Y020784D01*
X023733Y020849D02*
X025696Y020849D01*
X025696Y020967D02*
X023874Y020967D01*
X024003Y021086D02*
X025696Y021086D01*
X025627Y021204D02*
X024071Y021204D01*
X024140Y021323D02*
X025509Y021323D01*
X025390Y021441D02*
X024208Y021441D01*
X024210Y021445D02*
X024210Y021445D01*
X024230Y021560D02*
X025272Y021560D01*
X025153Y021678D02*
X024251Y021678D01*
X024272Y021797D02*
X025035Y021797D01*
X024916Y021915D02*
X024279Y021915D01*
X024258Y022034D02*
X024798Y022034D01*
X024679Y022152D02*
X024237Y022152D01*
X024217Y022271D02*
X024561Y022271D01*
X024442Y022389D02*
X024163Y022389D01*
X024094Y022508D02*
X024324Y022508D01*
X024205Y022626D02*
X024026Y022626D01*
X024087Y022745D02*
X023921Y022745D01*
X023968Y022863D02*
X023780Y022863D01*
X023850Y022982D02*
X023615Y022982D01*
X023731Y023100D02*
X023290Y023100D01*
X023494Y023337D02*
X021236Y023337D01*
X021236Y023456D02*
X023376Y023456D01*
X023257Y023574D02*
X021192Y023574D01*
X021110Y023693D02*
X023139Y023693D01*
X023020Y023811D02*
X020991Y023811D01*
X020873Y023930D02*
X022902Y023930D01*
X022783Y024048D02*
X020754Y024048D01*
X020636Y024167D02*
X022665Y024167D01*
X022546Y024285D02*
X020517Y024285D01*
X020399Y024404D02*
X022428Y024404D01*
X022309Y024522D02*
X020280Y024522D01*
X020162Y024641D02*
X022191Y024641D01*
X022072Y024759D02*
X020043Y024759D01*
X019925Y024878D02*
X021954Y024878D01*
X021835Y024996D02*
X019806Y024996D01*
X019688Y025115D02*
X021717Y025115D01*
X021598Y025233D02*
X019569Y025233D01*
X019451Y025352D02*
X021480Y025352D01*
X021361Y025470D02*
X019451Y025470D01*
X019451Y025589D02*
X021243Y025589D01*
X021124Y025707D02*
X019451Y025707D01*
X019419Y025826D02*
X021006Y025826D01*
X020887Y025944D02*
X019336Y025944D01*
X019302Y026774D02*
X020058Y026774D01*
X019939Y026892D02*
X019405Y026892D01*
X019451Y027011D02*
X019821Y027011D01*
X019702Y027129D02*
X019451Y027129D01*
X019451Y027248D02*
X019584Y027248D01*
X019465Y027366D02*
X019451Y027366D01*
X019526Y027501D02*
X018346Y028681D01*
X018346Y030876D01*
X018276Y030876D01*
X018293Y030803D02*
X018397Y030803D01*
X018688Y031158D02*
X018884Y031158D01*
X019124Y031158D02*
X019141Y031158D01*
X019141Y031277D02*
X019124Y031277D01*
X019124Y031395D02*
X019141Y031395D01*
X019141Y031514D02*
X019124Y031514D01*
X019124Y031632D02*
X019141Y031632D01*
X019141Y031751D02*
X019124Y031751D01*
X019124Y031884D02*
X019124Y032252D01*
X019095Y032252D01*
X019023Y032238D01*
X018954Y032209D01*
X018942Y032201D01*
X018942Y032211D01*
X018885Y032347D01*
X018885Y032361D01*
X019151Y032361D01*
X019151Y032816D01*
X018885Y032816D01*
X018885Y032876D01*
X019151Y032876D01*
X019151Y032816D01*
X019271Y032816D01*
X019271Y032876D01*
X020948Y032876D01*
X020896Y032751D01*
X020896Y032660D01*
X020826Y032689D01*
X020589Y032689D01*
X020369Y032598D01*
X020314Y032542D01*
X020258Y032598D01*
X020039Y032689D01*
X019801Y032689D01*
X019686Y032641D01*
X019686Y032816D01*
X019271Y032816D01*
X019271Y032361D01*
X019385Y032361D01*
X019323Y032211D01*
X019323Y032201D01*
X019311Y032209D01*
X019242Y032238D01*
X019170Y032252D01*
X019141Y032252D01*
X019141Y031884D01*
X019124Y031884D01*
X019124Y031988D02*
X019141Y031988D01*
X019141Y032106D02*
X019124Y032106D01*
X019124Y032225D02*
X019141Y032225D01*
X019274Y032225D02*
X019329Y032225D01*
X019378Y032343D02*
X018887Y032343D01*
X018936Y032225D02*
X018991Y032225D01*
X019151Y032462D02*
X019271Y032462D01*
X019271Y032580D02*
X019151Y032580D01*
X019151Y032699D02*
X019271Y032699D01*
X019271Y032817D02*
X020924Y032817D01*
X020896Y032699D02*
X019686Y032699D01*
X019151Y032817D02*
X018885Y032817D01*
X019381Y031158D02*
X019577Y031158D01*
X019868Y030803D02*
X019972Y030803D01*
X020263Y031158D02*
X020365Y031158D01*
X020655Y030803D02*
X020759Y030803D01*
X021050Y031158D02*
X021247Y031158D01*
X021486Y031158D02*
X021504Y031158D01*
X021504Y031066D02*
X021532Y031066D01*
X021605Y031080D01*
X021673Y031109D01*
X021735Y031150D01*
X021787Y031202D01*
X021828Y031264D01*
X021857Y031333D01*
X021871Y031405D01*
X021871Y031867D01*
X021504Y031867D01*
X021504Y031066D01*
X021486Y031277D02*
X021504Y031277D01*
X021504Y031395D02*
X021486Y031395D01*
X021486Y031514D02*
X021504Y031514D01*
X021504Y031632D02*
X021486Y031632D01*
X021486Y031751D02*
X021504Y031751D01*
X021504Y031869D02*
X021885Y031869D01*
X021871Y031751D02*
X022065Y031751D01*
X022011Y031632D02*
X021871Y031632D01*
X021871Y031514D02*
X022011Y031514D01*
X022011Y031395D02*
X021869Y031395D01*
X021834Y031277D02*
X022466Y031277D01*
X022466Y031158D02*
X022586Y031158D01*
X022586Y031256D02*
X022586Y030841D01*
X022902Y030841D01*
X022943Y030852D01*
X022979Y030873D01*
X023009Y030903D01*
X023030Y030939D01*
X023041Y030980D01*
X023041Y031256D01*
X022586Y031256D01*
X022586Y031277D02*
X027276Y031277D01*
X027276Y031395D02*
X023041Y031395D01*
X023041Y031514D02*
X027276Y031514D01*
X027276Y031632D02*
X027219Y031632D01*
X027276Y031158D02*
X023041Y031158D01*
X023041Y031040D02*
X027362Y031040D01*
X027481Y030921D02*
X023020Y030921D01*
X023078Y030684D02*
X022349Y030684D01*
X022424Y030566D02*
X022925Y030566D01*
X022807Y030447D02*
X022473Y030447D01*
X022485Y030329D02*
X022688Y030329D01*
X022636Y030210D02*
X022485Y030210D01*
X022485Y030092D02*
X022587Y030092D01*
X022586Y029973D02*
X022485Y029973D01*
X022485Y029855D02*
X022586Y029855D01*
X022586Y029736D02*
X022480Y029736D01*
X022430Y029618D02*
X022547Y029618D01*
X022521Y029499D02*
X022363Y029499D01*
X022245Y029381D02*
X022521Y029381D01*
X022521Y029262D02*
X022210Y029262D01*
X022328Y029144D02*
X022521Y029144D01*
X022521Y029025D02*
X022447Y029025D01*
X023158Y028314D02*
X026006Y028314D01*
X026006Y028196D02*
X023276Y028196D01*
X023395Y028077D02*
X026006Y028077D01*
X026006Y027959D02*
X023513Y027959D01*
X023632Y027840D02*
X026006Y027840D01*
X026006Y027722D02*
X023750Y027722D01*
X023869Y027603D02*
X026006Y027603D01*
X026006Y027485D02*
X023987Y027485D01*
X024106Y027366D02*
X026006Y027366D01*
X026006Y027248D02*
X024224Y027248D01*
X024343Y027129D02*
X026006Y027129D01*
X026006Y027011D02*
X024461Y027011D01*
X024580Y026892D02*
X026006Y026892D01*
X026006Y026774D02*
X024698Y026774D01*
X024817Y026655D02*
X025954Y026655D01*
X026006Y026677D02*
X025883Y026626D01*
X025776Y026519D01*
X025718Y026379D01*
X025718Y026294D01*
X025696Y026241D01*
X025696Y026010D01*
X025718Y025957D01*
X025718Y025872D01*
X025776Y025732D01*
X025883Y025625D01*
X026022Y025567D01*
X026108Y025567D01*
X026161Y025546D01*
X026392Y025546D01*
X026444Y025567D01*
X026530Y025567D01*
X026670Y025625D01*
X026776Y025732D01*
X026828Y025857D01*
X027078Y026107D01*
X027166Y026320D01*
X027166Y027741D01*
X027278Y027630D01*
X027601Y027496D01*
X027951Y027496D01*
X028275Y027630D01*
X028522Y027877D01*
X028656Y028201D01*
X028656Y028551D01*
X029026Y028551D01*
X029026Y028433D02*
X028656Y028433D01*
X028656Y028551D02*
X028522Y028874D01*
X028275Y029122D01*
X027951Y029256D01*
X027601Y029256D01*
X027281Y029123D01*
X027281Y029556D01*
X027223Y029696D01*
X027216Y029703D01*
X027216Y030091D01*
X027120Y030323D01*
X026960Y030482D01*
X026783Y030660D01*
X026551Y030756D01*
X026301Y030756D01*
X026069Y030660D01*
X025892Y030482D01*
X025880Y030452D01*
X025796Y030536D01*
X025646Y030536D01*
X025646Y030146D01*
X025606Y030146D01*
X025606Y030536D01*
X025456Y030536D01*
X025216Y030295D01*
X025216Y030146D01*
X025606Y030146D01*
X025606Y030106D01*
X025216Y030106D01*
X025216Y029956D01*
X025456Y029716D01*
X025606Y029716D01*
X025606Y030106D01*
X025646Y030106D01*
X025646Y029716D01*
X025796Y029716D01*
X025880Y029799D01*
X025892Y029769D01*
X025956Y029705D01*
X025956Y029703D01*
X025949Y029696D01*
X025903Y029585D01*
X025880Y029609D01*
X025843Y029630D01*
X025802Y029641D01*
X025526Y029641D01*
X025526Y029186D01*
X025406Y029186D01*
X025406Y029641D01*
X025130Y029641D01*
X025090Y029630D01*
X025053Y029609D01*
X025023Y029579D01*
X025002Y029542D01*
X024991Y029502D01*
X024991Y029186D01*
X025406Y029186D01*
X025406Y029066D01*
X024991Y029066D01*
X024991Y028750D01*
X025002Y028709D01*
X025023Y028672D01*
X025053Y028643D01*
X025090Y028622D01*
X025130Y028611D01*
X025406Y028611D01*
X025406Y029066D01*
X025526Y029066D01*
X025526Y028611D01*
X025802Y028611D01*
X025843Y028622D01*
X025880Y028643D01*
X025903Y028666D01*
X025949Y028555D01*
X026006Y028498D01*
X026006Y026677D01*
X025794Y026537D02*
X024935Y026537D01*
X025054Y026418D02*
X025734Y026418D01*
X025718Y026300D02*
X025172Y026300D01*
X025291Y026181D02*
X025696Y026181D01*
X025696Y026063D02*
X025409Y026063D01*
X025528Y025944D02*
X025718Y025944D01*
X025737Y025826D02*
X025646Y025826D01*
X025765Y025707D02*
X025801Y025707D01*
X025883Y025589D02*
X025971Y025589D01*
X026002Y025470D02*
X027059Y025470D01*
X026751Y025707D02*
X029026Y025707D01*
X029026Y025589D02*
X026581Y025589D01*
X026815Y025826D02*
X029026Y025826D01*
X029026Y025944D02*
X026915Y025944D01*
X027033Y026063D02*
X029026Y026063D01*
X029026Y026181D02*
X027108Y026181D01*
X027158Y026300D02*
X029026Y026300D01*
X029026Y026418D02*
X027166Y026418D01*
X027166Y026537D02*
X029026Y026537D01*
X029026Y026655D02*
X027166Y026655D01*
X027166Y026774D02*
X029026Y026774D01*
X029026Y026892D02*
X027166Y026892D01*
X027166Y027011D02*
X029026Y027011D01*
X029026Y027129D02*
X027166Y027129D01*
X027166Y027248D02*
X029026Y027248D01*
X029026Y027366D02*
X027166Y027366D01*
X027166Y027485D02*
X029026Y027485D01*
X029026Y027603D02*
X028211Y027603D01*
X028367Y027722D02*
X029026Y027722D01*
X029026Y027840D02*
X028485Y027840D01*
X028556Y027959D02*
X029026Y027959D01*
X029026Y028077D02*
X028605Y028077D01*
X028654Y028196D02*
X029026Y028196D01*
X029026Y028314D02*
X028656Y028314D01*
X028607Y028670D02*
X029026Y028670D01*
X029026Y028788D02*
X028558Y028788D01*
X028490Y028907D02*
X029026Y028907D01*
X029026Y029025D02*
X028371Y029025D01*
X028221Y029144D02*
X029026Y029144D01*
X029026Y029262D02*
X027281Y029262D01*
X027281Y029144D02*
X027331Y029144D01*
X027281Y029381D02*
X029021Y029381D01*
X028903Y029499D02*
X027281Y029499D01*
X027255Y029618D02*
X028784Y029618D01*
X028666Y029736D02*
X027216Y029736D01*
X027216Y029855D02*
X028547Y029855D01*
X028429Y029973D02*
X027216Y029973D01*
X027216Y030092D02*
X028310Y030092D01*
X028192Y030210D02*
X027167Y030210D01*
X027114Y030329D02*
X028073Y030329D01*
X027955Y030447D02*
X026996Y030447D01*
X026877Y030566D02*
X027836Y030566D01*
X027718Y030684D02*
X026724Y030684D01*
X026128Y030684D02*
X023674Y030684D01*
X023827Y030566D02*
X025975Y030566D01*
X025646Y030447D02*
X025606Y030447D01*
X025606Y030329D02*
X025646Y030329D01*
X025646Y030210D02*
X025606Y030210D01*
X025606Y030092D02*
X025646Y030092D01*
X025646Y029973D02*
X025606Y029973D01*
X025606Y029855D02*
X025646Y029855D01*
X025646Y029736D02*
X025606Y029736D01*
X025526Y029618D02*
X025406Y029618D01*
X025406Y029499D02*
X025526Y029499D01*
X025526Y029381D02*
X025406Y029381D01*
X025406Y029262D02*
X025526Y029262D01*
X025406Y029144D02*
X024396Y029144D01*
X024396Y029186D02*
X024811Y029186D01*
X024811Y029502D01*
X024800Y029542D01*
X024779Y029579D01*
X024749Y029609D01*
X024713Y029630D01*
X024672Y029641D01*
X024396Y029641D01*
X024396Y029186D01*
X024396Y029262D02*
X024276Y029262D01*
X024276Y029381D02*
X024396Y029381D01*
X024396Y029499D02*
X024276Y029499D01*
X024276Y029618D02*
X024396Y029618D01*
X024346Y029716D02*
X024586Y029956D01*
X024586Y030106D01*
X024196Y030106D01*
X024196Y029716D01*
X024346Y029716D01*
X024367Y029736D02*
X025436Y029736D01*
X025317Y029855D02*
X024485Y029855D01*
X024586Y029973D02*
X025216Y029973D01*
X025216Y030092D02*
X024586Y030092D01*
X024586Y030146D02*
X024586Y030295D01*
X024346Y030536D01*
X024196Y030536D01*
X024196Y030146D01*
X024586Y030146D01*
X024586Y030210D02*
X025216Y030210D01*
X025249Y030329D02*
X024553Y030329D01*
X024434Y030447D02*
X025368Y030447D01*
X025817Y029736D02*
X025925Y029736D01*
X025917Y029618D02*
X025864Y029618D01*
X025526Y029025D02*
X025406Y029025D01*
X025406Y028907D02*
X025526Y028907D01*
X025526Y028788D02*
X025406Y028788D01*
X025406Y028670D02*
X025526Y028670D01*
X025953Y028551D02*
X023849Y028551D01*
X023708Y028433D02*
X026006Y028433D01*
X025026Y028670D02*
X024776Y028670D01*
X024779Y028672D02*
X024800Y028709D01*
X024811Y028750D01*
X024811Y029066D01*
X024396Y029066D01*
X024396Y028611D01*
X024672Y028611D01*
X024713Y028622D01*
X024749Y028643D01*
X024779Y028672D01*
X024811Y028788D02*
X024991Y028788D01*
X024991Y028907D02*
X024811Y028907D01*
X024811Y029025D02*
X024991Y029025D01*
X024991Y029262D02*
X024811Y029262D01*
X024811Y029381D02*
X024991Y029381D01*
X024991Y029499D02*
X024811Y029499D01*
X024733Y029618D02*
X025069Y029618D01*
X024396Y029025D02*
X024276Y029025D01*
X024276Y028907D02*
X024396Y028907D01*
X024396Y028788D02*
X024276Y028788D01*
X024276Y028670D02*
X024396Y028670D01*
X023939Y029618D02*
X023886Y029618D01*
X023878Y029736D02*
X023986Y029736D01*
X024156Y029736D02*
X024196Y029736D01*
X024196Y029855D02*
X024156Y029855D01*
X024156Y029973D02*
X024196Y029973D01*
X024196Y030092D02*
X024156Y030092D01*
X024156Y030210D02*
X024196Y030210D01*
X024196Y030329D02*
X024156Y030329D01*
X024156Y030447D02*
X024196Y030447D01*
X024432Y031632D02*
X023041Y031632D01*
X022987Y031751D02*
X024314Y031751D01*
X024227Y031869D02*
X023167Y031869D01*
X023237Y031988D02*
X024178Y031988D01*
X024145Y032106D02*
X023261Y032106D01*
X023261Y032225D02*
X024145Y032225D01*
X024145Y032343D02*
X023261Y032343D01*
X023261Y032462D02*
X024145Y032462D01*
X024145Y032580D02*
X023261Y032580D01*
X023261Y032699D02*
X024145Y032699D01*
X024145Y032817D02*
X023261Y032817D01*
X022011Y031158D02*
X021743Y031158D01*
X022011Y031040D02*
X012541Y031040D01*
X012541Y031158D02*
X012585Y031158D01*
X012824Y031158D02*
X012842Y031158D01*
X012842Y031277D02*
X012824Y031277D01*
X012824Y031395D02*
X012842Y031395D01*
X012842Y031514D02*
X012824Y031514D01*
X012824Y031632D02*
X012842Y031632D01*
X012842Y031751D02*
X012824Y031751D01*
X013081Y031158D02*
X013278Y031158D01*
X013569Y030803D02*
X013673Y030803D01*
X013963Y031158D02*
X014065Y031158D01*
X014356Y030803D02*
X014460Y030803D01*
X014751Y031158D02*
X014947Y031158D01*
X015187Y031158D02*
X015204Y031158D01*
X015204Y031277D02*
X015187Y031277D01*
X015187Y031395D02*
X015204Y031395D01*
X015204Y031514D02*
X015187Y031514D01*
X015187Y031632D02*
X015204Y031632D01*
X015204Y031751D02*
X015187Y031751D01*
X015187Y031884D02*
X015187Y032252D01*
X015177Y032252D01*
X015177Y032691D01*
X014723Y032691D01*
X014723Y032607D01*
X014527Y032689D01*
X014289Y032689D01*
X014070Y032598D01*
X014014Y032542D01*
X013959Y032598D01*
X013739Y032689D01*
X013502Y032689D01*
X013356Y032628D01*
X013356Y032741D01*
X013334Y032794D01*
X013334Y032876D01*
X014723Y032876D01*
X014723Y032811D01*
X015177Y032811D01*
X015177Y032691D01*
X015297Y032691D01*
X015297Y032239D01*
X015233Y032252D01*
X015204Y032252D01*
X015204Y031884D01*
X015187Y031884D01*
X015187Y031988D02*
X015204Y031988D01*
X015204Y032106D02*
X015187Y032106D01*
X015187Y032225D02*
X015204Y032225D01*
X015177Y032343D02*
X015297Y032343D01*
X015297Y032462D02*
X015177Y032462D01*
X015177Y032580D02*
X015297Y032580D01*
X015177Y032699D02*
X013356Y032699D01*
X013334Y032817D02*
X014723Y032817D01*
X014052Y032580D02*
X013976Y032580D01*
X012885Y030803D02*
X011453Y030803D01*
X011335Y030684D02*
X012767Y030684D01*
X012448Y030566D02*
X012431Y030566D01*
X012431Y030447D02*
X012448Y030447D01*
X012448Y030329D02*
X012431Y030329D01*
X012431Y030292D02*
X012063Y030292D01*
X012063Y029831D01*
X012078Y029758D01*
X012106Y029689D01*
X012147Y029628D01*
X012200Y029575D01*
X012261Y029534D01*
X012330Y029506D01*
X012402Y029491D01*
X012431Y029491D01*
X012431Y030292D01*
X012431Y030210D02*
X012448Y030210D01*
X012448Y030092D02*
X012431Y030092D01*
X012431Y029973D02*
X012448Y029973D01*
X012448Y029855D02*
X012431Y029855D01*
X012431Y029736D02*
X012448Y029736D01*
X012448Y029618D02*
X012431Y029618D01*
X012431Y029499D02*
X012448Y029499D01*
X012517Y029499D02*
X012579Y029499D01*
X012461Y029381D02*
X010031Y029381D01*
X010026Y029262D02*
X012342Y029262D01*
X012224Y029144D02*
X011471Y029144D01*
X011621Y029025D02*
X012105Y029025D01*
X011987Y028907D02*
X011740Y028907D01*
X011808Y028788D02*
X011868Y028788D01*
X012362Y029499D02*
X010150Y029499D01*
X010268Y029618D02*
X012157Y029618D01*
X012087Y029736D02*
X010387Y029736D01*
X010505Y029855D02*
X012063Y029855D01*
X012063Y029973D02*
X010624Y029973D01*
X010742Y030092D02*
X012063Y030092D01*
X012063Y030210D02*
X010861Y030210D01*
X010979Y030329D02*
X012063Y030329D01*
X012093Y030447D02*
X011098Y030447D01*
X011216Y030566D02*
X012172Y030566D01*
X012086Y030921D02*
X011966Y030921D01*
X011966Y031040D02*
X012086Y031040D01*
X012086Y031158D02*
X011966Y031158D01*
X011966Y031277D02*
X011927Y031277D01*
X012520Y030921D02*
X022032Y030921D01*
X022230Y030803D02*
X027599Y030803D01*
X026432Y031632D02*
X025219Y031632D01*
X025337Y031751D02*
X025726Y031751D01*
X025785Y031751D02*
X025865Y031751D01*
X025925Y031751D02*
X026314Y031751D01*
X026227Y031869D02*
X026144Y031869D01*
X025865Y031869D02*
X025785Y031869D01*
X025785Y031988D02*
X025865Y031988D01*
X025865Y032106D02*
X025785Y032106D01*
X025785Y032225D02*
X025865Y032225D01*
X025865Y032343D02*
X025785Y032343D01*
X025506Y031869D02*
X025424Y031869D01*
X022586Y031040D02*
X022466Y031040D01*
X022466Y030921D02*
X022586Y030921D01*
X021547Y030803D02*
X021443Y030803D01*
X020352Y032580D02*
X020275Y032580D01*
X019184Y030803D02*
X019081Y030803D01*
X018002Y031158D02*
X016326Y031158D01*
X016444Y031277D02*
X016470Y031277D01*
X016276Y030876D02*
X015986Y030876D01*
X015986Y028461D01*
X015026Y027501D01*
X015087Y027366D02*
X015101Y027366D01*
X015101Y027248D02*
X014968Y027248D01*
X014856Y027129D02*
X015101Y027129D01*
X015101Y027011D02*
X014856Y027011D01*
X014856Y026892D02*
X015148Y026892D01*
X015250Y026774D02*
X014856Y026774D01*
X014856Y026655D02*
X020176Y026655D01*
X020295Y026537D02*
X014856Y026537D01*
X014856Y026418D02*
X020413Y026418D01*
X020532Y026300D02*
X014856Y026300D01*
X014856Y026181D02*
X020650Y026181D01*
X020769Y026063D02*
X014856Y026063D01*
X014856Y025944D02*
X015217Y025944D01*
X015134Y025826D02*
X014856Y025826D01*
X014856Y025707D02*
X015101Y025707D01*
X015101Y025589D02*
X014856Y025589D01*
X014856Y025470D02*
X015101Y025470D01*
X015101Y025352D02*
X014856Y025352D01*
X014856Y025233D02*
X015101Y025233D01*
X015101Y025115D02*
X014856Y025115D01*
X014856Y024996D02*
X015104Y024996D01*
X015154Y024878D02*
X014856Y024878D01*
X014856Y024759D02*
X015265Y024759D01*
X015316Y024641D02*
X014856Y024641D01*
X014856Y024522D02*
X015316Y024522D01*
X015316Y024404D02*
X014856Y024404D01*
X014856Y024285D02*
X015316Y024285D01*
X015365Y024167D02*
X014856Y024167D01*
X014856Y024048D02*
X015453Y024048D01*
X015516Y023986D02*
X015516Y023986D01*
X015572Y023930D02*
X014860Y023930D01*
X014856Y023811D02*
X015690Y023811D01*
X015809Y023693D02*
X014831Y023693D01*
X014779Y023574D02*
X015927Y023574D01*
X016046Y023456D02*
X014719Y023456D01*
X014663Y023337D02*
X016164Y023337D01*
X016283Y023219D02*
X014607Y023219D01*
X014551Y023100D02*
X016401Y023100D01*
X016520Y022982D02*
X014495Y022982D01*
X014439Y022863D02*
X016638Y022863D01*
X016757Y022745D02*
X014383Y022745D01*
X014327Y022626D02*
X016875Y022626D01*
X016994Y022508D02*
X014271Y022508D01*
X014215Y022389D02*
X017112Y022389D01*
X017231Y022271D02*
X014159Y022271D01*
X014103Y022152D02*
X017349Y022152D01*
X017468Y022034D02*
X014047Y022034D01*
X013991Y021915D02*
X017586Y021915D01*
X017622Y021797D02*
X013935Y021797D01*
X013879Y021678D02*
X017601Y021678D01*
X017601Y021560D02*
X013823Y021560D01*
X013767Y021441D02*
X017601Y021441D01*
X017601Y021323D02*
X013711Y021323D01*
X013655Y021204D02*
X017601Y021204D01*
X017601Y021086D02*
X013599Y021086D01*
X013543Y020967D02*
X017616Y020967D01*
X017675Y020849D02*
X013487Y020849D01*
X013319Y020493D02*
X025696Y020493D01*
X025696Y020375D02*
X013263Y020375D01*
X013207Y020256D02*
X025717Y020256D01*
X025767Y020138D02*
X013151Y020138D01*
X013095Y020019D02*
X025860Y020019D01*
X025978Y019901D02*
X013041Y019901D01*
X012959Y019782D02*
X026097Y019782D01*
X026215Y019664D02*
X012837Y019664D01*
X012719Y019545D02*
X014929Y019545D01*
X014821Y019427D02*
X012600Y019427D01*
X012482Y019308D02*
X014014Y019308D01*
X013883Y019190D02*
X012363Y019190D01*
X012360Y019071D02*
X013765Y019071D01*
X013646Y018953D02*
X012361Y018953D01*
X012361Y018834D02*
X013528Y018834D01*
X013409Y018716D02*
X012336Y018716D01*
X012287Y018597D02*
X013327Y018597D01*
X013278Y018479D02*
X012220Y018479D01*
X012102Y018360D02*
X013276Y018360D01*
X013276Y018242D02*
X011898Y018242D01*
X011197Y019664D02*
X010026Y019664D01*
X010026Y019782D02*
X011315Y019782D01*
X011434Y019901D02*
X010026Y019901D01*
X010026Y020019D02*
X011552Y020019D01*
X011671Y020138D02*
X010026Y020138D01*
X010026Y020256D02*
X010543Y020256D01*
X010404Y020375D02*
X010026Y020375D01*
X010026Y020493D02*
X010296Y020493D01*
X010247Y020612D02*
X010026Y020612D01*
X010026Y020730D02*
X010198Y020730D01*
X010191Y020849D02*
X010026Y020849D01*
X010026Y020967D02*
X010191Y020967D01*
X010211Y021086D02*
X010026Y021086D01*
X010026Y021204D02*
X010260Y021204D01*
X010319Y021323D02*
X010026Y021323D01*
X010026Y021441D02*
X010438Y021441D01*
X010623Y021560D02*
X010026Y021560D01*
X010026Y021678D02*
X011243Y021678D01*
X011361Y021797D02*
X010026Y021797D01*
X010026Y021915D02*
X011480Y021915D01*
X011598Y022034D02*
X010026Y022034D01*
X010026Y022152D02*
X010718Y022152D01*
X010477Y022271D02*
X010026Y022271D01*
X010026Y022389D02*
X010358Y022389D01*
X010277Y022508D02*
X010026Y022508D01*
X010026Y022626D02*
X010228Y022626D01*
X010191Y022745D02*
X010026Y022745D01*
X010026Y022863D02*
X010191Y022863D01*
X010191Y022982D02*
X010026Y022982D01*
X010026Y023100D02*
X010230Y023100D01*
X010279Y023219D02*
X010026Y023219D01*
X010026Y023337D02*
X010365Y023337D01*
X010484Y023456D02*
X010026Y023456D01*
X010026Y023574D02*
X010734Y023574D01*
X010607Y024167D02*
X010026Y024167D01*
X010026Y024285D02*
X010431Y024285D01*
X010312Y024404D02*
X010026Y024404D01*
X010026Y024522D02*
X010258Y024522D01*
X010209Y024641D02*
X010026Y024641D01*
X010026Y024759D02*
X010191Y024759D01*
X010191Y024878D02*
X010026Y024878D01*
X010026Y024996D02*
X010200Y024996D01*
X010249Y025115D02*
X010026Y025115D01*
X010026Y025233D02*
X010298Y025233D01*
X010411Y025352D02*
X010026Y025352D01*
X010026Y025470D02*
X010559Y025470D01*
X010026Y025589D02*
X011216Y025589D01*
X011335Y025707D02*
X010026Y025707D01*
X010026Y025826D02*
X011446Y025826D01*
X011446Y025944D02*
X010026Y025944D01*
X010026Y026063D02*
X011446Y026063D01*
X011446Y026181D02*
X010026Y026181D01*
X010026Y026300D02*
X011446Y026300D01*
X011446Y026418D02*
X010026Y026418D01*
X010026Y026537D02*
X011446Y026537D01*
X011446Y026655D02*
X010026Y026655D01*
X010026Y026774D02*
X011446Y026774D01*
X011446Y026892D02*
X010026Y026892D01*
X010026Y027011D02*
X011446Y027011D01*
X011446Y027129D02*
X010026Y027129D01*
X010026Y027248D02*
X011446Y027248D01*
X011446Y027366D02*
X010026Y027366D01*
X010026Y027485D02*
X011446Y027485D01*
X010591Y027603D02*
X010026Y027603D01*
X010026Y027722D02*
X010436Y027722D01*
X010317Y027840D02*
X010026Y027840D01*
X010026Y027959D02*
X010246Y027959D01*
X010197Y028077D02*
X010026Y028077D01*
X010026Y028196D02*
X010148Y028196D01*
X010146Y028314D02*
X010026Y028314D01*
X010026Y028433D02*
X010146Y028433D01*
X010146Y028551D02*
X010026Y028551D01*
X010026Y028670D02*
X010195Y028670D01*
X010245Y028788D02*
X010026Y028788D01*
X010026Y028907D02*
X010313Y028907D01*
X010431Y029025D02*
X010026Y029025D01*
X010026Y029144D02*
X010581Y029144D01*
X010026Y024048D02*
X011636Y024048D01*
X011519Y023930D02*
X010026Y023930D01*
X010026Y023811D02*
X011402Y023811D01*
X011284Y023693D02*
X010026Y023693D01*
X012324Y023094D02*
X012339Y023059D01*
X012391Y023162D01*
X012324Y023094D01*
X012330Y023100D02*
X012360Y023100D01*
X012339Y021134D02*
X012329Y021114D01*
X012326Y021121D01*
X012339Y021134D01*
X010512Y019545D02*
X010026Y019545D01*
X010026Y019427D02*
X010392Y019427D01*
X010290Y019308D02*
X010026Y019308D01*
X010026Y019190D02*
X010241Y019190D01*
X010192Y019071D02*
X010026Y019071D01*
X010026Y018953D02*
X010191Y018953D01*
X010191Y018834D02*
X010026Y018834D01*
X010026Y018716D02*
X010217Y018716D01*
X010266Y018597D02*
X010026Y018597D01*
X010026Y018479D02*
X010332Y018479D01*
X010450Y018360D02*
X010026Y018360D01*
X010026Y018242D02*
X010654Y018242D01*
X010026Y018123D02*
X013276Y018123D01*
X013276Y018005D02*
X010026Y018005D01*
X010026Y017886D02*
X013276Y017886D01*
X013276Y017768D02*
X010026Y017768D01*
X010026Y017649D02*
X013276Y017649D01*
X013276Y017531D02*
X010026Y017531D01*
X010026Y017412D02*
X013276Y017412D01*
X013276Y017294D02*
X010026Y017294D01*
X010026Y017175D02*
X013276Y017175D01*
X013276Y017057D02*
X010026Y017057D01*
X010026Y016938D02*
X013276Y016938D01*
X013276Y016820D02*
X010026Y016820D01*
X010026Y016701D02*
X013307Y016701D01*
X013351Y016583D02*
X010026Y016583D01*
X010026Y016464D02*
X013351Y016464D01*
X013351Y016346D02*
X010026Y016346D01*
X010026Y016227D02*
X013362Y016227D01*
X013415Y016109D02*
X010026Y016109D01*
X010026Y015990D02*
X013559Y015990D01*
X013571Y015516D02*
X010026Y015516D01*
X010026Y015398D02*
X013420Y015398D01*
X013364Y015279D02*
X010026Y015279D01*
X010026Y015161D02*
X013351Y015161D01*
X013351Y015042D02*
X012156Y015042D01*
X012147Y015048D02*
X012075Y015085D01*
X011999Y015110D01*
X011919Y015122D01*
X011584Y015122D01*
X011584Y014667D01*
X012388Y014667D01*
X012379Y014730D01*
X012354Y014807D01*
X012317Y014878D01*
X012270Y014944D01*
X012213Y015001D01*
X012147Y015048D01*
X012284Y014924D02*
X013351Y014924D01*
X013351Y014805D02*
X012354Y014805D01*
X012385Y014687D02*
X013351Y014687D01*
X013351Y014568D02*
X011584Y014568D01*
X011584Y014552D02*
X011584Y014667D01*
X011469Y014667D01*
X011469Y014552D01*
X011584Y014552D01*
X011584Y014097D01*
X011919Y014097D01*
X011999Y014110D01*
X012075Y014135D01*
X012147Y014172D01*
X012213Y014219D01*
X012270Y014276D01*
X012317Y014341D01*
X012354Y014413D01*
X012379Y014490D01*
X012388Y014552D01*
X011584Y014552D01*
X011584Y014450D02*
X011469Y014450D01*
X011469Y014552D02*
X011469Y014097D01*
X011133Y014097D01*
X011054Y014110D01*
X010977Y014135D01*
X010905Y014172D01*
X010840Y014219D01*
X010783Y014276D01*
X010735Y014341D01*
X010699Y014413D01*
X010674Y014490D01*
X010664Y014552D01*
X011469Y014552D01*
X011469Y014568D02*
X010026Y014568D01*
X010026Y014450D02*
X010687Y014450D01*
X010743Y014331D02*
X010026Y014331D01*
X010026Y014213D02*
X010848Y014213D01*
X010664Y014667D02*
X011469Y014667D01*
X011469Y015122D01*
X011133Y015122D01*
X011054Y015110D01*
X010977Y015085D01*
X010905Y015048D01*
X010840Y015001D01*
X010783Y014944D01*
X010735Y014878D01*
X010699Y014807D01*
X010674Y014730D01*
X010664Y014667D01*
X010667Y014687D02*
X010026Y014687D01*
X010026Y014805D02*
X010698Y014805D01*
X010768Y014924D02*
X010026Y014924D01*
X010026Y015042D02*
X010897Y015042D01*
X011469Y015042D02*
X011584Y015042D01*
X011584Y014924D02*
X011469Y014924D01*
X011469Y014805D02*
X011584Y014805D01*
X011584Y014687D02*
X011469Y014687D01*
X011469Y014331D02*
X011584Y014331D01*
X011584Y014213D02*
X011469Y014213D01*
X012204Y014213D02*
X013526Y014213D01*
X013526Y014094D02*
X010026Y014094D01*
X010026Y013976D02*
X013526Y013976D01*
X013526Y013857D02*
X010026Y013857D01*
X010026Y013739D02*
X013372Y013739D01*
X013310Y013620D02*
X010026Y013620D01*
X010026Y013502D02*
X013291Y013502D01*
X013443Y014331D02*
X012310Y014331D01*
X012365Y014450D02*
X013374Y014450D01*
X014526Y014254D02*
X014526Y013852D01*
X014596Y013823D01*
X014703Y013716D01*
X014761Y013576D01*
X014761Y012795D01*
X014703Y012655D01*
X014674Y012626D01*
X014703Y012596D01*
X014761Y012456D01*
X014761Y012038D01*
X015086Y011713D01*
X015086Y014200D01*
X014655Y014200D01*
X014526Y014254D01*
X014526Y014213D02*
X014626Y014213D01*
X014526Y014094D02*
X015086Y014094D01*
X015086Y013976D02*
X014526Y013976D01*
X014526Y013857D02*
X015086Y013857D01*
X015086Y013739D02*
X014680Y013739D01*
X014743Y013620D02*
X015086Y013620D01*
X015086Y013502D02*
X014761Y013502D01*
X014761Y013383D02*
X015086Y013383D01*
X015086Y013265D02*
X014761Y013265D01*
X014761Y013146D02*
X015086Y013146D01*
X015086Y013028D02*
X014761Y013028D01*
X014761Y012909D02*
X015086Y012909D01*
X015086Y012791D02*
X014759Y012791D01*
X014710Y012672D02*
X015086Y012672D01*
X015086Y012554D02*
X014721Y012554D01*
X014761Y012435D02*
X015086Y012435D01*
X015086Y012317D02*
X014761Y012317D01*
X014761Y012198D02*
X015086Y012198D01*
X015086Y012080D02*
X014761Y012080D01*
X014838Y011961D02*
X015086Y011961D01*
X015086Y011843D02*
X014956Y011843D01*
X015075Y011724D02*
X015086Y011724D01*
X015966Y012435D02*
X019283Y012435D01*
X019141Y012554D02*
X015966Y012554D01*
X015966Y012672D02*
X019023Y012672D01*
X018904Y012791D02*
X015966Y012791D01*
X015966Y012909D02*
X018786Y012909D01*
X018667Y013028D02*
X015966Y013028D01*
X015966Y013146D02*
X018580Y013146D01*
X018531Y013265D02*
X015966Y013265D01*
X015966Y013383D02*
X018526Y013383D01*
X018526Y013502D02*
X015966Y013502D01*
X015966Y013620D02*
X018526Y013620D01*
X018526Y013739D02*
X015966Y013739D01*
X015966Y013857D02*
X018526Y013857D01*
X018526Y013976D02*
X017855Y013976D01*
X018006Y014094D02*
X018526Y014094D01*
X018526Y014213D02*
X018112Y014213D01*
X018161Y014331D02*
X018443Y014331D01*
X018374Y014450D02*
X018206Y014450D01*
X018206Y014568D02*
X018351Y014568D01*
X018351Y014687D02*
X018206Y014687D01*
X018206Y014805D02*
X018351Y014805D01*
X018351Y014924D02*
X018206Y014924D01*
X018206Y015042D02*
X018351Y015042D01*
X018351Y015161D02*
X018206Y015161D01*
X018206Y015279D02*
X018364Y015279D01*
X018420Y015398D02*
X018170Y015398D01*
X018121Y015516D02*
X018571Y015516D01*
X018882Y015753D02*
X018026Y015753D01*
X018029Y015635D02*
X019062Y015635D01*
X018813Y015872D02*
X018026Y015872D01*
X018026Y015990D02*
X018791Y015990D01*
X018791Y016109D02*
X018026Y016109D01*
X018026Y016227D02*
X018791Y016227D01*
X018791Y016346D02*
X018026Y016346D01*
X018026Y016464D02*
X018791Y016464D01*
X018791Y016583D02*
X018026Y016583D01*
X017026Y016583D02*
X016481Y016583D01*
X016481Y016607D02*
X016045Y016607D01*
X016045Y016170D01*
X016343Y016170D01*
X016383Y016181D01*
X016420Y016202D01*
X016449Y016232D01*
X016471Y016269D01*
X016481Y016309D01*
X016481Y016607D01*
X016481Y016464D02*
X017026Y016464D01*
X017026Y016346D02*
X016481Y016346D01*
X016445Y016227D02*
X017026Y016227D01*
X017026Y016109D02*
X015966Y016109D01*
X015966Y015990D02*
X017026Y015990D01*
X017026Y015872D02*
X015966Y015872D01*
X015966Y015753D02*
X017026Y015753D01*
X017024Y015635D02*
X016569Y015635D01*
X016566Y015635D02*
X016486Y015635D01*
X016484Y015635D02*
X015966Y015635D01*
X015966Y015516D02*
X016216Y015516D01*
X016123Y015398D02*
X015966Y015398D01*
X015966Y015279D02*
X016077Y015279D01*
X016066Y015161D02*
X015966Y015161D01*
X015966Y015042D02*
X016066Y015042D01*
X016066Y014924D02*
X015966Y014924D01*
X015966Y014805D02*
X016066Y014805D01*
X016066Y014687D02*
X015966Y014687D01*
X015966Y014568D02*
X016066Y014568D01*
X016083Y014450D02*
X015966Y014450D01*
X015966Y014331D02*
X016135Y014331D01*
X016243Y014213D02*
X015966Y014213D01*
X015966Y014094D02*
X017046Y014094D01*
X016941Y014213D02*
X016809Y014213D01*
X016566Y014213D02*
X016486Y014213D01*
X016486Y014331D02*
X016566Y014331D01*
X016566Y014450D02*
X016486Y014450D01*
X016486Y014568D02*
X016566Y014568D01*
X016566Y014687D02*
X016486Y014687D01*
X016486Y014805D02*
X016566Y014805D01*
X016566Y014924D02*
X016486Y014924D01*
X016486Y015042D02*
X016566Y015042D01*
X016566Y015161D02*
X016486Y015161D01*
X016486Y015279D02*
X016566Y015279D01*
X016566Y015398D02*
X016486Y015398D01*
X016486Y015516D02*
X016566Y015516D01*
X016836Y015516D02*
X016931Y015516D01*
X016045Y016227D02*
X016007Y016227D01*
X016007Y016346D02*
X016045Y016346D01*
X016045Y016464D02*
X016007Y016464D01*
X016007Y016583D02*
X016045Y016583D01*
X014771Y017638D02*
X014602Y017469D01*
X014526Y017285D01*
X014526Y017247D01*
X014397Y017301D01*
X014276Y017301D01*
X014276Y018168D01*
X014483Y018376D01*
X014800Y018376D01*
X014829Y018305D01*
X014884Y018251D01*
X014829Y018196D01*
X014771Y018056D01*
X014771Y017638D01*
X014771Y017649D02*
X014276Y017649D01*
X014276Y017531D02*
X014664Y017531D01*
X014579Y017412D02*
X014276Y017412D01*
X014415Y017294D02*
X014530Y017294D01*
X014771Y017768D02*
X014276Y017768D01*
X014276Y017886D02*
X014771Y017886D01*
X014771Y018005D02*
X014276Y018005D01*
X014276Y018123D02*
X014799Y018123D01*
X014875Y018242D02*
X014349Y018242D01*
X014468Y018360D02*
X014807Y018360D01*
X016004Y019545D02*
X016048Y019545D01*
X018719Y020730D02*
X019833Y020730D01*
X019675Y020849D02*
X018877Y020849D01*
X019256Y020967D02*
X019296Y020967D01*
X019296Y021086D02*
X019256Y021086D01*
X019256Y021204D02*
X019296Y021204D01*
X019296Y021323D02*
X019256Y021323D01*
X019256Y021396D02*
X019256Y021746D01*
X019287Y021758D01*
X019296Y021768D01*
X019296Y021396D01*
X019256Y021396D01*
X019256Y021441D02*
X019296Y021441D01*
X019296Y021560D02*
X019256Y021560D01*
X019256Y021678D02*
X019296Y021678D01*
X019359Y021831D02*
X019394Y021865D01*
X019421Y021931D01*
X019460Y021920D01*
X019693Y021920D01*
X019659Y021886D01*
X019632Y021820D01*
X019593Y021831D01*
X019359Y021831D01*
X019414Y021915D02*
X019688Y021915D01*
X019756Y021984D02*
X019756Y022356D01*
X019796Y022356D01*
X019796Y022006D01*
X019766Y021993D01*
X019756Y021984D01*
X019756Y022034D02*
X019796Y022034D01*
X019796Y022152D02*
X019756Y022152D01*
X019756Y022271D02*
X019796Y022271D01*
X019670Y022831D02*
X019460Y022831D01*
X019421Y022820D01*
X019394Y022886D01*
X019287Y022993D01*
X019147Y023051D01*
X018751Y023051D01*
X017236Y024566D01*
X017236Y024737D01*
X017276Y024754D01*
X017405Y024700D01*
X017801Y024700D01*
X019670Y022831D01*
X019638Y022863D02*
X019403Y022863D01*
X019298Y022982D02*
X019520Y022982D01*
X019401Y023100D02*
X018702Y023100D01*
X018584Y023219D02*
X019283Y023219D01*
X019164Y023337D02*
X018465Y023337D01*
X018347Y023456D02*
X019046Y023456D01*
X018927Y023574D02*
X018228Y023574D01*
X018110Y023693D02*
X018809Y023693D01*
X018690Y023811D02*
X017991Y023811D01*
X017873Y023930D02*
X018572Y023930D01*
X018453Y024048D02*
X017754Y024048D01*
X017636Y024167D02*
X018335Y024167D01*
X018216Y024285D02*
X017517Y024285D01*
X017399Y024404D02*
X018098Y024404D01*
X017979Y024522D02*
X017280Y024522D01*
X017236Y024641D02*
X017861Y024641D01*
X017276Y024876D02*
X017276Y030189D01*
X017164Y030301D01*
X017173Y030292D02*
X017173Y029491D01*
X017201Y029491D01*
X017274Y029506D01*
X017342Y029534D01*
X017404Y029575D01*
X017420Y029591D01*
X017446Y029530D01*
X017511Y029464D01*
X017511Y028051D01*
X017405Y028051D01*
X017276Y027997D01*
X017147Y028051D01*
X016780Y028051D01*
X016817Y028138D01*
X016817Y029464D01*
X016882Y029530D01*
X016908Y029591D01*
X016924Y029575D01*
X016986Y029534D01*
X017054Y029506D01*
X017127Y029491D01*
X017155Y029491D01*
X017155Y030292D01*
X017173Y030292D01*
X017173Y030329D02*
X017155Y030329D01*
X017155Y030447D02*
X017173Y030447D01*
X017173Y030566D02*
X017155Y030566D01*
X016837Y030684D02*
X017491Y030684D01*
X017610Y030803D02*
X016718Y030803D01*
X017071Y031277D02*
X017257Y031277D01*
X017858Y031277D02*
X017884Y031277D01*
X017951Y030301D02*
X017951Y027551D01*
X017776Y027376D01*
X017511Y028077D02*
X016791Y028077D01*
X016817Y028196D02*
X017511Y028196D01*
X017511Y028314D02*
X016817Y028314D01*
X016817Y028433D02*
X017511Y028433D01*
X017511Y028551D02*
X016817Y028551D01*
X016817Y028670D02*
X017511Y028670D01*
X017511Y028788D02*
X016817Y028788D01*
X016817Y028907D02*
X017511Y028907D01*
X017511Y029025D02*
X016817Y029025D01*
X016817Y029144D02*
X017511Y029144D01*
X017511Y029262D02*
X016817Y029262D01*
X016817Y029381D02*
X017511Y029381D01*
X017476Y029499D02*
X017241Y029499D01*
X017173Y029499D02*
X017155Y029499D01*
X017087Y029499D02*
X016852Y029499D01*
X017155Y029618D02*
X017173Y029618D01*
X017173Y029736D02*
X017155Y029736D01*
X017155Y029855D02*
X017173Y029855D01*
X017173Y029973D02*
X017155Y029973D01*
X017155Y030092D02*
X017173Y030092D01*
X017173Y030210D02*
X017155Y030210D01*
X016377Y030301D02*
X016377Y028226D01*
X015776Y027626D01*
X015776Y027376D01*
X016276Y024754D02*
X016236Y024737D01*
X016236Y024566D01*
X016316Y024486D01*
X016316Y024737D01*
X016276Y024754D01*
X016236Y024641D02*
X016316Y024641D01*
X016316Y024522D02*
X016280Y024522D01*
X018391Y028045D02*
X018391Y028440D01*
X018781Y028051D01*
X018405Y028051D01*
X018391Y028045D01*
X018391Y028077D02*
X018754Y028077D01*
X018636Y028196D02*
X018391Y028196D01*
X018391Y028314D02*
X018517Y028314D01*
X018399Y028433D02*
X018391Y028433D01*
X016035Y030803D02*
X015931Y030803D01*
X015640Y031158D02*
X015444Y031158D01*
X015247Y030803D02*
X015144Y030803D01*
X015751Y032864D02*
X015751Y032876D01*
X015763Y032876D01*
X015751Y032864D01*
X020776Y023376D02*
X020776Y022376D01*
X021325Y021797D02*
X021780Y021797D01*
X021773Y021915D02*
X021414Y021915D01*
X021451Y022034D02*
X021794Y022034D01*
X021815Y022152D02*
X021451Y022152D01*
X021451Y022271D02*
X021836Y022271D01*
X021890Y022389D02*
X021451Y022389D01*
X021451Y022508D02*
X021958Y022508D01*
X022027Y022626D02*
X021451Y022626D01*
X021451Y022745D02*
X022131Y022745D01*
X022273Y022863D02*
X021403Y022863D01*
X021298Y022982D02*
X022437Y022982D01*
X022763Y023100D02*
X021216Y023100D01*
X021216Y023219D02*
X023613Y023219D01*
X022049Y021086D02*
X020951Y021086D01*
X020951Y021204D02*
X021981Y021204D01*
X021913Y021323D02*
X020951Y021323D01*
X020951Y021441D02*
X021844Y021441D01*
X021822Y021560D02*
X020951Y021560D01*
X020951Y021678D02*
X021801Y021678D01*
X022061Y021066D02*
X022061Y021066D01*
X022178Y020967D02*
X020936Y020967D01*
X020877Y020849D02*
X022320Y020849D01*
X022545Y020730D02*
X020719Y020730D01*
X020276Y021376D02*
X020276Y022876D01*
X023004Y019545D02*
X023048Y019545D01*
X024124Y019545D02*
X026334Y019545D01*
X026452Y019427D02*
X024231Y019427D01*
X025039Y019308D02*
X026571Y019308D01*
X026689Y019190D02*
X025169Y019190D01*
X025288Y019071D02*
X026692Y019071D01*
X026691Y018953D02*
X025406Y018953D01*
X025525Y018834D02*
X026691Y018834D01*
X026717Y018716D02*
X025643Y018716D01*
X025726Y018597D02*
X026766Y018597D01*
X026832Y018479D02*
X025775Y018479D01*
X025776Y018360D02*
X026950Y018360D01*
X027154Y018242D02*
X025776Y018242D01*
X025776Y018123D02*
X029026Y018123D01*
X029026Y018005D02*
X025776Y018005D01*
X025776Y017886D02*
X029026Y017886D01*
X029026Y017768D02*
X025776Y017768D01*
X025776Y017649D02*
X029026Y017649D01*
X029026Y017531D02*
X025776Y017531D01*
X025776Y017412D02*
X029026Y017412D01*
X029026Y017294D02*
X025776Y017294D01*
X025776Y017175D02*
X029026Y017175D01*
X029026Y017057D02*
X025776Y017057D01*
X025776Y016938D02*
X029026Y016938D01*
X029026Y016820D02*
X025776Y016820D01*
X025745Y016701D02*
X029026Y016701D01*
X029026Y016583D02*
X025701Y016583D01*
X025701Y016464D02*
X029026Y016464D01*
X029026Y016346D02*
X025701Y016346D01*
X025690Y016227D02*
X029026Y016227D01*
X029026Y016109D02*
X025637Y016109D01*
X025493Y015990D02*
X029026Y015990D01*
X029026Y015872D02*
X024526Y015872D01*
X024526Y015990D02*
X024559Y015990D01*
X024526Y015753D02*
X029026Y015753D01*
X029026Y015635D02*
X024526Y015635D01*
X024526Y015516D02*
X024571Y015516D01*
X025481Y015516D02*
X029026Y015516D01*
X029026Y015398D02*
X025632Y015398D01*
X025688Y015279D02*
X029026Y015279D01*
X029026Y015161D02*
X025701Y015161D01*
X025701Y015042D02*
X029026Y015042D01*
X029026Y014924D02*
X025701Y014924D01*
X025701Y014805D02*
X029026Y014805D01*
X029026Y014687D02*
X025701Y014687D01*
X025701Y014568D02*
X029026Y014568D01*
X029026Y014450D02*
X025679Y014450D01*
X025610Y014331D02*
X029026Y014331D01*
X029026Y014213D02*
X025526Y014213D01*
X025526Y014094D02*
X029026Y014094D01*
X029026Y013976D02*
X025526Y013976D01*
X025526Y013857D02*
X029026Y013857D01*
X029026Y013739D02*
X025680Y013739D01*
X025743Y013620D02*
X029026Y013620D01*
X029026Y013502D02*
X025761Y013502D01*
X025761Y013383D02*
X029026Y013383D01*
X029026Y013265D02*
X025761Y013265D01*
X025761Y013146D02*
X029026Y013146D01*
X029026Y013028D02*
X025761Y013028D01*
X025761Y012909D02*
X029026Y012909D01*
X029026Y012791D02*
X025759Y012791D01*
X025710Y012672D02*
X029026Y012672D01*
X029026Y012554D02*
X025721Y012554D01*
X025761Y012435D02*
X029026Y012435D01*
X029026Y012317D02*
X025761Y012317D01*
X025761Y012198D02*
X029026Y012198D01*
X029026Y012080D02*
X025761Y012080D01*
X025761Y011961D02*
X029026Y011961D01*
X029026Y011843D02*
X025761Y011843D01*
X025761Y011724D02*
X029026Y011724D01*
X029026Y011606D02*
X025732Y011606D01*
X025655Y011487D02*
X029026Y011487D01*
X029026Y011369D02*
X025584Y011369D01*
X025584Y011250D02*
X029026Y011250D01*
X029026Y011132D02*
X025584Y011132D01*
X025539Y011013D02*
X029026Y011013D01*
X029026Y010895D02*
X025439Y010895D01*
X024614Y010895D02*
X024216Y010895D01*
X024216Y011013D02*
X024513Y011013D01*
X024468Y011132D02*
X024216Y011132D01*
X024216Y011250D02*
X024468Y011250D01*
X024468Y011369D02*
X024216Y011369D01*
X024216Y011487D02*
X024398Y011487D01*
X024320Y011606D02*
X024216Y011606D01*
X024216Y011724D02*
X024291Y011724D01*
X024291Y011843D02*
X024216Y011843D01*
X024216Y011961D02*
X024291Y011961D01*
X024291Y012080D02*
X024216Y012080D01*
X024216Y012198D02*
X024291Y012198D01*
X024291Y012317D02*
X024216Y012317D01*
X024216Y012435D02*
X024291Y012435D01*
X024332Y012554D02*
X024216Y012554D01*
X024216Y012672D02*
X024342Y012672D01*
X024293Y012791D02*
X024216Y012791D01*
X024216Y012909D02*
X024291Y012909D01*
X024291Y013028D02*
X024216Y013028D01*
X024216Y013146D02*
X024291Y013146D01*
X024291Y013265D02*
X024216Y013265D01*
X024216Y013383D02*
X024291Y013383D01*
X024291Y013502D02*
X024216Y013502D01*
X024216Y013620D02*
X024310Y013620D01*
X024372Y013739D02*
X024216Y013739D01*
X024216Y013857D02*
X024526Y013857D01*
X024526Y013976D02*
X024216Y013976D01*
X024216Y014094D02*
X024526Y014094D01*
X024526Y014213D02*
X024427Y014213D01*
X023336Y014213D02*
X022809Y014213D01*
X022826Y014225D02*
X022877Y014276D01*
X022920Y014334D01*
X022952Y014399D01*
X022975Y014468D01*
X022986Y014539D01*
X022986Y014836D01*
X022566Y014836D01*
X022566Y014116D01*
X022634Y014127D01*
X022703Y014149D01*
X022767Y014182D01*
X022826Y014225D01*
X022917Y014331D02*
X023336Y014331D01*
X023336Y014450D02*
X022969Y014450D01*
X022986Y014568D02*
X023336Y014568D01*
X023336Y014687D02*
X022986Y014687D01*
X022986Y014805D02*
X023336Y014805D01*
X023336Y014924D02*
X022986Y014924D01*
X022986Y014916D02*
X022986Y015212D01*
X022975Y015283D01*
X022952Y015352D01*
X022920Y015417D01*
X022877Y015475D01*
X022826Y015526D01*
X022767Y015569D01*
X022703Y015602D01*
X022634Y015624D01*
X022566Y015635D01*
X022566Y014916D01*
X022986Y014916D01*
X022986Y015042D02*
X023336Y015042D01*
X023336Y015161D02*
X022986Y015161D01*
X022976Y015279D02*
X023336Y015279D01*
X023336Y015398D02*
X022929Y015398D01*
X022836Y015516D02*
X023336Y015516D01*
X023336Y015635D02*
X022569Y015635D01*
X022566Y015635D02*
X022486Y015635D01*
X022484Y015635D02*
X022029Y015635D01*
X022026Y015753D02*
X023336Y015753D01*
X023336Y015872D02*
X022026Y015872D01*
X022026Y015990D02*
X023336Y015990D01*
X023336Y016109D02*
X022026Y016109D01*
X022026Y016227D02*
X022608Y016227D01*
X022571Y016346D02*
X022026Y016346D01*
X022026Y016464D02*
X022571Y016464D01*
X022571Y016583D02*
X022026Y016583D01*
X023007Y016583D02*
X023045Y016583D01*
X023045Y016464D02*
X023007Y016464D01*
X023007Y016346D02*
X023045Y016346D01*
X023045Y016227D02*
X023007Y016227D01*
X022566Y015516D02*
X022486Y015516D01*
X022486Y015398D02*
X022566Y015398D01*
X022566Y015279D02*
X022486Y015279D01*
X022486Y015161D02*
X022566Y015161D01*
X022566Y015042D02*
X022486Y015042D01*
X022486Y014924D02*
X022566Y014924D01*
X022566Y014805D02*
X022486Y014805D01*
X022486Y014687D02*
X022566Y014687D01*
X022566Y014568D02*
X022486Y014568D01*
X022486Y014450D02*
X022566Y014450D01*
X022566Y014331D02*
X022486Y014331D01*
X022486Y014213D02*
X022566Y014213D01*
X022243Y014213D02*
X022112Y014213D01*
X022006Y014094D02*
X023336Y014094D01*
X023336Y013976D02*
X021855Y013976D01*
X022121Y015516D02*
X022216Y015516D01*
X023336Y013857D02*
X019526Y013857D01*
X019526Y013739D02*
X023336Y013739D01*
X023336Y013620D02*
X019526Y013620D01*
X019607Y013502D02*
X023336Y013502D01*
X024216Y010776D02*
X029026Y010776D01*
X029026Y010658D02*
X024216Y010658D01*
X024216Y010539D02*
X028940Y010539D01*
X028821Y010421D02*
X024168Y010421D01*
X024075Y010302D02*
X028703Y010302D01*
X028584Y010184D02*
X010468Y010184D01*
X010587Y010065D02*
X028466Y010065D01*
X028347Y009947D02*
X010705Y009947D01*
X014481Y015516D02*
X014526Y015516D01*
X014526Y015497D02*
X014526Y015497D01*
X014526Y015635D02*
X010026Y015635D01*
X010026Y015753D02*
X014526Y015753D01*
X014526Y015872D02*
X010026Y015872D01*
X014493Y015990D02*
X014526Y015990D01*
X015966Y013976D02*
X017198Y013976D01*
X019526Y014213D02*
X019626Y014213D01*
X019726Y013383D02*
X020150Y013383D01*
X021302Y008626D02*
X017420Y008626D01*
X017420Y008626D01*
X017280Y008684D01*
X016772Y008684D01*
X016633Y008626D01*
X016633Y008626D01*
X015927Y008626D01*
X015743Y008549D01*
X015602Y008409D01*
X015102Y007909D01*
X015026Y007725D01*
X015026Y004818D01*
X015026Y008126D01*
X015776Y008876D01*
X022261Y008876D01*
X022261Y008745D01*
X022398Y008745D01*
X022448Y008625D01*
X022261Y008625D01*
X022261Y008349D01*
X022272Y008309D01*
X022293Y008272D01*
X022317Y008249D01*
X022206Y008203D01*
X022127Y008124D01*
X022110Y008124D01*
X021684Y008549D01*
X021501Y008626D01*
X021302Y008626D01*
X021709Y008525D02*
X022261Y008525D01*
X022261Y008406D02*
X021828Y008406D01*
X021946Y008288D02*
X022284Y008288D01*
X022172Y008169D02*
X022065Y008169D01*
X022441Y008643D02*
X017378Y008643D01*
X016674Y008643D02*
X015544Y008643D01*
X015662Y008762D02*
X022261Y008762D01*
X022716Y008295D02*
X022716Y008261D01*
X022750Y008261D01*
X022716Y008295D01*
X022716Y008288D02*
X022723Y008288D01*
X023511Y007553D02*
X023511Y007175D01*
X023453Y007036D01*
X023346Y006929D01*
X023276Y006900D01*
X023276Y004517D01*
X023310Y004482D01*
X023406Y004251D01*
X023406Y004000D01*
X023310Y003769D01*
X023276Y003735D01*
X023276Y003526D01*
X023200Y003342D01*
X023059Y003202D01*
X022559Y002702D01*
X022376Y002626D01*
X021218Y002626D01*
X021193Y002566D01*
X021086Y002459D01*
X020946Y002401D01*
X020106Y002401D01*
X020026Y002434D01*
X019946Y002401D01*
X019106Y002401D01*
X019026Y002434D01*
X018946Y002401D01*
X018437Y002401D01*
X018376Y002376D01*
X017502Y002376D01*
X017473Y002305D01*
X017366Y002199D01*
X017227Y002141D01*
X016445Y002141D01*
X016306Y002199D01*
X016276Y002228D01*
X016247Y002199D01*
X016107Y002141D01*
X015326Y002141D01*
X015186Y002199D01*
X015079Y002305D01*
X015026Y002433D01*
X015026Y002126D01*
X023776Y002126D01*
X023026Y001376D01*
X015776Y001376D01*
X015026Y002126D01*
X015026Y002244D02*
X015141Y002244D01*
X015056Y002363D02*
X015026Y002363D01*
X015145Y002007D02*
X023658Y002007D01*
X023776Y002126D02*
X023776Y007496D01*
X023651Y007496D01*
X023511Y007553D01*
X023511Y007458D02*
X023776Y007458D01*
X023776Y007340D02*
X023511Y007340D01*
X023511Y007221D02*
X023776Y007221D01*
X023776Y007103D02*
X023481Y007103D01*
X023402Y006984D02*
X023776Y006984D01*
X023776Y006866D02*
X023276Y006866D01*
X023276Y006747D02*
X023776Y006747D01*
X023776Y006629D02*
X023276Y006629D01*
X023276Y006510D02*
X023776Y006510D01*
X023776Y006392D02*
X023276Y006392D01*
X023276Y006273D02*
X023776Y006273D01*
X023776Y006155D02*
X023276Y006155D01*
X023276Y006036D02*
X023776Y006036D01*
X023776Y005918D02*
X023276Y005918D01*
X023276Y005799D02*
X023776Y005799D01*
X023776Y005681D02*
X023276Y005681D01*
X023276Y005562D02*
X023776Y005562D01*
X023776Y005444D02*
X023276Y005444D01*
X023276Y005325D02*
X023776Y005325D01*
X023776Y005207D02*
X023276Y005207D01*
X023276Y005088D02*
X023776Y005088D01*
X023776Y004970D02*
X023276Y004970D01*
X023276Y004851D02*
X023776Y004851D01*
X023776Y004733D02*
X023276Y004733D01*
X023276Y004614D02*
X023776Y004614D01*
X023776Y004496D02*
X023297Y004496D01*
X023354Y004377D02*
X023776Y004377D01*
X023776Y004259D02*
X023403Y004259D01*
X023406Y004140D02*
X023776Y004140D01*
X023776Y004022D02*
X023406Y004022D01*
X023366Y003903D02*
X023776Y003903D01*
X023776Y003785D02*
X023317Y003785D01*
X023276Y003666D02*
X023776Y003666D01*
X023776Y003548D02*
X023276Y003548D01*
X023236Y003429D02*
X023776Y003429D01*
X023776Y003311D02*
X023168Y003311D01*
X023050Y003192D02*
X023776Y003192D01*
X023776Y003074D02*
X022931Y003074D01*
X022813Y002955D02*
X023776Y002955D01*
X023776Y002837D02*
X022694Y002837D01*
X022576Y002718D02*
X023776Y002718D01*
X023776Y002600D02*
X021207Y002600D01*
X021108Y002481D02*
X023776Y002481D01*
X023776Y002363D02*
X017497Y002363D01*
X017412Y002244D02*
X023776Y002244D01*
X023539Y001889D02*
X015263Y001889D01*
X015382Y001770D02*
X023421Y001770D01*
X023302Y001652D02*
X015500Y001652D01*
X015619Y001533D02*
X023184Y001533D01*
X023065Y001415D02*
X015737Y001415D01*
X015026Y003318D02*
X015026Y003318D01*
X015026Y003933D01*
X015026Y003318D01*
X016026Y003611D02*
X016026Y003641D01*
X016107Y003641D01*
X016247Y003699D01*
X016276Y003728D01*
X016306Y003699D01*
X016445Y003641D01*
X017227Y003641D01*
X017366Y003699D01*
X017473Y003805D01*
X017502Y003876D01*
X017802Y003876D01*
X017802Y003706D01*
X017835Y003626D01*
X017802Y003546D01*
X017802Y003376D01*
X017502Y003376D01*
X017473Y003446D01*
X017366Y003553D01*
X017227Y003611D01*
X016445Y003611D01*
X016306Y003553D01*
X016276Y003523D01*
X016247Y003553D01*
X016107Y003611D01*
X016026Y003611D01*
X016168Y003666D02*
X016384Y003666D01*
X016301Y003548D02*
X016252Y003548D01*
X017288Y003666D02*
X017818Y003666D01*
X017802Y003548D02*
X017371Y003548D01*
X017480Y003429D02*
X017802Y003429D01*
X017802Y003785D02*
X017452Y003785D01*
X017502Y004876D02*
X017473Y004946D01*
X017366Y005053D01*
X017227Y005111D01*
X016445Y005111D01*
X016306Y005053D01*
X016276Y005023D01*
X016247Y005053D01*
X016107Y005111D01*
X016026Y005111D01*
X016026Y007418D01*
X016233Y007626D01*
X016633Y007626D01*
X016633Y007625D01*
X016772Y007567D01*
X017280Y007567D01*
X017420Y007625D01*
X017420Y007626D01*
X019573Y007626D01*
X019526Y007579D01*
X019468Y007439D01*
X019468Y007078D01*
X019456Y007073D01*
X019349Y006966D01*
X019291Y006826D01*
X019291Y006045D01*
X019349Y005905D01*
X019379Y005876D01*
X019349Y005846D01*
X019291Y005706D01*
X019291Y005288D01*
X019243Y005240D01*
X019102Y005099D01*
X019026Y004915D01*
X019026Y004817D01*
X018946Y004850D01*
X018437Y004850D01*
X018376Y004876D01*
X017502Y004876D01*
X017449Y004970D02*
X019049Y004970D01*
X019026Y004851D02*
X018435Y004851D01*
X019026Y004817D02*
X019026Y004817D01*
X019098Y005088D02*
X017281Y005088D01*
X016391Y005088D02*
X016161Y005088D01*
X016026Y005207D02*
X019210Y005207D01*
X019291Y005325D02*
X016026Y005325D01*
X016026Y005444D02*
X019291Y005444D01*
X019291Y005562D02*
X016026Y005562D01*
X016026Y005681D02*
X019291Y005681D01*
X019330Y005799D02*
X016026Y005799D01*
X016026Y005918D02*
X019344Y005918D01*
X019295Y006036D02*
X016026Y006036D01*
X016026Y006155D02*
X019291Y006155D01*
X019291Y006273D02*
X016026Y006273D01*
X016026Y006392D02*
X019291Y006392D01*
X019291Y006510D02*
X016026Y006510D01*
X016026Y006629D02*
X019291Y006629D01*
X019291Y006747D02*
X016026Y006747D01*
X016026Y006866D02*
X019308Y006866D01*
X019368Y006984D02*
X016026Y006984D01*
X016026Y007103D02*
X019468Y007103D01*
X019468Y007221D02*
X016026Y007221D01*
X016026Y007340D02*
X019468Y007340D01*
X019476Y007458D02*
X016066Y007458D01*
X016184Y007577D02*
X016750Y007577D01*
X017302Y007577D02*
X019525Y007577D01*
X020480Y007626D02*
X021194Y007626D01*
X021468Y007352D01*
X021468Y007312D01*
X021526Y007172D01*
X021633Y007065D01*
X021772Y007008D01*
X022127Y007008D01*
X022206Y006929D01*
X022276Y006900D01*
X022276Y004756D01*
X020673Y004756D01*
X020703Y004786D01*
X020761Y004925D01*
X020761Y005706D01*
X020703Y005846D01*
X020674Y005876D01*
X020703Y005905D01*
X020761Y006045D01*
X020761Y006826D01*
X020703Y006966D01*
X020596Y007073D01*
X020584Y007078D01*
X020584Y007439D01*
X020526Y007579D01*
X020480Y007626D01*
X020527Y007577D02*
X021243Y007577D01*
X021362Y007458D02*
X020576Y007458D01*
X020584Y007340D02*
X021468Y007340D01*
X021506Y007221D02*
X020584Y007221D01*
X020584Y007103D02*
X021596Y007103D01*
X022151Y006984D02*
X020685Y006984D01*
X020745Y006866D02*
X022276Y006866D01*
X022276Y006747D02*
X020761Y006747D01*
X020761Y006629D02*
X022276Y006629D01*
X022276Y006510D02*
X020761Y006510D01*
X020761Y006392D02*
X022276Y006392D01*
X022276Y006273D02*
X020761Y006273D01*
X020761Y006155D02*
X022276Y006155D01*
X022276Y006036D02*
X020757Y006036D01*
X020708Y005918D02*
X022276Y005918D01*
X022276Y005799D02*
X020723Y005799D01*
X020761Y005681D02*
X022276Y005681D01*
X022276Y005562D02*
X020761Y005562D01*
X020761Y005444D02*
X022276Y005444D01*
X022276Y005325D02*
X020761Y005325D01*
X020761Y005207D02*
X022276Y005207D01*
X022276Y005088D02*
X020761Y005088D01*
X020761Y004970D02*
X022276Y004970D01*
X022276Y004851D02*
X020730Y004851D01*
X015718Y008525D02*
X015425Y008525D01*
X015307Y008406D02*
X015600Y008406D01*
X015481Y008288D02*
X015188Y008288D01*
X015070Y008169D02*
X015363Y008169D01*
X015244Y008051D02*
X015026Y008051D01*
X015026Y007932D02*
X015126Y007932D01*
X015063Y007814D02*
X015026Y007814D01*
X024281Y018056D02*
X024223Y018196D01*
X024168Y018251D01*
X024223Y018305D01*
X024252Y018376D01*
X024569Y018376D01*
X024776Y018168D01*
X024776Y017301D01*
X024655Y017301D01*
X024526Y017247D01*
X024526Y017285D01*
X024450Y017469D01*
X024281Y017638D01*
X024281Y018056D01*
X024281Y018005D02*
X024776Y018005D01*
X024776Y018123D02*
X024253Y018123D01*
X024177Y018242D02*
X024703Y018242D01*
X024585Y018360D02*
X024246Y018360D01*
X024281Y017886D02*
X024776Y017886D01*
X024776Y017768D02*
X024281Y017768D01*
X024281Y017649D02*
X024776Y017649D01*
X024776Y017531D02*
X024388Y017531D01*
X024473Y017412D02*
X024776Y017412D01*
X024638Y017294D02*
X024523Y017294D01*
X027382Y020138D02*
X029026Y020138D01*
X029026Y020256D02*
X028509Y020256D01*
X028648Y020375D02*
X029026Y020375D01*
X029026Y020493D02*
X028757Y020493D01*
X028806Y020612D02*
X029026Y020612D01*
X029026Y020730D02*
X028855Y020730D01*
X028861Y020849D02*
X029026Y020849D01*
X029026Y020967D02*
X028861Y020967D01*
X028841Y021086D02*
X029026Y021086D01*
X029026Y021204D02*
X028792Y021204D01*
X028733Y021323D02*
X029026Y021323D01*
X029026Y021441D02*
X028615Y021441D01*
X028429Y021560D02*
X029026Y021560D01*
X029026Y021678D02*
X027794Y021678D01*
X027675Y021797D02*
X029026Y021797D01*
X029026Y021915D02*
X027557Y021915D01*
X027438Y022034D02*
X029026Y022034D01*
X029026Y022152D02*
X028334Y022152D01*
X028575Y022271D02*
X029026Y022271D01*
X029026Y022389D02*
X028694Y022389D01*
X028776Y022508D02*
X029026Y022508D01*
X029026Y022626D02*
X028825Y022626D01*
X028861Y022745D02*
X029026Y022745D01*
X029026Y022863D02*
X028861Y022863D01*
X028861Y022982D02*
X029026Y022982D01*
X029026Y023100D02*
X028822Y023100D01*
X028773Y023219D02*
X029026Y023219D01*
X029026Y023337D02*
X028687Y023337D01*
X028569Y023456D02*
X029026Y023456D01*
X029026Y023574D02*
X028318Y023574D01*
X028445Y024167D02*
X029026Y024167D01*
X029026Y024285D02*
X028621Y024285D01*
X028740Y024404D02*
X029026Y024404D01*
X029026Y024522D02*
X028795Y024522D01*
X028844Y024641D02*
X029026Y024641D01*
X029026Y024759D02*
X028861Y024759D01*
X028861Y024878D02*
X029026Y024878D01*
X029026Y024996D02*
X028852Y024996D01*
X028803Y025115D02*
X029026Y025115D01*
X029026Y025233D02*
X028754Y025233D01*
X028641Y025352D02*
X029026Y025352D01*
X029026Y025470D02*
X028493Y025470D01*
X029026Y024048D02*
X026424Y024048D01*
X026542Y023930D02*
X029026Y023930D01*
X029026Y023811D02*
X026661Y023811D01*
X026779Y023693D02*
X029026Y023693D01*
X027234Y023574D02*
X026898Y023574D01*
X027107Y024167D02*
X026305Y024167D01*
X026187Y024285D02*
X026931Y024285D01*
X027166Y027603D02*
X027341Y027603D01*
X027186Y027722D02*
X027166Y027722D01*
X027500Y020019D02*
X029026Y020019D01*
X029026Y019901D02*
X027619Y019901D01*
X027737Y019782D02*
X029026Y019782D01*
X029026Y019664D02*
X027856Y019664D01*
X028540Y019545D02*
X029026Y019545D01*
X029026Y019427D02*
X028661Y019427D01*
X028762Y019308D02*
X029026Y019308D01*
X029026Y019190D02*
X028811Y019190D01*
X028860Y019071D02*
X029026Y019071D01*
X029026Y018953D02*
X028861Y018953D01*
X028861Y018834D02*
X029026Y018834D01*
X029026Y018716D02*
X028836Y018716D01*
X028787Y018597D02*
X029026Y018597D01*
X029026Y018479D02*
X028720Y018479D01*
X028602Y018360D02*
X029026Y018360D01*
X029026Y018242D02*
X028398Y018242D01*
D31*
X023276Y022126D02*
X023276Y022626D01*
X023776Y021876D02*
X023758Y021823D01*
X023737Y021772D01*
X023711Y021722D01*
X023683Y021675D01*
X023651Y021629D01*
X023616Y021586D01*
X023578Y021546D01*
X023537Y021508D01*
X023493Y021473D01*
X023447Y021442D01*
X023399Y021414D01*
X023350Y021389D01*
X023298Y021368D01*
X023245Y021350D01*
X023192Y021337D01*
X023137Y021327D01*
X023082Y021321D01*
X023026Y021319D01*
X022970Y021321D01*
X022915Y021327D01*
X022860Y021337D01*
X022807Y021350D01*
X022754Y021368D01*
X022702Y021389D01*
X022653Y021414D01*
X022605Y021442D01*
X022559Y021473D01*
X022515Y021508D01*
X022474Y021546D01*
X022436Y021586D01*
X022401Y021629D01*
X022369Y021675D01*
X022341Y021722D01*
X022315Y021772D01*
X022294Y021823D01*
X022276Y021876D01*
X022776Y022126D02*
X022776Y022626D01*
X021526Y023626D02*
X021526Y021376D01*
X020776Y020626D01*
X019276Y020626D01*
X019276Y021376D01*
X019276Y020626D02*
X018026Y020626D01*
X015026Y023626D01*
X015026Y027501D01*
X015776Y025376D02*
X015776Y024376D01*
X018276Y021876D01*
X018276Y021376D01*
X018776Y022376D02*
X016776Y024376D01*
X016776Y025376D01*
X017276Y024876D02*
X019776Y022376D01*
X020276Y022876D02*
X017776Y025376D01*
X018776Y025376D02*
X020776Y023376D01*
X021526Y023626D02*
X019526Y025626D01*
X019526Y027501D01*
D32*
X009684Y031968D03*
X029369Y031968D03*
X029369Y002409D03*
X009684Y002409D03*
M02*
