G75*
%MOIN*%
%OFA0B0*%
%FSLAX24Y24*%
%IPPOS*%
%LPD*%
%AMOC8*
5,1,8,0,0,1.08239X$1,22.5*
%
%ADD10C,0.0000*%
%ADD11C,0.0080*%
%ADD12C,0.0150*%
%ADD13C,0.0110*%
%ADD14C,0.0040*%
%ADD15C,0.0320*%
%ADD16C,0.0060*%
%ADD17C,0.0050*%
%ADD18C,0.0120*%
%ADD19C,0.0100*%
%ADD20R,0.0250X0.0900*%
%ADD21C,0.0200*%
%ADD22R,0.0750X0.0500*%
%ADD23R,0.0700X0.0300*%
%ADD24R,0.0300X0.0500*%
%ADD25C,0.0020*%
%ADD26C,0.0070*%
%ADD27R,0.0200X0.0200*%
D10*
X007676Y000126D02*
X007676Y033501D01*
X031376Y033501D01*
X031376Y000126D01*
X007676Y000126D01*
D11*
X017483Y008616D02*
X021569Y008616D01*
X028315Y008963D02*
X028469Y008809D01*
X028315Y008963D02*
X028315Y009270D01*
X028469Y009423D01*
X028622Y009423D01*
X029236Y008809D01*
X029236Y009423D01*
X028776Y009730D02*
X028776Y010344D01*
X029083Y010651D02*
X029083Y010804D01*
X029236Y010804D01*
X029236Y010651D01*
X029083Y010651D01*
X029236Y010190D02*
X028315Y010190D01*
X028776Y009730D01*
X029815Y009730D02*
X030736Y009730D01*
X030429Y010037D01*
X030736Y010344D01*
X029815Y010344D01*
X030122Y010804D02*
X030122Y011111D01*
X030276Y011265D01*
X030429Y011265D01*
X030429Y010651D01*
X030276Y010651D02*
X030583Y010651D01*
X030736Y010804D01*
X030736Y011111D01*
X030736Y011571D02*
X030736Y011878D01*
X030736Y011725D02*
X030122Y011725D01*
X030122Y011571D01*
X029815Y011725D02*
X029662Y011725D01*
X030276Y012185D02*
X030122Y012339D01*
X030122Y012799D01*
X030429Y012646D02*
X030429Y012339D01*
X030276Y012185D01*
X030429Y012646D02*
X030583Y012799D01*
X030736Y012646D01*
X030736Y012185D01*
X030736Y013106D02*
X030736Y013567D01*
X030583Y013720D01*
X030429Y013567D01*
X030429Y013260D01*
X030276Y013106D01*
X030122Y013260D01*
X030122Y013720D01*
X030122Y014027D02*
X030122Y014180D01*
X030736Y014180D01*
X030736Y014027D02*
X030736Y014334D01*
X030583Y014641D02*
X030736Y014794D01*
X030736Y015255D01*
X030890Y015255D02*
X030122Y015255D01*
X030122Y014794D01*
X030276Y014641D01*
X030583Y014641D01*
X031043Y014948D02*
X031043Y015101D01*
X030890Y015255D01*
X029815Y014180D02*
X029662Y014180D01*
X029236Y014027D02*
X029236Y013413D01*
X028622Y014027D01*
X028469Y014027D01*
X028315Y013873D01*
X028315Y013567D01*
X028469Y013413D01*
X029083Y013106D02*
X029236Y013106D01*
X029236Y012953D01*
X029083Y012953D01*
X029083Y013106D01*
X029236Y012646D02*
X029236Y012032D01*
X029236Y012339D02*
X028315Y012339D01*
X028622Y012032D01*
X028315Y011418D02*
X029236Y011418D01*
X029236Y011111D02*
X029236Y011725D01*
X028622Y011111D02*
X028315Y011418D01*
X030122Y010804D02*
X030276Y010651D01*
X030122Y008502D02*
X030122Y008349D01*
X030429Y008042D01*
X030736Y008042D02*
X030122Y008042D01*
X030276Y007735D02*
X030429Y007735D01*
X030429Y007121D01*
X030276Y007121D02*
X030583Y007121D01*
X030736Y007274D01*
X030736Y007581D01*
X030276Y007735D02*
X030122Y007581D01*
X030122Y007274D01*
X030276Y007121D01*
X030122Y006814D02*
X030122Y006507D01*
X029969Y006661D02*
X030583Y006661D01*
X030736Y006814D01*
X030429Y006200D02*
X030276Y006200D01*
X030122Y006047D01*
X030122Y005740D01*
X030276Y005586D01*
X030583Y005586D01*
X030736Y005740D01*
X030736Y006047D01*
X030429Y006200D02*
X030429Y005586D01*
X030276Y005279D02*
X030429Y005126D01*
X030429Y004666D01*
X030736Y004666D02*
X029815Y004666D01*
X029815Y005126D01*
X029969Y005279D01*
X030276Y005279D01*
X029236Y004973D02*
X028929Y005279D01*
X028315Y005279D01*
X028469Y005586D02*
X028315Y005740D01*
X028315Y006047D01*
X028469Y006200D01*
X028622Y006200D01*
X029236Y005586D01*
X029236Y006200D01*
X029236Y006507D02*
X029236Y006661D01*
X029083Y006661D01*
X029083Y006507D01*
X029236Y006507D01*
X029083Y006968D02*
X028469Y007581D01*
X029083Y007581D01*
X029236Y007428D01*
X029236Y007121D01*
X029083Y006968D01*
X028469Y006968D01*
X028315Y007121D01*
X028315Y007428D01*
X028469Y007581D01*
X029236Y004973D02*
X028929Y004666D01*
X028315Y004666D01*
X028469Y014334D02*
X028315Y014487D01*
X028315Y014794D01*
X028469Y014948D01*
X029083Y014334D01*
X029236Y014487D01*
X029236Y014794D01*
X029083Y014948D01*
X028469Y014948D01*
X028622Y015255D02*
X028315Y015562D01*
X029236Y015562D01*
X029236Y015868D02*
X029236Y015255D01*
X029083Y016175D02*
X029236Y016329D01*
X029236Y016636D01*
X029083Y016789D01*
X028469Y016789D01*
X028315Y016636D01*
X028315Y016329D01*
X028469Y016175D01*
X028622Y016175D01*
X028776Y016329D01*
X028776Y016789D01*
X029083Y014334D02*
X028469Y014334D01*
X021388Y020931D02*
X017664Y020931D01*
X017664Y022820D01*
X021388Y022820D01*
X021388Y020931D01*
X021428Y021246D02*
X021585Y021246D01*
X021585Y021403D01*
X021428Y021403D01*
X021428Y021600D02*
X021585Y021600D01*
X021585Y022151D01*
X021428Y022151D01*
X021428Y022348D02*
X021585Y022348D01*
X021585Y022506D01*
X021428Y022506D01*
X021073Y022663D02*
X017979Y022663D01*
X017979Y021088D01*
X021073Y021088D01*
X021073Y022663D01*
X017625Y022506D02*
X017467Y022506D01*
X017467Y022348D01*
X017625Y022348D01*
X017625Y022151D02*
X017467Y022151D01*
X017467Y021600D01*
X017625Y021600D01*
X017625Y021403D02*
X017467Y021403D01*
X017467Y021246D01*
X017625Y021246D01*
D12*
X017736Y020551D02*
X018020Y020268D01*
X018020Y019701D01*
X018373Y019842D02*
X018373Y020268D01*
X018020Y020126D02*
X017453Y020126D01*
X017453Y020268D02*
X017736Y020551D01*
X017453Y020268D02*
X017453Y019701D01*
X018373Y019842D02*
X018515Y019701D01*
X018941Y019701D01*
X018941Y020268D01*
X019294Y020126D02*
X019294Y019842D01*
X019436Y019701D01*
X019861Y019701D01*
X019861Y020551D01*
X019861Y020268D02*
X019436Y020268D01*
X019294Y020126D01*
X020215Y020268D02*
X020357Y020268D01*
X020357Y019701D01*
X020215Y019701D02*
X020499Y019701D01*
X020829Y019842D02*
X020829Y020126D01*
X020971Y020268D01*
X021254Y020268D01*
X021396Y020126D01*
X021396Y019842D01*
X021254Y019701D01*
X020971Y019701D01*
X020829Y019842D01*
X020357Y020551D02*
X020357Y020693D01*
X024350Y020553D02*
X024492Y020411D01*
X024350Y020553D02*
X024350Y020836D01*
X024492Y020978D01*
X024634Y020978D01*
X024776Y020836D01*
X024918Y020978D01*
X025059Y020978D01*
X025201Y020836D01*
X025201Y020553D01*
X025059Y020411D01*
X025201Y020057D02*
X024776Y020057D01*
X024634Y019916D01*
X024634Y019632D01*
X024776Y019490D01*
X025201Y019490D02*
X024350Y019490D01*
X024492Y019137D02*
X024350Y018995D01*
X024350Y018711D01*
X024492Y018569D01*
X025059Y018569D01*
X025201Y018711D01*
X025201Y018995D01*
X025059Y019137D01*
X024776Y020695D02*
X024776Y020836D01*
X025059Y022569D02*
X024492Y022569D01*
X024350Y022711D01*
X024350Y022995D01*
X024492Y023137D01*
X024350Y023490D02*
X025201Y023490D01*
X025059Y023137D02*
X025201Y022995D01*
X025201Y022711D01*
X025059Y022569D01*
X024776Y023490D02*
X024634Y023632D01*
X024634Y023916D01*
X024776Y024057D01*
X025201Y024057D01*
X025201Y024836D02*
X024350Y024836D01*
X024776Y024411D01*
X024776Y024978D01*
X014883Y025040D02*
X014883Y024756D01*
X014741Y024615D01*
X014883Y024261D02*
X014032Y024261D01*
X014174Y024615D02*
X014032Y024756D01*
X014032Y025040D01*
X014174Y025182D01*
X014741Y025182D01*
X014883Y025040D01*
X014458Y024261D02*
X014599Y024119D01*
X014599Y023836D01*
X014458Y023694D01*
X014032Y023694D01*
X014032Y023340D02*
X014599Y022773D01*
X014741Y022773D01*
X014883Y022915D01*
X014883Y023198D01*
X014741Y023340D01*
X014032Y023340D02*
X014032Y022773D01*
X014174Y021182D02*
X014032Y021040D01*
X014032Y020756D01*
X014174Y020615D01*
X014032Y020261D02*
X014883Y020261D01*
X014599Y020119D02*
X014599Y019836D01*
X014458Y019694D01*
X014032Y019694D01*
X014032Y019340D02*
X014032Y018773D01*
X014032Y019057D02*
X014883Y019057D01*
X014599Y019340D01*
X014599Y020119D02*
X014458Y020261D01*
X014741Y020615D02*
X014883Y020756D01*
X014883Y021040D01*
X014741Y021182D01*
X014174Y021182D01*
X016904Y001551D02*
X016762Y001410D01*
X016762Y000842D01*
X016904Y000701D01*
X017187Y000701D01*
X017329Y000842D01*
X017683Y000842D02*
X017683Y001126D01*
X017825Y001268D01*
X018108Y001268D01*
X018250Y001126D01*
X018250Y000842D01*
X018108Y000701D01*
X017825Y000701D01*
X017683Y000842D01*
X017329Y001410D02*
X017187Y001551D01*
X016904Y001551D01*
X018604Y001268D02*
X018604Y000701D01*
X018604Y001268D02*
X019029Y001268D01*
X019171Y001126D01*
X019171Y000701D01*
X019666Y000842D02*
X019808Y000701D01*
X019666Y000842D02*
X019666Y001410D01*
X019524Y001268D02*
X019808Y001268D01*
X020138Y001268D02*
X020138Y000701D01*
X020138Y000984D02*
X020422Y001268D01*
X020564Y001268D01*
X020906Y001126D02*
X020906Y000842D01*
X021047Y000701D01*
X021331Y000701D01*
X021473Y000842D01*
X021473Y001126D01*
X021331Y001268D01*
X021047Y001268D01*
X020906Y001126D01*
X021826Y001551D02*
X021968Y001551D01*
X021968Y000701D01*
X021826Y000701D02*
X022110Y000701D01*
D13*
X016126Y011734D02*
X016028Y011734D01*
X016126Y011734D02*
X016225Y011832D01*
X016225Y012324D01*
X016225Y011931D02*
X015930Y011931D01*
X015831Y012029D01*
X015831Y012324D01*
X015580Y012226D02*
X015482Y012324D01*
X015187Y012324D01*
X015187Y012521D02*
X015187Y011931D01*
X015482Y011931D01*
X015580Y012029D01*
X015580Y012226D01*
X015473Y012981D02*
X015178Y012981D01*
X015079Y013079D01*
X015178Y013177D01*
X015473Y013177D01*
X015473Y013276D02*
X015473Y012981D01*
X015724Y012981D02*
X015724Y013374D01*
X016019Y013374D01*
X016117Y013276D01*
X016117Y012981D01*
X016368Y013079D02*
X016368Y013276D01*
X016467Y013374D01*
X016762Y013374D01*
X016762Y013571D02*
X016762Y012981D01*
X016467Y012981D01*
X016368Y013079D01*
X017013Y013276D02*
X017407Y013276D01*
X018381Y013276D02*
X018578Y013276D01*
X018775Y013571D02*
X018381Y013571D01*
X018381Y012981D01*
X018775Y012981D01*
X019025Y012981D02*
X019025Y013374D01*
X019025Y013177D02*
X019222Y013374D01*
X019321Y013374D01*
X019563Y013374D02*
X019563Y012981D01*
X019563Y013177D02*
X019759Y013374D01*
X019858Y013374D01*
X020100Y013276D02*
X020100Y013079D01*
X020198Y012981D01*
X020395Y012981D01*
X020493Y013079D01*
X020493Y013276D01*
X020395Y013374D01*
X020198Y013374D01*
X020100Y013276D01*
X020744Y013374D02*
X020744Y012981D01*
X020744Y013177D02*
X020941Y013374D01*
X021040Y013374D01*
X022400Y013571D02*
X022400Y012981D01*
X022793Y012981D02*
X022793Y013571D01*
X022596Y013374D01*
X022400Y013571D01*
X023044Y013374D02*
X023044Y013079D01*
X023142Y012981D01*
X023438Y012981D01*
X023438Y013374D01*
X023689Y013374D02*
X023885Y013374D01*
X023787Y013473D02*
X023787Y013079D01*
X023885Y012981D01*
X024118Y013079D02*
X024118Y013276D01*
X024217Y013374D01*
X024414Y013374D01*
X024512Y013276D01*
X024512Y013177D01*
X024118Y013177D01*
X024118Y013079D02*
X024217Y012981D01*
X024414Y012981D01*
X015473Y013276D02*
X015374Y013374D01*
X015178Y013374D01*
X014846Y013374D02*
X014650Y013374D01*
X014748Y013473D02*
X014748Y013079D01*
X014846Y012981D01*
X014399Y013079D02*
X014300Y012981D01*
X014103Y012981D01*
X014005Y013079D01*
X014103Y013276D02*
X014005Y013374D01*
X014005Y013473D01*
X014103Y013571D01*
X014300Y013571D01*
X014399Y013473D01*
X014300Y013276D02*
X014399Y013177D01*
X014399Y013079D01*
X014300Y013276D02*
X014103Y013276D01*
D14*
X017796Y010856D02*
X017950Y010856D01*
X017873Y010856D02*
X017873Y010396D01*
X017796Y010396D02*
X017950Y010396D01*
X018103Y010472D02*
X018180Y010396D01*
X018333Y010396D01*
X018410Y010472D01*
X018564Y010472D02*
X018640Y010396D01*
X018794Y010396D01*
X018870Y010472D01*
X018870Y010549D01*
X018794Y010626D01*
X018717Y010626D01*
X018794Y010626D02*
X018870Y010703D01*
X018870Y010779D01*
X018794Y010856D01*
X018640Y010856D01*
X018564Y010779D01*
X018410Y010779D02*
X018333Y010856D01*
X018180Y010856D01*
X018103Y010779D01*
X018103Y010472D01*
X018314Y009856D02*
X018314Y009396D01*
X018083Y009396D01*
X018007Y009472D01*
X018007Y009626D01*
X018083Y009703D01*
X018314Y009703D01*
X018467Y009703D02*
X018467Y009472D01*
X018544Y009396D01*
X018774Y009396D01*
X018774Y009703D01*
X018927Y009703D02*
X019004Y009703D01*
X019081Y009626D01*
X019158Y009703D01*
X019234Y009626D01*
X019234Y009396D01*
X019081Y009396D02*
X019081Y009626D01*
X018927Y009703D02*
X018927Y009396D01*
X019848Y009396D02*
X020155Y009396D01*
X020002Y009396D02*
X020002Y009856D01*
X019848Y009703D01*
X020309Y009779D02*
X020385Y009856D01*
X020539Y009856D01*
X020615Y009779D01*
X020615Y009703D01*
X020539Y009626D01*
X020615Y009549D01*
X020615Y009472D01*
X020539Y009396D01*
X020385Y009396D01*
X020309Y009472D01*
X020462Y009626D02*
X020539Y009626D01*
X020769Y009779D02*
X020846Y009856D01*
X020999Y009856D01*
X021076Y009779D01*
X020769Y009472D01*
X020846Y009396D01*
X020999Y009396D01*
X021076Y009472D01*
X021076Y009779D01*
X021229Y009703D02*
X021383Y009856D01*
X021383Y009396D01*
X021536Y009396D02*
X021229Y009396D01*
X020769Y009472D02*
X020769Y009779D01*
X023296Y011032D02*
X023373Y010955D01*
X023679Y010955D01*
X023756Y011032D01*
X023756Y011185D01*
X023679Y011262D01*
X023756Y011415D02*
X023756Y011722D01*
X023756Y011569D02*
X023296Y011569D01*
X023449Y011415D01*
X023373Y011262D02*
X023296Y011185D01*
X023296Y011032D01*
X023296Y011876D02*
X023526Y011876D01*
X023449Y012029D01*
X023449Y012106D01*
X023526Y012183D01*
X023679Y012183D01*
X023756Y012106D01*
X023756Y011953D01*
X023679Y011876D01*
X023296Y011876D02*
X023296Y012183D01*
X017853Y009703D02*
X017853Y009396D01*
X017853Y009626D02*
X017546Y009626D01*
X017546Y009703D02*
X017700Y009856D01*
X017853Y009703D01*
X017546Y009703D02*
X017546Y009396D01*
X017703Y021246D02*
X017821Y021246D01*
X017940Y021364D01*
X017861Y021324D02*
X017821Y021364D01*
X017821Y021757D01*
X017861Y021797D01*
X017821Y021757D02*
X017703Y021757D01*
X017703Y021876D02*
X017821Y021876D01*
X017940Y021757D01*
X017940Y021876D02*
X017821Y021876D01*
X017821Y021364D02*
X017703Y021364D01*
X017821Y021246D02*
X017940Y021246D01*
X019046Y023146D02*
X019353Y023606D01*
X019507Y023376D02*
X019814Y023376D01*
X019737Y023606D02*
X019507Y023376D01*
X019353Y023146D02*
X019046Y023606D01*
X019737Y023606D02*
X019737Y023146D01*
X019776Y026146D02*
X019776Y026606D01*
X019546Y026376D01*
X019853Y026376D01*
X020007Y026453D02*
X020314Y026146D01*
X020007Y026146D02*
X020314Y026453D01*
X020927Y026453D02*
X021081Y026606D01*
X021081Y026146D01*
X021234Y026146D02*
X020927Y026146D01*
X021388Y026222D02*
X021464Y026146D01*
X021618Y026146D01*
X021695Y026222D01*
X021695Y026529D01*
X021388Y026222D01*
X021388Y026529D01*
X021464Y026606D01*
X021618Y026606D01*
X021695Y026529D01*
X021848Y026529D02*
X021925Y026606D01*
X022078Y026606D01*
X022155Y026529D01*
X021848Y026222D01*
X021925Y026146D01*
X022078Y026146D01*
X022155Y026222D01*
X022155Y026529D01*
X022309Y026453D02*
X022539Y026453D01*
X022615Y026376D01*
X022615Y026146D01*
X022769Y026146D02*
X022769Y026606D01*
X023076Y026606D01*
X022922Y026376D02*
X022769Y026376D01*
X022309Y026453D02*
X022309Y026146D01*
X021848Y026222D02*
X021848Y026529D01*
X023546Y027896D02*
X023853Y028203D01*
X023853Y028279D01*
X023776Y028356D01*
X023623Y028356D01*
X023546Y028279D01*
X023546Y027896D02*
X023853Y027896D01*
X024007Y027896D02*
X024314Y028203D01*
X024007Y028203D02*
X024314Y027896D01*
X024927Y027896D02*
X025234Y027896D01*
X025081Y027896D02*
X025081Y028356D01*
X024927Y028203D01*
X025388Y028279D02*
X025388Y027972D01*
X025695Y028279D01*
X025695Y027972D01*
X025618Y027896D01*
X025464Y027896D01*
X025388Y027972D01*
X025388Y028279D02*
X025464Y028356D01*
X025618Y028356D01*
X025695Y028279D01*
X025925Y028126D02*
X025925Y027972D01*
X025925Y027819D01*
X025848Y027742D01*
X026002Y027896D02*
X026078Y027896D01*
X026155Y027972D01*
X026155Y028126D01*
X026309Y028126D02*
X026462Y028126D01*
X026309Y028356D02*
X026615Y028356D01*
X026309Y028356D02*
X026309Y027896D01*
X026002Y027896D02*
X025925Y027972D01*
X027546Y027203D02*
X027700Y027356D01*
X027700Y026896D01*
X027853Y026896D02*
X027546Y026896D01*
X028007Y026972D02*
X028007Y027279D01*
X028083Y027356D01*
X028237Y027356D01*
X028314Y027279D01*
X028007Y026972D01*
X028083Y026896D01*
X028237Y026896D01*
X028314Y026972D01*
X028314Y027279D01*
X028467Y027279D02*
X028467Y026972D01*
X028774Y027279D01*
X028774Y026972D01*
X028697Y026896D01*
X028544Y026896D01*
X028467Y026972D01*
X028467Y027279D02*
X028544Y027356D01*
X028697Y027356D01*
X028774Y027279D01*
X028927Y027279D02*
X029004Y027356D01*
X029158Y027356D01*
X029234Y027279D01*
X028927Y026972D01*
X029004Y026896D01*
X029158Y026896D01*
X029234Y026972D01*
X029234Y027279D01*
X029464Y027126D02*
X029464Y026972D01*
X029464Y026819D01*
X029388Y026742D01*
X029541Y026896D02*
X029618Y026896D01*
X029695Y026972D01*
X029695Y027126D01*
X029848Y027126D02*
X030002Y027126D01*
X029848Y027356D02*
X030155Y027356D01*
X029848Y027356D02*
X029848Y026896D01*
X029541Y026896D02*
X029464Y026972D01*
X028927Y026972D02*
X028927Y027279D01*
X017326Y032646D02*
X017019Y032646D01*
X017172Y032646D02*
X017172Y033106D01*
X017019Y032953D01*
X016865Y032953D02*
X016789Y032876D01*
X016635Y032876D01*
X016559Y032953D01*
X016559Y033029D01*
X016635Y033106D01*
X016789Y033106D01*
X016865Y033029D01*
X016865Y032953D01*
X016789Y032876D02*
X016865Y032799D01*
X016865Y032722D01*
X016789Y032646D01*
X016635Y032646D01*
X016559Y032722D01*
X016559Y032799D01*
X016635Y032876D01*
X016405Y032953D02*
X016328Y032876D01*
X016405Y032799D01*
X016405Y032722D01*
X016328Y032646D01*
X016175Y032646D01*
X016098Y032722D01*
X016252Y032876D02*
X016328Y032876D01*
X016405Y032953D02*
X016405Y033029D01*
X016328Y033106D01*
X016175Y033106D01*
X016098Y033029D01*
X015945Y033029D02*
X015638Y032722D01*
X015638Y032646D01*
X015638Y033106D02*
X015945Y033106D01*
X015945Y033029D01*
X015024Y032953D02*
X015024Y032646D01*
X015024Y032876D02*
X014717Y032876D01*
X014717Y032953D02*
X014870Y033106D01*
X015024Y032953D01*
X014717Y032953D02*
X014717Y032646D01*
X014564Y032722D02*
X014564Y033029D01*
X014487Y033106D01*
X014257Y033106D01*
X014257Y032646D01*
X014487Y032646D01*
X014564Y032722D01*
X014103Y033106D02*
X013796Y033106D01*
X013950Y033106D02*
X013950Y032646D01*
X011405Y027356D02*
X011098Y027356D01*
X011098Y026896D01*
X010945Y026972D02*
X010945Y027126D01*
X011098Y027126D02*
X011252Y027126D01*
X010945Y026972D02*
X010868Y026896D01*
X010791Y026896D01*
X010714Y026972D01*
X010714Y026819D01*
X010638Y026742D01*
X010714Y026972D02*
X010714Y027126D01*
X010484Y027279D02*
X010484Y026972D01*
X010408Y026896D01*
X010254Y026896D01*
X010177Y026972D01*
X010484Y027279D01*
X010408Y027356D01*
X010254Y027356D01*
X010177Y027279D01*
X010177Y026972D01*
X010024Y026972D02*
X009947Y026896D01*
X009794Y026896D01*
X009717Y026972D01*
X010024Y027279D01*
X010024Y026972D01*
X009717Y026972D02*
X009717Y027279D01*
X009794Y027356D01*
X009947Y027356D01*
X010024Y027279D01*
X009564Y027279D02*
X009564Y026972D01*
X009487Y026896D01*
X009333Y026896D01*
X009257Y026972D01*
X009564Y027279D01*
X009487Y027356D01*
X009333Y027356D01*
X009257Y027279D01*
X009257Y026972D01*
X009103Y026896D02*
X008796Y026896D01*
X008950Y026896D02*
X008950Y027356D01*
X008796Y027203D01*
D15*
X008526Y025376D02*
X008526Y024376D01*
X008526Y023376D02*
X008526Y022376D01*
X008026Y022876D02*
X009026Y022876D01*
X008526Y021376D02*
X008526Y020376D01*
X008526Y019376D02*
X008526Y018376D01*
X008026Y018876D02*
X009026Y018876D01*
X008651Y015251D02*
X008651Y014001D01*
X008651Y013001D02*
X008651Y011751D01*
X008026Y012376D02*
X009276Y012376D01*
X017026Y021876D02*
X017028Y021907D01*
X017034Y021938D01*
X017044Y021968D01*
X017057Y021996D01*
X017074Y022023D01*
X017094Y022047D01*
X017117Y022069D01*
X017142Y022087D01*
X017170Y022102D01*
X017199Y022114D01*
X017229Y022122D01*
X017260Y022126D01*
X017292Y022126D01*
X017323Y022122D01*
X017353Y022114D01*
X017382Y022102D01*
X017410Y022087D01*
X017435Y022069D01*
X017458Y022047D01*
X017478Y022023D01*
X017495Y021996D01*
X017508Y021968D01*
X017518Y021938D01*
X017524Y021907D01*
X017526Y021876D01*
X017524Y021845D01*
X017518Y021814D01*
X017508Y021784D01*
X017495Y021756D01*
X017478Y021729D01*
X017458Y021705D01*
X017435Y021683D01*
X017410Y021665D01*
X017382Y021650D01*
X017353Y021638D01*
X017323Y021630D01*
X017292Y021626D01*
X017260Y021626D01*
X017229Y021630D01*
X017199Y021638D01*
X017170Y021650D01*
X017142Y021665D01*
X017117Y021683D01*
X017094Y021705D01*
X017074Y021729D01*
X017057Y021756D01*
X017044Y021784D01*
X017034Y021814D01*
X017028Y021845D01*
X017026Y021876D01*
X030026Y022876D02*
X031026Y022876D01*
X030526Y022376D02*
X030526Y023376D01*
X030526Y024376D02*
X030526Y025376D01*
X030526Y021376D02*
X030526Y020376D01*
X030526Y019376D02*
X030526Y018376D01*
X030026Y018876D02*
X031026Y018876D01*
D16*
X029426Y017941D02*
X028457Y017941D01*
X025886Y017941D01*
X025806Y017941D01*
X025806Y025810D01*
X025886Y025810D01*
X029426Y025810D01*
X029426Y017941D01*
X028457Y017941D02*
X028457Y025813D01*
X028426Y027926D02*
X028676Y027926D01*
X028676Y028826D01*
X028426Y028826D01*
X028426Y028376D01*
X028426Y027926D01*
X028426Y028376D02*
X028326Y028376D01*
X026776Y028376D02*
X026778Y028465D01*
X026784Y028554D01*
X026794Y028643D01*
X026808Y028731D01*
X026825Y028818D01*
X026847Y028904D01*
X026873Y028990D01*
X026902Y029074D01*
X026935Y029157D01*
X026971Y029238D01*
X027012Y029318D01*
X027055Y029395D01*
X027102Y029471D01*
X027153Y029544D01*
X027206Y029615D01*
X027263Y029684D01*
X027323Y029750D01*
X027386Y029814D01*
X027451Y029874D01*
X027519Y029932D01*
X027590Y029986D01*
X027663Y030037D01*
X027738Y030085D01*
X027815Y030130D01*
X027894Y030171D01*
X027975Y030208D01*
X028057Y030242D01*
X028141Y030273D01*
X028226Y030299D01*
X028312Y030322D01*
X028399Y030340D01*
X028487Y030355D01*
X028576Y030366D01*
X028665Y030373D01*
X028754Y030376D01*
X028843Y030375D01*
X028932Y030370D01*
X029020Y030361D01*
X029109Y030348D01*
X029196Y030331D01*
X029283Y030311D01*
X029369Y030286D01*
X029453Y030258D01*
X029536Y030226D01*
X029618Y030190D01*
X029698Y030151D01*
X029776Y030108D01*
X029852Y030062D01*
X029926Y030012D01*
X029998Y029959D01*
X030067Y029903D01*
X030134Y029844D01*
X030198Y029782D01*
X030259Y029718D01*
X030318Y029650D01*
X030373Y029580D01*
X030425Y029508D01*
X030474Y029433D01*
X030519Y029357D01*
X030561Y029278D01*
X030599Y029198D01*
X030634Y029116D01*
X030665Y029032D01*
X030693Y028947D01*
X030716Y028861D01*
X030736Y028774D01*
X030752Y028687D01*
X030764Y028598D01*
X030772Y028510D01*
X030776Y028421D01*
X030776Y028331D01*
X030772Y028242D01*
X030764Y028154D01*
X030752Y028065D01*
X030736Y027978D01*
X030716Y027891D01*
X030693Y027805D01*
X030665Y027720D01*
X030634Y027636D01*
X030599Y027554D01*
X030561Y027474D01*
X030519Y027395D01*
X030474Y027319D01*
X030425Y027244D01*
X030373Y027172D01*
X030318Y027102D01*
X030259Y027034D01*
X030198Y026970D01*
X030134Y026908D01*
X030067Y026849D01*
X029998Y026793D01*
X029926Y026740D01*
X029852Y026690D01*
X029776Y026644D01*
X029698Y026601D01*
X029618Y026562D01*
X029536Y026526D01*
X029453Y026494D01*
X029369Y026466D01*
X029283Y026441D01*
X029196Y026421D01*
X029109Y026404D01*
X029020Y026391D01*
X028932Y026382D01*
X028843Y026377D01*
X028754Y026376D01*
X028665Y026379D01*
X028576Y026386D01*
X028487Y026397D01*
X028399Y026412D01*
X028312Y026430D01*
X028226Y026453D01*
X028141Y026479D01*
X028057Y026510D01*
X027975Y026544D01*
X027894Y026581D01*
X027815Y026622D01*
X027738Y026667D01*
X027663Y026715D01*
X027590Y026766D01*
X027519Y026820D01*
X027451Y026878D01*
X027386Y026938D01*
X027323Y027002D01*
X027263Y027068D01*
X027206Y027137D01*
X027153Y027208D01*
X027102Y027281D01*
X027055Y027357D01*
X027012Y027434D01*
X026971Y027514D01*
X026935Y027595D01*
X026902Y027678D01*
X026873Y027762D01*
X026847Y027848D01*
X026825Y027934D01*
X026808Y028021D01*
X026794Y028109D01*
X026784Y028198D01*
X026778Y028287D01*
X026776Y028376D01*
X027276Y028726D02*
X027276Y029026D01*
X027426Y028876D02*
X027126Y028876D01*
X026526Y029426D02*
X026326Y029426D01*
X026426Y029526D02*
X026426Y029326D01*
X025026Y030126D02*
X025028Y030189D01*
X025034Y030251D01*
X025044Y030313D01*
X025057Y030375D01*
X025075Y030435D01*
X025096Y030494D01*
X025121Y030552D01*
X025150Y030608D01*
X025182Y030662D01*
X025217Y030714D01*
X025255Y030763D01*
X025297Y030811D01*
X025341Y030855D01*
X025389Y030897D01*
X025438Y030935D01*
X025490Y030970D01*
X025544Y031002D01*
X025600Y031031D01*
X025658Y031056D01*
X025717Y031077D01*
X025777Y031095D01*
X025839Y031108D01*
X025901Y031118D01*
X025963Y031124D01*
X026026Y031126D01*
X026089Y031124D01*
X026151Y031118D01*
X026213Y031108D01*
X026275Y031095D01*
X026335Y031077D01*
X026394Y031056D01*
X026452Y031031D01*
X026508Y031002D01*
X026562Y030970D01*
X026614Y030935D01*
X026663Y030897D01*
X026711Y030855D01*
X026755Y030811D01*
X026797Y030763D01*
X026835Y030714D01*
X026870Y030662D01*
X026902Y030608D01*
X026931Y030552D01*
X026956Y030494D01*
X026977Y030435D01*
X026995Y030375D01*
X027008Y030313D01*
X027018Y030251D01*
X027024Y030189D01*
X027026Y030126D01*
X027024Y030063D01*
X027018Y030001D01*
X027008Y029939D01*
X026995Y029877D01*
X026977Y029817D01*
X026956Y029758D01*
X026931Y029700D01*
X026902Y029644D01*
X026870Y029590D01*
X026835Y029538D01*
X026797Y029489D01*
X026755Y029441D01*
X026711Y029397D01*
X026663Y029355D01*
X026614Y029317D01*
X026562Y029282D01*
X026508Y029250D01*
X026452Y029221D01*
X026394Y029196D01*
X026335Y029175D01*
X026275Y029157D01*
X026213Y029144D01*
X026151Y029134D01*
X026089Y029128D01*
X026026Y029126D01*
X025963Y029128D01*
X025901Y029134D01*
X025839Y029144D01*
X025777Y029157D01*
X025717Y029175D01*
X025658Y029196D01*
X025600Y029221D01*
X025544Y029250D01*
X025490Y029282D01*
X025438Y029317D01*
X025389Y029355D01*
X025341Y029397D01*
X025297Y029441D01*
X025255Y029489D01*
X025217Y029538D01*
X025182Y029590D01*
X025150Y029644D01*
X025121Y029700D01*
X025096Y029758D01*
X025075Y029817D01*
X025057Y029877D01*
X025044Y029939D01*
X025034Y030001D01*
X025028Y030063D01*
X025026Y030126D01*
X022776Y030126D02*
X022778Y030189D01*
X022784Y030251D01*
X022794Y030313D01*
X022807Y030375D01*
X022825Y030435D01*
X022846Y030494D01*
X022871Y030552D01*
X022900Y030608D01*
X022932Y030662D01*
X022967Y030714D01*
X023005Y030763D01*
X023047Y030811D01*
X023091Y030855D01*
X023139Y030897D01*
X023188Y030935D01*
X023240Y030970D01*
X023294Y031002D01*
X023350Y031031D01*
X023408Y031056D01*
X023467Y031077D01*
X023527Y031095D01*
X023589Y031108D01*
X023651Y031118D01*
X023713Y031124D01*
X023776Y031126D01*
X023839Y031124D01*
X023901Y031118D01*
X023963Y031108D01*
X024025Y031095D01*
X024085Y031077D01*
X024144Y031056D01*
X024202Y031031D01*
X024258Y031002D01*
X024312Y030970D01*
X024364Y030935D01*
X024413Y030897D01*
X024461Y030855D01*
X024505Y030811D01*
X024547Y030763D01*
X024585Y030714D01*
X024620Y030662D01*
X024652Y030608D01*
X024681Y030552D01*
X024706Y030494D01*
X024727Y030435D01*
X024745Y030375D01*
X024758Y030313D01*
X024768Y030251D01*
X024774Y030189D01*
X024776Y030126D01*
X024774Y030063D01*
X024768Y030001D01*
X024758Y029939D01*
X024745Y029877D01*
X024727Y029817D01*
X024706Y029758D01*
X024681Y029700D01*
X024652Y029644D01*
X024620Y029590D01*
X024585Y029538D01*
X024547Y029489D01*
X024505Y029441D01*
X024461Y029397D01*
X024413Y029355D01*
X024364Y029317D01*
X024312Y029282D01*
X024258Y029250D01*
X024202Y029221D01*
X024144Y029196D01*
X024085Y029175D01*
X024025Y029157D01*
X023963Y029144D01*
X023901Y029134D01*
X023839Y029128D01*
X023776Y029126D01*
X023713Y029128D01*
X023651Y029134D01*
X023589Y029144D01*
X023527Y029157D01*
X023467Y029175D01*
X023408Y029196D01*
X023350Y029221D01*
X023294Y029250D01*
X023240Y029282D01*
X023188Y029317D01*
X023139Y029355D01*
X023091Y029397D01*
X023047Y029441D01*
X023005Y029489D01*
X022967Y029538D01*
X022932Y029590D01*
X022900Y029644D01*
X022871Y029700D01*
X022846Y029758D01*
X022825Y029817D01*
X022807Y029877D01*
X022794Y029939D01*
X022784Y030001D01*
X022778Y030063D01*
X022776Y030126D01*
X023376Y030726D02*
X023376Y030926D01*
X023276Y030826D02*
X023476Y030826D01*
X023925Y031801D02*
X023825Y031901D01*
X023825Y033051D01*
X023925Y031801D02*
X027725Y031801D01*
X027825Y031901D01*
X027825Y033051D01*
X029026Y028376D02*
X029226Y028376D01*
X026206Y024830D02*
X026208Y024858D01*
X026214Y024885D01*
X026223Y024911D01*
X026236Y024936D01*
X026253Y024959D01*
X026272Y024979D01*
X026294Y024996D01*
X026318Y025010D01*
X026344Y025020D01*
X026371Y025027D01*
X026399Y025030D01*
X026427Y025029D01*
X026454Y025024D01*
X026481Y025015D01*
X026506Y025003D01*
X026529Y024988D01*
X026550Y024969D01*
X026568Y024948D01*
X026583Y024924D01*
X026594Y024898D01*
X026602Y024872D01*
X026606Y024844D01*
X026606Y024816D01*
X026602Y024788D01*
X026594Y024762D01*
X026583Y024736D01*
X026568Y024712D01*
X026550Y024691D01*
X026529Y024672D01*
X026506Y024657D01*
X026481Y024645D01*
X026454Y024636D01*
X026427Y024631D01*
X026399Y024630D01*
X026371Y024633D01*
X026344Y024640D01*
X026318Y024650D01*
X026294Y024664D01*
X026272Y024681D01*
X026253Y024701D01*
X026236Y024724D01*
X026223Y024749D01*
X026214Y024775D01*
X026208Y024802D01*
X026206Y024830D01*
X025886Y025810D02*
X025886Y017941D01*
X026206Y018924D02*
X026208Y018952D01*
X026214Y018979D01*
X026223Y019005D01*
X026236Y019030D01*
X026253Y019053D01*
X026272Y019073D01*
X026294Y019090D01*
X026318Y019104D01*
X026344Y019114D01*
X026371Y019121D01*
X026399Y019124D01*
X026427Y019123D01*
X026454Y019118D01*
X026481Y019109D01*
X026506Y019097D01*
X026529Y019082D01*
X026550Y019063D01*
X026568Y019042D01*
X026583Y019018D01*
X026594Y018992D01*
X026602Y018966D01*
X026606Y018938D01*
X026606Y018910D01*
X026602Y018882D01*
X026594Y018856D01*
X026583Y018830D01*
X026568Y018806D01*
X026550Y018785D01*
X026529Y018766D01*
X026506Y018751D01*
X026481Y018739D01*
X026454Y018730D01*
X026427Y018725D01*
X026399Y018724D01*
X026371Y018727D01*
X026344Y018734D01*
X026318Y018744D01*
X026294Y018758D01*
X026272Y018775D01*
X026253Y018795D01*
X026236Y018818D01*
X026223Y018843D01*
X026214Y018869D01*
X026208Y018896D01*
X026206Y018924D01*
X026206Y020891D02*
X026208Y020919D01*
X026214Y020946D01*
X026223Y020972D01*
X026236Y020997D01*
X026253Y021020D01*
X026272Y021040D01*
X026294Y021057D01*
X026318Y021071D01*
X026344Y021081D01*
X026371Y021088D01*
X026399Y021091D01*
X026427Y021090D01*
X026454Y021085D01*
X026481Y021076D01*
X026506Y021064D01*
X026529Y021049D01*
X026550Y021030D01*
X026568Y021009D01*
X026583Y020985D01*
X026594Y020959D01*
X026602Y020933D01*
X026606Y020905D01*
X026606Y020877D01*
X026602Y020849D01*
X026594Y020823D01*
X026583Y020797D01*
X026568Y020773D01*
X026550Y020752D01*
X026529Y020733D01*
X026506Y020718D01*
X026481Y020706D01*
X026454Y020697D01*
X026427Y020692D01*
X026399Y020691D01*
X026371Y020694D01*
X026344Y020701D01*
X026318Y020711D01*
X026294Y020725D01*
X026272Y020742D01*
X026253Y020762D01*
X026236Y020785D01*
X026223Y020810D01*
X026214Y020836D01*
X026208Y020863D01*
X026206Y020891D01*
X026206Y022861D02*
X026208Y022889D01*
X026214Y022916D01*
X026223Y022942D01*
X026236Y022967D01*
X026253Y022990D01*
X026272Y023010D01*
X026294Y023027D01*
X026318Y023041D01*
X026344Y023051D01*
X026371Y023058D01*
X026399Y023061D01*
X026427Y023060D01*
X026454Y023055D01*
X026481Y023046D01*
X026506Y023034D01*
X026529Y023019D01*
X026550Y023000D01*
X026568Y022979D01*
X026583Y022955D01*
X026594Y022929D01*
X026602Y022903D01*
X026606Y022875D01*
X026606Y022847D01*
X026602Y022819D01*
X026594Y022793D01*
X026583Y022767D01*
X026568Y022743D01*
X026550Y022722D01*
X026529Y022703D01*
X026506Y022688D01*
X026481Y022676D01*
X026454Y022667D01*
X026427Y022662D01*
X026399Y022661D01*
X026371Y022664D01*
X026344Y022671D01*
X026318Y022681D01*
X026294Y022695D01*
X026272Y022712D01*
X026253Y022732D01*
X026236Y022755D01*
X026223Y022780D01*
X026214Y022806D01*
X026208Y022833D01*
X026206Y022861D01*
X024676Y017076D02*
X023376Y017076D01*
X023350Y017074D01*
X023324Y017069D01*
X023299Y017061D01*
X023276Y017049D01*
X023254Y017035D01*
X023235Y017017D01*
X023217Y016998D01*
X023203Y016976D01*
X023191Y016953D01*
X023183Y016928D01*
X023178Y016902D01*
X023176Y016876D01*
X023526Y016626D02*
X023906Y016626D01*
X024156Y016626D02*
X024526Y016626D01*
X024876Y016876D02*
X024874Y016902D01*
X024869Y016928D01*
X024861Y016953D01*
X024849Y016976D01*
X024835Y016998D01*
X024817Y017017D01*
X024798Y017035D01*
X024776Y017049D01*
X024753Y017061D01*
X024728Y017069D01*
X024702Y017074D01*
X024676Y017076D01*
X024876Y016376D02*
X024874Y016350D01*
X024869Y016324D01*
X024861Y016299D01*
X024849Y016276D01*
X024835Y016254D01*
X024817Y016235D01*
X024798Y016217D01*
X024776Y016203D01*
X024753Y016191D01*
X024728Y016183D01*
X024702Y016178D01*
X024676Y016176D01*
X023376Y016176D01*
X023350Y016178D01*
X023324Y016183D01*
X023299Y016191D01*
X023276Y016203D01*
X023254Y016217D01*
X023235Y016235D01*
X023217Y016254D01*
X023203Y016276D01*
X023191Y016299D01*
X023183Y016324D01*
X023178Y016350D01*
X023176Y016376D01*
X022776Y015376D02*
X023026Y015126D01*
X023026Y014626D01*
X022776Y014376D01*
X022276Y014376D01*
X022026Y014626D01*
X021776Y014376D01*
X021276Y014376D01*
X021026Y014626D01*
X021026Y015126D01*
X021276Y015376D01*
X021776Y015376D01*
X022026Y015126D01*
X022276Y015376D01*
X022776Y015376D01*
X022026Y015126D02*
X022026Y014626D01*
X024526Y015476D02*
X024571Y015474D01*
X024617Y015469D01*
X024661Y015461D01*
X024705Y015449D01*
X024748Y015433D01*
X024790Y015415D01*
X024830Y015393D01*
X024868Y015369D01*
X024904Y015342D01*
X024939Y015312D01*
X024970Y015279D01*
X025000Y015244D01*
X024526Y014276D02*
X024479Y014278D01*
X024431Y014284D01*
X024385Y014293D01*
X024339Y014306D01*
X024295Y014322D01*
X024251Y014343D01*
X024210Y014366D01*
X024171Y014392D01*
X024134Y014422D01*
X024099Y014455D01*
X024067Y014490D01*
X024038Y014527D01*
X024526Y014276D02*
X024572Y014278D01*
X024618Y014283D01*
X024664Y014292D01*
X024709Y014304D01*
X024752Y014320D01*
X024794Y014339D01*
X024835Y014362D01*
X024874Y014387D01*
X024910Y014415D01*
X024945Y014446D01*
X024977Y014480D01*
X025006Y014516D01*
X024526Y015476D02*
X024481Y015474D01*
X024435Y015469D01*
X024391Y015461D01*
X024347Y015449D01*
X024304Y015433D01*
X024262Y015415D01*
X024222Y015393D01*
X024184Y015369D01*
X024148Y015342D01*
X024113Y015312D01*
X024082Y015279D01*
X024052Y015244D01*
X019526Y014276D02*
X019479Y014278D01*
X019431Y014284D01*
X019385Y014293D01*
X019339Y014306D01*
X019295Y014322D01*
X019251Y014343D01*
X019210Y014366D01*
X019171Y014392D01*
X019134Y014422D01*
X019099Y014455D01*
X019067Y014490D01*
X019038Y014527D01*
X019526Y015476D02*
X019571Y015474D01*
X019617Y015469D01*
X019661Y015461D01*
X019705Y015449D01*
X019748Y015433D01*
X019790Y015415D01*
X019830Y015393D01*
X019868Y015369D01*
X019904Y015342D01*
X019939Y015312D01*
X019970Y015279D01*
X020000Y015244D01*
X019526Y015476D02*
X019481Y015474D01*
X019435Y015469D01*
X019391Y015461D01*
X019347Y015449D01*
X019304Y015433D01*
X019262Y015415D01*
X019222Y015393D01*
X019184Y015369D01*
X019148Y015342D01*
X019113Y015312D01*
X019082Y015279D01*
X019052Y015244D01*
X019526Y014276D02*
X019572Y014278D01*
X019618Y014283D01*
X019664Y014292D01*
X019709Y014304D01*
X019752Y014320D01*
X019794Y014339D01*
X019835Y014362D01*
X019874Y014387D01*
X019910Y014415D01*
X019945Y014446D01*
X019977Y014480D01*
X020006Y014516D01*
X018026Y014626D02*
X017776Y014376D01*
X017276Y014376D01*
X017026Y014626D01*
X016776Y014376D01*
X016276Y014376D01*
X016026Y014626D01*
X016026Y015126D01*
X016276Y015376D01*
X016776Y015376D01*
X017026Y015126D01*
X017276Y015376D01*
X017776Y015376D01*
X018026Y015126D01*
X018026Y014626D01*
X017026Y014626D02*
X017026Y015126D01*
X015676Y016176D02*
X014376Y016176D01*
X014350Y016178D01*
X014324Y016183D01*
X014299Y016191D01*
X014276Y016203D01*
X014254Y016217D01*
X014235Y016235D01*
X014217Y016254D01*
X014203Y016276D01*
X014191Y016299D01*
X014183Y016324D01*
X014178Y016350D01*
X014176Y016376D01*
X014526Y016626D02*
X014896Y016626D01*
X015146Y016626D02*
X015526Y016626D01*
X015876Y016876D02*
X015874Y016902D01*
X015869Y016928D01*
X015861Y016953D01*
X015849Y016976D01*
X015835Y016998D01*
X015817Y017017D01*
X015798Y017035D01*
X015776Y017049D01*
X015753Y017061D01*
X015728Y017069D01*
X015702Y017074D01*
X015676Y017076D01*
X014376Y017076D01*
X014350Y017074D01*
X014324Y017069D01*
X014299Y017061D01*
X014276Y017049D01*
X014254Y017035D01*
X014235Y017017D01*
X014217Y016998D01*
X014203Y016976D01*
X014191Y016953D01*
X014183Y016928D01*
X014178Y016902D01*
X014176Y016876D01*
X013246Y017941D02*
X013246Y025810D01*
X013166Y025810D01*
X013166Y017941D01*
X009626Y017941D01*
X009626Y025810D01*
X010595Y025810D01*
X013166Y025810D01*
X012446Y024827D02*
X012448Y024855D01*
X012454Y024882D01*
X012463Y024908D01*
X012476Y024933D01*
X012493Y024956D01*
X012512Y024976D01*
X012534Y024993D01*
X012558Y025007D01*
X012584Y025017D01*
X012611Y025024D01*
X012639Y025027D01*
X012667Y025026D01*
X012694Y025021D01*
X012721Y025012D01*
X012746Y025000D01*
X012769Y024985D01*
X012790Y024966D01*
X012808Y024945D01*
X012823Y024921D01*
X012834Y024895D01*
X012842Y024869D01*
X012846Y024841D01*
X012846Y024813D01*
X012842Y024785D01*
X012834Y024759D01*
X012823Y024733D01*
X012808Y024709D01*
X012790Y024688D01*
X012769Y024669D01*
X012746Y024654D01*
X012721Y024642D01*
X012694Y024633D01*
X012667Y024628D01*
X012639Y024627D01*
X012611Y024630D01*
X012584Y024637D01*
X012558Y024647D01*
X012534Y024661D01*
X012512Y024678D01*
X012493Y024698D01*
X012476Y024721D01*
X012463Y024746D01*
X012454Y024772D01*
X012448Y024799D01*
X012446Y024827D01*
X012446Y022860D02*
X012448Y022888D01*
X012454Y022915D01*
X012463Y022941D01*
X012476Y022966D01*
X012493Y022989D01*
X012512Y023009D01*
X012534Y023026D01*
X012558Y023040D01*
X012584Y023050D01*
X012611Y023057D01*
X012639Y023060D01*
X012667Y023059D01*
X012694Y023054D01*
X012721Y023045D01*
X012746Y023033D01*
X012769Y023018D01*
X012790Y022999D01*
X012808Y022978D01*
X012823Y022954D01*
X012834Y022928D01*
X012842Y022902D01*
X012846Y022874D01*
X012846Y022846D01*
X012842Y022818D01*
X012834Y022792D01*
X012823Y022766D01*
X012808Y022742D01*
X012790Y022721D01*
X012769Y022702D01*
X012746Y022687D01*
X012721Y022675D01*
X012694Y022666D01*
X012667Y022661D01*
X012639Y022660D01*
X012611Y022663D01*
X012584Y022670D01*
X012558Y022680D01*
X012534Y022694D01*
X012512Y022711D01*
X012493Y022731D01*
X012476Y022754D01*
X012463Y022779D01*
X012454Y022805D01*
X012448Y022832D01*
X012446Y022860D01*
X012446Y020890D02*
X012448Y020918D01*
X012454Y020945D01*
X012463Y020971D01*
X012476Y020996D01*
X012493Y021019D01*
X012512Y021039D01*
X012534Y021056D01*
X012558Y021070D01*
X012584Y021080D01*
X012611Y021087D01*
X012639Y021090D01*
X012667Y021089D01*
X012694Y021084D01*
X012721Y021075D01*
X012746Y021063D01*
X012769Y021048D01*
X012790Y021029D01*
X012808Y021008D01*
X012823Y020984D01*
X012834Y020958D01*
X012842Y020932D01*
X012846Y020904D01*
X012846Y020876D01*
X012842Y020848D01*
X012834Y020822D01*
X012823Y020796D01*
X012808Y020772D01*
X012790Y020751D01*
X012769Y020732D01*
X012746Y020717D01*
X012721Y020705D01*
X012694Y020696D01*
X012667Y020691D01*
X012639Y020690D01*
X012611Y020693D01*
X012584Y020700D01*
X012558Y020710D01*
X012534Y020724D01*
X012512Y020741D01*
X012493Y020761D01*
X012476Y020784D01*
X012463Y020809D01*
X012454Y020835D01*
X012448Y020862D01*
X012446Y020890D01*
X012446Y018921D02*
X012448Y018949D01*
X012454Y018976D01*
X012463Y019002D01*
X012476Y019027D01*
X012493Y019050D01*
X012512Y019070D01*
X012534Y019087D01*
X012558Y019101D01*
X012584Y019111D01*
X012611Y019118D01*
X012639Y019121D01*
X012667Y019120D01*
X012694Y019115D01*
X012721Y019106D01*
X012746Y019094D01*
X012769Y019079D01*
X012790Y019060D01*
X012808Y019039D01*
X012823Y019015D01*
X012834Y018989D01*
X012842Y018963D01*
X012846Y018935D01*
X012846Y018907D01*
X012842Y018879D01*
X012834Y018853D01*
X012823Y018827D01*
X012808Y018803D01*
X012790Y018782D01*
X012769Y018763D01*
X012746Y018748D01*
X012721Y018736D01*
X012694Y018727D01*
X012667Y018722D01*
X012639Y018721D01*
X012611Y018724D01*
X012584Y018731D01*
X012558Y018741D01*
X012534Y018755D01*
X012512Y018772D01*
X012493Y018792D01*
X012476Y018815D01*
X012463Y018840D01*
X012454Y018866D01*
X012448Y018893D01*
X012446Y018921D01*
X013166Y017941D02*
X013246Y017941D01*
X013416Y015590D02*
X013496Y015590D01*
X013496Y011660D01*
X013416Y011660D01*
X010816Y011660D01*
X009876Y011660D01*
X009876Y015590D01*
X010816Y015590D01*
X013416Y015590D01*
X013416Y011660D01*
X012696Y012640D02*
X012698Y012668D01*
X012704Y012695D01*
X012713Y012721D01*
X012726Y012746D01*
X012743Y012769D01*
X012762Y012789D01*
X012784Y012806D01*
X012808Y012820D01*
X012834Y012830D01*
X012861Y012837D01*
X012889Y012840D01*
X012917Y012839D01*
X012944Y012834D01*
X012971Y012825D01*
X012996Y012813D01*
X013019Y012798D01*
X013040Y012779D01*
X013058Y012758D01*
X013073Y012734D01*
X013084Y012708D01*
X013092Y012682D01*
X013096Y012654D01*
X013096Y012626D01*
X013092Y012598D01*
X013084Y012572D01*
X013073Y012546D01*
X013058Y012522D01*
X013040Y012501D01*
X013019Y012482D01*
X012996Y012467D01*
X012971Y012455D01*
X012944Y012446D01*
X012917Y012441D01*
X012889Y012440D01*
X012861Y012443D01*
X012834Y012450D01*
X012808Y012460D01*
X012784Y012474D01*
X012762Y012491D01*
X012743Y012511D01*
X012726Y012534D01*
X012713Y012559D01*
X012704Y012585D01*
X012698Y012612D01*
X012696Y012640D01*
X012696Y014610D02*
X012698Y014638D01*
X012704Y014665D01*
X012713Y014691D01*
X012726Y014716D01*
X012743Y014739D01*
X012762Y014759D01*
X012784Y014776D01*
X012808Y014790D01*
X012834Y014800D01*
X012861Y014807D01*
X012889Y014810D01*
X012917Y014809D01*
X012944Y014804D01*
X012971Y014795D01*
X012996Y014783D01*
X013019Y014768D01*
X013040Y014749D01*
X013058Y014728D01*
X013073Y014704D01*
X013084Y014678D01*
X013092Y014652D01*
X013096Y014624D01*
X013096Y014596D01*
X013092Y014568D01*
X013084Y014542D01*
X013073Y014516D01*
X013058Y014492D01*
X013040Y014471D01*
X013019Y014452D01*
X012996Y014437D01*
X012971Y014425D01*
X012944Y014416D01*
X012917Y014411D01*
X012889Y014410D01*
X012861Y014413D01*
X012834Y014420D01*
X012808Y014430D01*
X012784Y014444D01*
X012762Y014461D01*
X012743Y014481D01*
X012726Y014504D01*
X012713Y014529D01*
X012704Y014555D01*
X012698Y014582D01*
X012696Y014610D01*
X014526Y015476D02*
X014573Y015474D01*
X014621Y015468D01*
X014667Y015459D01*
X014713Y015446D01*
X014757Y015430D01*
X014801Y015409D01*
X014842Y015386D01*
X014881Y015360D01*
X014918Y015330D01*
X014953Y015297D01*
X014985Y015262D01*
X015014Y015225D01*
X014526Y014276D02*
X014481Y014278D01*
X014435Y014283D01*
X014391Y014291D01*
X014347Y014303D01*
X014304Y014319D01*
X014262Y014337D01*
X014222Y014359D01*
X014184Y014383D01*
X014148Y014410D01*
X014113Y014440D01*
X014082Y014473D01*
X014052Y014508D01*
X014526Y014276D02*
X014571Y014278D01*
X014617Y014283D01*
X014661Y014291D01*
X014705Y014303D01*
X014748Y014319D01*
X014790Y014337D01*
X014830Y014359D01*
X014868Y014383D01*
X014904Y014410D01*
X014939Y014440D01*
X014970Y014473D01*
X015000Y014508D01*
X014526Y015476D02*
X014480Y015474D01*
X014434Y015469D01*
X014388Y015460D01*
X014343Y015448D01*
X014300Y015432D01*
X014258Y015413D01*
X014217Y015390D01*
X014178Y015365D01*
X014142Y015337D01*
X014107Y015306D01*
X014075Y015272D01*
X014046Y015236D01*
X015676Y016176D02*
X015702Y016178D01*
X015728Y016183D01*
X015753Y016191D01*
X015776Y016203D01*
X015798Y016217D01*
X015817Y016235D01*
X015835Y016254D01*
X015849Y016276D01*
X015861Y016299D01*
X015869Y016324D01*
X015874Y016350D01*
X015876Y016376D01*
X014107Y009496D02*
X014321Y009283D01*
X014321Y009069D01*
X014107Y008856D01*
X013890Y008856D02*
X013890Y009176D01*
X013783Y009283D01*
X013463Y009283D01*
X013463Y008856D01*
X013246Y008856D02*
X013033Y008856D01*
X013140Y008856D02*
X013140Y009283D01*
X013033Y009283D01*
X013140Y009496D02*
X013140Y009603D01*
X012817Y009496D02*
X012603Y009283D01*
X012603Y009069D01*
X012817Y008856D01*
X012817Y008446D02*
X012603Y008233D01*
X012603Y008019D01*
X012817Y007806D01*
X013033Y007806D02*
X013246Y007806D01*
X013140Y007806D02*
X013140Y008233D01*
X013033Y008233D01*
X013140Y008446D02*
X013140Y008553D01*
X013463Y008233D02*
X013783Y008233D01*
X013890Y008126D01*
X013890Y007806D01*
X014107Y007806D02*
X014321Y008019D01*
X014321Y008233D01*
X014107Y008446D01*
X013463Y008233D02*
X013463Y007806D01*
X013461Y007183D02*
X013568Y007183D01*
X013461Y007183D02*
X013248Y006969D01*
X013248Y006756D02*
X013248Y007183D01*
X013030Y007076D02*
X012923Y007183D01*
X012710Y007183D01*
X012603Y007076D01*
X012603Y006862D01*
X012710Y006756D01*
X012923Y006756D01*
X013030Y006862D01*
X013030Y007076D01*
X013030Y006346D02*
X012603Y006346D01*
X012603Y006026D01*
X012817Y006133D01*
X012923Y006133D01*
X013030Y006026D01*
X013030Y005812D01*
X012923Y005706D01*
X012710Y005706D01*
X012603Y005812D01*
X012387Y005706D02*
X012173Y005919D01*
X012173Y006133D01*
X012387Y006346D01*
X012066Y006756D02*
X012066Y007183D01*
X012066Y006969D02*
X012280Y007183D01*
X012386Y007183D01*
X011849Y007183D02*
X011742Y007183D01*
X011529Y006969D01*
X011529Y006756D02*
X011529Y007183D01*
X011311Y007396D02*
X010884Y007396D01*
X010884Y006756D01*
X011311Y006756D01*
X011098Y007076D02*
X010884Y007076D01*
X010991Y006346D02*
X010884Y006239D01*
X010884Y005812D01*
X010991Y005706D01*
X011205Y005706D01*
X011311Y005812D01*
X011311Y006239D02*
X011205Y006346D01*
X010991Y006346D01*
X010667Y006239D02*
X010560Y006346D01*
X010347Y006346D01*
X010240Y006239D01*
X010240Y005812D01*
X010347Y005706D01*
X010560Y005706D01*
X010667Y005812D01*
X010667Y005296D02*
X010667Y004656D01*
X010240Y005296D01*
X010240Y004656D01*
X010022Y004762D02*
X010022Y004976D01*
X009809Y004976D01*
X010022Y005189D02*
X009916Y005296D01*
X009702Y005296D01*
X009595Y005189D01*
X009595Y004762D01*
X009702Y004656D01*
X009916Y004656D01*
X010022Y004762D01*
X009809Y005706D02*
X010022Y005919D01*
X010022Y006346D01*
X009916Y006756D02*
X009916Y007396D01*
X009595Y007076D01*
X010022Y007076D01*
X009595Y006346D02*
X009595Y005919D01*
X009809Y005706D01*
X008733Y005812D02*
X008626Y005706D01*
X008413Y005706D01*
X008306Y005812D01*
X008306Y006026D02*
X008520Y006133D01*
X008626Y006133D01*
X008733Y006026D01*
X008733Y005812D01*
X008306Y006026D02*
X008306Y006346D01*
X008733Y006346D01*
X008626Y006756D02*
X008413Y006756D01*
X008306Y006862D01*
X008520Y007076D02*
X008626Y007076D01*
X008733Y006969D01*
X008733Y006862D01*
X008626Y006756D01*
X008626Y007076D02*
X008733Y007183D01*
X008733Y007289D01*
X008626Y007396D01*
X008413Y007396D01*
X008306Y007289D01*
X008306Y007806D02*
X008733Y008233D01*
X008733Y008339D01*
X008626Y008446D01*
X008413Y008446D01*
X008306Y008339D01*
X008306Y008856D02*
X008733Y008856D01*
X008520Y008856D02*
X008520Y009496D01*
X008306Y009283D01*
X008306Y007806D02*
X008733Y007806D01*
X009378Y007396D02*
X008951Y006756D01*
X009595Y007806D02*
X009595Y008446D01*
X009809Y008233D01*
X010022Y008446D01*
X010022Y007806D01*
X010240Y007912D02*
X010240Y008233D01*
X010240Y007912D02*
X010347Y007806D01*
X010667Y007806D01*
X010667Y008233D01*
X010884Y008233D02*
X011098Y008233D01*
X010991Y008339D02*
X010991Y007912D01*
X011098Y007806D01*
X011314Y007912D02*
X011314Y008126D01*
X011421Y008233D01*
X011634Y008233D01*
X011741Y008126D01*
X011741Y008019D01*
X011314Y008019D01*
X011314Y007912D02*
X011421Y007806D01*
X011634Y007806D01*
X011634Y008642D02*
X011528Y008642D01*
X011634Y008642D02*
X011741Y008749D01*
X011741Y009283D01*
X011314Y009283D02*
X011314Y008962D01*
X011421Y008856D01*
X011741Y008856D01*
X011097Y008962D02*
X010990Y008856D01*
X010670Y008856D01*
X010670Y009496D01*
X010670Y009283D02*
X010990Y009283D01*
X011097Y009176D01*
X011097Y008962D01*
X010453Y008856D02*
X010347Y008962D01*
X010347Y009389D01*
X010453Y009283D02*
X010240Y009283D01*
X010022Y009389D02*
X009916Y009496D01*
X009702Y009496D01*
X009595Y009389D01*
X009595Y009283D01*
X009702Y009176D01*
X009916Y009176D01*
X010022Y009069D01*
X010022Y008962D01*
X009916Y008856D01*
X009702Y008856D01*
X009595Y008962D01*
X010816Y011660D02*
X010816Y012290D01*
X010816Y012990D02*
X010816Y014260D01*
X010816Y014960D02*
X010816Y015590D01*
X010595Y017939D02*
X010595Y025810D01*
X010376Y027926D02*
X010126Y027926D01*
X010126Y028826D01*
X010376Y028826D01*
X010376Y028376D01*
X010376Y027926D01*
X010376Y028376D02*
X010476Y028376D01*
X008026Y028376D02*
X008028Y028465D01*
X008034Y028554D01*
X008044Y028643D01*
X008058Y028731D01*
X008075Y028818D01*
X008097Y028904D01*
X008123Y028990D01*
X008152Y029074D01*
X008185Y029157D01*
X008221Y029238D01*
X008262Y029318D01*
X008305Y029395D01*
X008352Y029471D01*
X008403Y029544D01*
X008456Y029615D01*
X008513Y029684D01*
X008573Y029750D01*
X008636Y029814D01*
X008701Y029874D01*
X008769Y029932D01*
X008840Y029986D01*
X008913Y030037D01*
X008988Y030085D01*
X009065Y030130D01*
X009144Y030171D01*
X009225Y030208D01*
X009307Y030242D01*
X009391Y030273D01*
X009476Y030299D01*
X009562Y030322D01*
X009649Y030340D01*
X009737Y030355D01*
X009826Y030366D01*
X009915Y030373D01*
X010004Y030376D01*
X010093Y030375D01*
X010182Y030370D01*
X010270Y030361D01*
X010359Y030348D01*
X010446Y030331D01*
X010533Y030311D01*
X010619Y030286D01*
X010703Y030258D01*
X010786Y030226D01*
X010868Y030190D01*
X010948Y030151D01*
X011026Y030108D01*
X011102Y030062D01*
X011176Y030012D01*
X011248Y029959D01*
X011317Y029903D01*
X011384Y029844D01*
X011448Y029782D01*
X011509Y029718D01*
X011568Y029650D01*
X011623Y029580D01*
X011675Y029508D01*
X011724Y029433D01*
X011769Y029357D01*
X011811Y029278D01*
X011849Y029198D01*
X011884Y029116D01*
X011915Y029032D01*
X011943Y028947D01*
X011966Y028861D01*
X011986Y028774D01*
X012002Y028687D01*
X012014Y028598D01*
X012022Y028510D01*
X012026Y028421D01*
X012026Y028331D01*
X012022Y028242D01*
X012014Y028154D01*
X012002Y028065D01*
X011986Y027978D01*
X011966Y027891D01*
X011943Y027805D01*
X011915Y027720D01*
X011884Y027636D01*
X011849Y027554D01*
X011811Y027474D01*
X011769Y027395D01*
X011724Y027319D01*
X011675Y027244D01*
X011623Y027172D01*
X011568Y027102D01*
X011509Y027034D01*
X011448Y026970D01*
X011384Y026908D01*
X011317Y026849D01*
X011248Y026793D01*
X011176Y026740D01*
X011102Y026690D01*
X011026Y026644D01*
X010948Y026601D01*
X010868Y026562D01*
X010786Y026526D01*
X010703Y026494D01*
X010619Y026466D01*
X010533Y026441D01*
X010446Y026421D01*
X010359Y026404D01*
X010270Y026391D01*
X010182Y026382D01*
X010093Y026377D01*
X010004Y026376D01*
X009915Y026379D01*
X009826Y026386D01*
X009737Y026397D01*
X009649Y026412D01*
X009562Y026430D01*
X009476Y026453D01*
X009391Y026479D01*
X009307Y026510D01*
X009225Y026544D01*
X009144Y026581D01*
X009065Y026622D01*
X008988Y026667D01*
X008913Y026715D01*
X008840Y026766D01*
X008769Y026820D01*
X008701Y026878D01*
X008636Y026938D01*
X008573Y027002D01*
X008513Y027068D01*
X008456Y027137D01*
X008403Y027208D01*
X008352Y027281D01*
X008305Y027357D01*
X008262Y027434D01*
X008221Y027514D01*
X008185Y027595D01*
X008152Y027678D01*
X008123Y027762D01*
X008097Y027848D01*
X008075Y027934D01*
X008058Y028021D01*
X008044Y028109D01*
X008034Y028198D01*
X008028Y028287D01*
X008026Y028376D01*
X009576Y028376D02*
X009776Y028376D01*
X011376Y027876D02*
X011676Y027876D01*
X011526Y027726D02*
X011526Y028026D01*
X015326Y027026D02*
X015326Y025726D01*
X015328Y025700D01*
X015333Y025674D01*
X015341Y025649D01*
X015353Y025626D01*
X015367Y025604D01*
X015385Y025585D01*
X015404Y025567D01*
X015426Y025553D01*
X015449Y025541D01*
X015474Y025533D01*
X015500Y025528D01*
X015526Y025526D01*
X015776Y025876D02*
X015776Y026256D01*
X015776Y026506D02*
X015776Y026876D01*
X015526Y027226D02*
X015500Y027224D01*
X015474Y027219D01*
X015449Y027211D01*
X015426Y027199D01*
X015404Y027185D01*
X015385Y027167D01*
X015367Y027148D01*
X015353Y027126D01*
X015341Y027103D01*
X015333Y027078D01*
X015328Y027052D01*
X015326Y027026D01*
X016026Y027226D02*
X016052Y027224D01*
X016078Y027219D01*
X016103Y027211D01*
X016126Y027199D01*
X016148Y027185D01*
X016167Y027167D01*
X016185Y027148D01*
X016199Y027126D01*
X016211Y027103D01*
X016219Y027078D01*
X016224Y027052D01*
X016226Y027026D01*
X016226Y025726D01*
X016326Y025726D02*
X016326Y027026D01*
X016328Y027052D01*
X016333Y027078D01*
X016341Y027103D01*
X016353Y027126D01*
X016367Y027148D01*
X016385Y027167D01*
X016404Y027185D01*
X016426Y027199D01*
X016449Y027211D01*
X016474Y027219D01*
X016500Y027224D01*
X016526Y027226D01*
X016776Y026876D02*
X016776Y026506D01*
X016776Y026256D02*
X016776Y025876D01*
X016526Y025526D02*
X016500Y025528D01*
X016474Y025533D01*
X016449Y025541D01*
X016426Y025553D01*
X016404Y025567D01*
X016385Y025585D01*
X016367Y025604D01*
X016353Y025626D01*
X016341Y025649D01*
X016333Y025674D01*
X016328Y025700D01*
X016326Y025726D01*
X016226Y025726D02*
X016224Y025700D01*
X016219Y025674D01*
X016211Y025649D01*
X016199Y025626D01*
X016185Y025604D01*
X016167Y025585D01*
X016148Y025567D01*
X016126Y025553D01*
X016103Y025541D01*
X016078Y025533D01*
X016052Y025528D01*
X016026Y025526D01*
X017026Y025526D02*
X017052Y025528D01*
X017078Y025533D01*
X017103Y025541D01*
X017126Y025553D01*
X017148Y025567D01*
X017167Y025585D01*
X017185Y025604D01*
X017199Y025626D01*
X017211Y025649D01*
X017219Y025674D01*
X017224Y025700D01*
X017226Y025726D01*
X017226Y027026D01*
X017326Y027026D02*
X017326Y025726D01*
X017328Y025700D01*
X017333Y025674D01*
X017341Y025649D01*
X017353Y025626D01*
X017367Y025604D01*
X017385Y025585D01*
X017404Y025567D01*
X017426Y025553D01*
X017449Y025541D01*
X017474Y025533D01*
X017500Y025528D01*
X017526Y025526D01*
X017776Y025876D02*
X017776Y026256D01*
X017776Y026506D02*
X017776Y026876D01*
X017526Y027226D02*
X017500Y027224D01*
X017474Y027219D01*
X017449Y027211D01*
X017426Y027199D01*
X017404Y027185D01*
X017385Y027167D01*
X017367Y027148D01*
X017353Y027126D01*
X017341Y027103D01*
X017333Y027078D01*
X017328Y027052D01*
X017326Y027026D01*
X017226Y027026D02*
X017224Y027052D01*
X017219Y027078D01*
X017211Y027103D01*
X017199Y027126D01*
X017185Y027148D01*
X017167Y027167D01*
X017148Y027185D01*
X017126Y027199D01*
X017103Y027211D01*
X017078Y027219D01*
X017052Y027224D01*
X017026Y027226D01*
X018026Y027226D02*
X018052Y027224D01*
X018078Y027219D01*
X018103Y027211D01*
X018126Y027199D01*
X018148Y027185D01*
X018167Y027167D01*
X018185Y027148D01*
X018199Y027126D01*
X018211Y027103D01*
X018219Y027078D01*
X018224Y027052D01*
X018226Y027026D01*
X018226Y025726D01*
X018326Y025726D02*
X018326Y027026D01*
X018328Y027052D01*
X018333Y027078D01*
X018341Y027103D01*
X018353Y027126D01*
X018367Y027148D01*
X018385Y027167D01*
X018404Y027185D01*
X018426Y027199D01*
X018449Y027211D01*
X018474Y027219D01*
X018500Y027224D01*
X018526Y027226D01*
X018776Y026876D02*
X018776Y026506D01*
X018776Y026256D02*
X018776Y025876D01*
X018526Y025526D02*
X018500Y025528D01*
X018474Y025533D01*
X018449Y025541D01*
X018426Y025553D01*
X018404Y025567D01*
X018385Y025585D01*
X018367Y025604D01*
X018353Y025626D01*
X018341Y025649D01*
X018333Y025674D01*
X018328Y025700D01*
X018326Y025726D01*
X018226Y025726D02*
X018224Y025700D01*
X018219Y025674D01*
X018211Y025649D01*
X018199Y025626D01*
X018185Y025604D01*
X018167Y025585D01*
X018148Y025567D01*
X018126Y025553D01*
X018103Y025541D01*
X018078Y025533D01*
X018052Y025528D01*
X018026Y025526D01*
X019026Y025526D02*
X019052Y025528D01*
X019078Y025533D01*
X019103Y025541D01*
X019126Y025553D01*
X019148Y025567D01*
X019167Y025585D01*
X019185Y025604D01*
X019199Y025626D01*
X019211Y025649D01*
X019219Y025674D01*
X019224Y025700D01*
X019226Y025726D01*
X019226Y027026D01*
X019224Y027052D01*
X019219Y027078D01*
X019211Y027103D01*
X019199Y027126D01*
X019185Y027148D01*
X019167Y027167D01*
X019148Y027185D01*
X019126Y027199D01*
X019103Y027211D01*
X019078Y027219D01*
X019052Y027224D01*
X019026Y027226D01*
X016578Y007396D02*
X016791Y007183D01*
X016791Y006969D01*
X016578Y006756D01*
X016362Y006756D02*
X016255Y006862D01*
X016255Y007289D01*
X016148Y007183D02*
X016362Y007183D01*
X015931Y007183D02*
X015931Y006756D01*
X015610Y006756D01*
X015504Y006862D01*
X015504Y007183D01*
X015286Y007076D02*
X015179Y007183D01*
X014966Y007183D01*
X014859Y007076D01*
X014859Y006862D01*
X014966Y006756D01*
X015179Y006756D01*
X015286Y006862D01*
X015286Y007076D01*
X014643Y007396D02*
X014429Y007183D01*
X014429Y006969D01*
X014643Y006756D01*
X014106Y006133D02*
X013892Y006346D01*
X013675Y006346D02*
X013675Y005919D01*
X013461Y005706D01*
X013248Y005919D01*
X013248Y006346D01*
X013892Y005706D02*
X014106Y005919D01*
X014106Y006133D01*
X016526Y005376D02*
X016526Y001876D01*
X018026Y001876D01*
X018026Y001926D01*
X018526Y001926D01*
X018526Y001876D01*
X018726Y001876D01*
X018726Y002276D01*
X018726Y002376D01*
X017026Y002376D01*
X017026Y004876D01*
X022026Y004876D01*
X022026Y002376D01*
X020326Y002376D01*
X020326Y002276D01*
X020326Y001876D01*
X018726Y001876D01*
X018726Y002376D02*
X018726Y002676D01*
X020326Y002676D01*
X020326Y002376D01*
X020326Y001876D02*
X022526Y001876D01*
X022526Y005376D01*
X022026Y005376D01*
X022026Y005476D01*
X021526Y005476D01*
X021526Y005376D01*
X019776Y005376D01*
X019776Y005476D01*
X019276Y005476D01*
X019276Y005376D01*
X017526Y005376D01*
X017526Y005476D01*
X017026Y005476D01*
X017026Y005376D01*
X016526Y005376D01*
X011311Y005189D02*
X011311Y004762D01*
X011205Y004656D01*
X010884Y004656D01*
X010884Y005296D01*
X011205Y005296D01*
X011311Y005189D01*
X008733Y005296D02*
X008520Y005189D01*
X008306Y004976D01*
X008626Y004976D01*
X008733Y004869D01*
X008733Y004762D01*
X008626Y004656D01*
X008413Y004656D01*
X008306Y004762D01*
X008306Y004976D01*
D17*
X012376Y013024D02*
X012301Y013100D01*
X012301Y013250D01*
X012376Y013325D01*
X012451Y013325D01*
X012751Y013024D01*
X012751Y013325D01*
X012751Y014974D02*
X012751Y015275D01*
X012751Y015125D02*
X012301Y015125D01*
X012451Y014974D01*
X013301Y015801D02*
X013601Y015801D01*
X013762Y015801D02*
X014062Y015801D01*
X013912Y015801D02*
X013912Y016251D01*
X013762Y016101D01*
X013301Y016251D02*
X013301Y015801D01*
X014436Y017401D02*
X014586Y017401D01*
X014661Y017476D01*
X014821Y017401D02*
X015121Y017401D01*
X014971Y017401D02*
X014971Y017851D01*
X014821Y017701D01*
X014661Y017776D02*
X014586Y017851D01*
X014436Y017851D01*
X014361Y017776D01*
X014361Y017476D01*
X014436Y017401D01*
X015281Y017401D02*
X015281Y017476D01*
X015582Y017776D01*
X015582Y017851D01*
X015281Y017851D01*
X016671Y016071D02*
X016821Y016071D01*
X016746Y016071D02*
X016746Y015696D01*
X016671Y015621D01*
X016596Y015621D01*
X016521Y015696D01*
X016982Y015771D02*
X017207Y015771D01*
X017282Y015846D01*
X017282Y015996D01*
X017207Y016071D01*
X016982Y016071D01*
X016982Y015621D01*
X017442Y015621D02*
X017742Y015621D01*
X017592Y015621D02*
X017592Y016071D01*
X017442Y015921D01*
X019301Y015801D02*
X019601Y015801D01*
X019762Y015876D02*
X019837Y015801D01*
X019987Y015801D01*
X020062Y015876D01*
X020062Y015951D01*
X019987Y016026D01*
X019912Y016026D01*
X019987Y016026D02*
X020062Y016101D01*
X020062Y016176D01*
X019987Y016251D01*
X019837Y016251D01*
X019762Y016176D01*
X019301Y016251D02*
X019301Y015801D01*
X021521Y015696D02*
X021596Y015621D01*
X021671Y015621D01*
X021746Y015696D01*
X021746Y016071D01*
X021671Y016071D02*
X021821Y016071D01*
X021982Y016071D02*
X022207Y016071D01*
X022282Y015996D01*
X022282Y015846D01*
X022207Y015771D01*
X021982Y015771D01*
X021982Y015621D02*
X021982Y016071D01*
X022442Y015996D02*
X022517Y016071D01*
X022667Y016071D01*
X022742Y015996D01*
X022742Y015921D01*
X022442Y015621D01*
X022742Y015621D01*
X023436Y017401D02*
X023586Y017401D01*
X023661Y017476D01*
X023821Y017401D02*
X024121Y017401D01*
X023971Y017401D02*
X023971Y017851D01*
X023821Y017701D01*
X023661Y017776D02*
X023586Y017851D01*
X023436Y017851D01*
X023361Y017776D01*
X023361Y017476D01*
X023436Y017401D01*
X024281Y017476D02*
X024281Y017551D01*
X024356Y017626D01*
X024507Y017626D01*
X024582Y017551D01*
X024582Y017476D01*
X024507Y017401D01*
X024356Y017401D01*
X024281Y017476D01*
X024356Y017626D02*
X024281Y017701D01*
X024281Y017776D01*
X024356Y017851D01*
X024507Y017851D01*
X024582Y017776D01*
X024582Y017701D01*
X024507Y017626D01*
X025301Y016251D02*
X025301Y015801D01*
X025601Y015801D01*
X025762Y015801D02*
X026062Y016101D01*
X026062Y016176D01*
X025987Y016251D01*
X025837Y016251D01*
X025762Y016176D01*
X025762Y015801D02*
X026062Y015801D01*
X026701Y018129D02*
X026551Y018279D01*
X027001Y018279D01*
X027001Y018129D02*
X027001Y018430D01*
X027001Y020116D02*
X026701Y020417D01*
X026626Y020417D01*
X026551Y020342D01*
X026551Y020191D01*
X026626Y020116D01*
X027001Y020116D02*
X027001Y020417D01*
X026926Y022066D02*
X027001Y022141D01*
X027001Y022292D01*
X026926Y022367D01*
X026851Y022367D01*
X026776Y022292D01*
X026776Y022216D01*
X026776Y022292D02*
X026701Y022367D01*
X026626Y022367D01*
X026551Y022292D01*
X026551Y022141D01*
X026626Y022066D01*
X026776Y024035D02*
X026551Y024260D01*
X027001Y024260D01*
X026776Y024335D02*
X026776Y024035D01*
X028846Y021147D02*
X028921Y021147D01*
X028996Y021072D01*
X029071Y021147D01*
X029146Y021147D01*
X029221Y021072D01*
X029221Y020922D01*
X029146Y020847D01*
X029221Y020687D02*
X028771Y020386D01*
X028771Y020687D02*
X029221Y020386D01*
X028846Y020847D02*
X028771Y020922D01*
X028771Y021072D01*
X028846Y021147D01*
X028996Y021072D02*
X028996Y020997D01*
X026066Y028501D02*
X026066Y028951D01*
X025841Y028726D01*
X026141Y028726D01*
X025681Y028876D02*
X025606Y028951D01*
X025455Y028951D01*
X025380Y028876D01*
X025380Y028576D01*
X025455Y028501D01*
X025606Y028501D01*
X025681Y028576D01*
X024141Y028576D02*
X024066Y028501D01*
X023916Y028501D01*
X023841Y028576D01*
X023681Y028576D02*
X023606Y028501D01*
X023455Y028501D01*
X023380Y028576D01*
X023380Y028876D01*
X023455Y028951D01*
X023606Y028951D01*
X023681Y028876D01*
X023841Y028876D02*
X023916Y028951D01*
X024066Y028951D01*
X024141Y028876D01*
X024141Y028801D01*
X024066Y028726D01*
X024141Y028651D01*
X024141Y028576D01*
X024066Y028726D02*
X023991Y028726D01*
X024001Y031146D02*
X023850Y031146D01*
X023925Y031146D02*
X023925Y031596D01*
X023850Y031596D02*
X024001Y031596D01*
X024157Y031521D02*
X024157Y031221D01*
X024232Y031146D01*
X024383Y031146D01*
X024458Y031221D01*
X024618Y031146D02*
X024918Y031146D01*
X024768Y031146D02*
X024768Y031596D01*
X024618Y031446D01*
X024458Y031521D02*
X024383Y031596D01*
X024232Y031596D01*
X024157Y031521D01*
X022912Y031738D02*
X011416Y031738D01*
X011416Y033529D01*
X022912Y033529D01*
X022912Y031738D01*
X022203Y032269D02*
X022203Y033057D01*
X020143Y033026D02*
X020068Y033101D01*
X019918Y033101D01*
X019842Y033026D01*
X019682Y033026D02*
X019607Y033101D01*
X019457Y033101D01*
X019382Y033026D01*
X019382Y032726D01*
X019457Y032651D01*
X019607Y032651D01*
X019682Y032726D01*
X019842Y032651D02*
X020143Y032951D01*
X020143Y033026D01*
X020143Y032651D02*
X019842Y032651D01*
X019225Y032651D02*
X019075Y032651D01*
X019150Y032651D02*
X019150Y033101D01*
X019075Y033101D02*
X019225Y033101D01*
X018926Y028931D02*
X018626Y028931D01*
X018926Y028631D01*
X019001Y028706D01*
X019001Y028856D01*
X018926Y028931D01*
X018626Y028931D02*
X018551Y028856D01*
X018551Y028706D01*
X018626Y028631D01*
X018926Y028631D01*
X019001Y028471D02*
X019001Y028170D01*
X019001Y028321D02*
X018551Y028321D01*
X018701Y028170D01*
X018626Y028010D02*
X018551Y027935D01*
X018551Y027785D01*
X018626Y027710D01*
X018926Y027710D01*
X019001Y027785D01*
X019001Y027935D01*
X018926Y028010D01*
X018001Y028015D02*
X017926Y027940D01*
X017626Y027940D01*
X017551Y028015D01*
X017551Y028165D01*
X017626Y028240D01*
X017626Y028401D02*
X017701Y028401D01*
X017776Y028476D01*
X017776Y028701D01*
X017926Y028701D02*
X017626Y028701D01*
X017551Y028626D01*
X017551Y028476D01*
X017626Y028401D01*
X017926Y028401D02*
X018001Y028476D01*
X018001Y028626D01*
X017926Y028701D01*
X017926Y028240D02*
X018001Y028165D01*
X018001Y028015D01*
X017001Y028015D02*
X016926Y027940D01*
X016626Y027940D01*
X016551Y028015D01*
X016551Y028165D01*
X016626Y028240D01*
X016626Y028401D02*
X016701Y028401D01*
X016776Y028476D01*
X016776Y028626D01*
X016851Y028701D01*
X016926Y028701D01*
X017001Y028626D01*
X017001Y028476D01*
X016926Y028401D01*
X016851Y028401D01*
X016776Y028476D01*
X016776Y028626D02*
X016701Y028701D01*
X016626Y028701D01*
X016551Y028626D01*
X016551Y028476D01*
X016626Y028401D01*
X016926Y028240D02*
X017001Y028165D01*
X017001Y028015D01*
X016001Y028015D02*
X016001Y028165D01*
X015926Y028240D01*
X015926Y028401D02*
X016001Y028401D01*
X015926Y028401D02*
X015626Y028701D01*
X015551Y028701D01*
X015551Y028401D01*
X015626Y028240D02*
X015551Y028165D01*
X015551Y028015D01*
X015626Y027940D01*
X015926Y027940D01*
X016001Y028015D01*
X012501Y025512D02*
X012501Y025211D01*
X012501Y025362D02*
X012051Y025362D01*
X012201Y025211D01*
X012201Y023525D02*
X012126Y023525D01*
X012051Y023450D01*
X012051Y023300D01*
X012126Y023224D01*
X012201Y023525D02*
X012501Y023224D01*
X012501Y023525D01*
X012426Y021575D02*
X012501Y021500D01*
X012501Y021350D01*
X012426Y021274D01*
X012276Y021425D02*
X012276Y021500D01*
X012351Y021575D01*
X012426Y021575D01*
X012276Y021500D02*
X012201Y021575D01*
X012126Y021575D01*
X012051Y021500D01*
X012051Y021350D01*
X012126Y021274D01*
X012276Y019606D02*
X012276Y019306D01*
X012051Y019531D01*
X012501Y019531D01*
X010281Y022494D02*
X009831Y022794D01*
X009906Y022954D02*
X009831Y023030D01*
X009831Y023180D01*
X009906Y023255D01*
X009981Y023255D01*
X010281Y022954D01*
X010281Y023255D01*
X010281Y022794D02*
X009831Y022494D01*
X009756Y029321D02*
X009831Y029396D01*
X009756Y029321D02*
X009605Y029321D01*
X009530Y029396D01*
X009530Y029696D01*
X009605Y029771D01*
X009756Y029771D01*
X009831Y029696D01*
X009991Y029621D02*
X010141Y029771D01*
X010141Y029321D01*
X009991Y029321D02*
X010291Y029321D01*
X012125Y032269D02*
X012125Y033057D01*
X010531Y015005D02*
X010531Y014704D01*
X010531Y014855D02*
X010081Y014855D01*
X010231Y014704D01*
X010081Y014544D02*
X010531Y014244D01*
X010531Y014544D02*
X010081Y014244D01*
X017626Y004351D02*
X017551Y004276D01*
X017626Y004351D02*
X017776Y004351D01*
X017851Y004276D01*
X017851Y004201D01*
X017551Y003901D01*
X017851Y003901D01*
X017701Y003351D02*
X017701Y002901D01*
X017551Y002901D02*
X017851Y002901D01*
X017551Y003201D02*
X017701Y003351D01*
X019401Y002276D02*
X019401Y002126D01*
X019476Y002051D01*
X019626Y002051D01*
X019701Y002126D01*
X019701Y002201D01*
X019626Y002276D01*
X019401Y002276D01*
X019551Y002426D01*
X019701Y002501D01*
X028476Y029481D02*
X028626Y029481D01*
X028701Y029556D01*
X028862Y029481D02*
X029162Y029781D01*
X029162Y029856D01*
X029087Y029931D01*
X028937Y029931D01*
X028862Y029856D01*
X028701Y029856D02*
X028626Y029931D01*
X028476Y029931D01*
X028401Y029856D01*
X028401Y029556D01*
X028476Y029481D01*
X028862Y029481D02*
X029162Y029481D01*
D18*
X024156Y016926D02*
X024156Y016626D01*
X024156Y016326D01*
X023906Y016326D02*
X023906Y016626D01*
X023906Y016926D01*
X019076Y026256D02*
X018776Y026256D01*
X018476Y026256D01*
X018476Y026506D02*
X018776Y026506D01*
X019076Y026506D01*
X018076Y026506D02*
X017776Y026506D01*
X017476Y026506D01*
X017476Y026256D02*
X017776Y026256D01*
X018076Y026256D01*
X017076Y026256D02*
X016776Y026256D01*
X016476Y026256D01*
X016476Y026506D02*
X016776Y026506D01*
X017076Y026506D01*
X016076Y026506D02*
X015776Y026506D01*
X015476Y026506D01*
X015476Y026256D02*
X015776Y026256D01*
X016076Y026256D01*
X015146Y016926D02*
X015146Y016626D01*
X015146Y016326D01*
X014896Y016326D02*
X014896Y016626D01*
X014896Y016926D01*
D19*
X015137Y014359D02*
X015101Y014320D01*
X015062Y014282D01*
X015022Y014248D01*
X014979Y014216D01*
X014934Y014188D01*
X014887Y014162D01*
X014838Y014139D01*
X014788Y014120D01*
X014737Y014104D01*
X014685Y014092D01*
X014633Y014083D01*
X014579Y014078D01*
X014526Y014076D01*
X013820Y015252D02*
X013847Y015299D01*
X013877Y015344D01*
X013910Y015387D01*
X013946Y015427D01*
X013985Y015465D01*
X014026Y015500D01*
X014069Y015533D01*
X014114Y015562D01*
X014162Y015588D01*
X014211Y015611D01*
X014261Y015631D01*
X014312Y015647D01*
X014365Y015660D01*
X014418Y015669D01*
X014472Y015674D01*
X014526Y015676D01*
X013831Y014479D02*
X013861Y014431D01*
X013894Y014386D01*
X013930Y014343D01*
X013968Y014302D01*
X014010Y014265D01*
X014054Y014230D01*
X014100Y014199D01*
X014149Y014170D01*
X014199Y014146D01*
X014251Y014125D01*
X014305Y014107D01*
X014359Y014094D01*
X014414Y014084D01*
X014470Y014078D01*
X014526Y014076D01*
X015141Y015388D02*
X015105Y015428D01*
X015066Y015466D01*
X015025Y015501D01*
X014982Y015533D01*
X014937Y015563D01*
X014890Y015589D01*
X014841Y015611D01*
X014790Y015631D01*
X014739Y015647D01*
X014687Y015660D01*
X014633Y015669D01*
X014580Y015674D01*
X014526Y015676D01*
X019526Y014076D02*
X019580Y014078D01*
X019634Y014083D01*
X019687Y014092D01*
X019740Y014105D01*
X019791Y014121D01*
X019841Y014141D01*
X019890Y014164D01*
X019938Y014190D01*
X019983Y014219D01*
X020026Y014252D01*
X020067Y014287D01*
X020106Y014325D01*
X020142Y014365D01*
X020175Y014408D01*
X020205Y014453D01*
X020232Y014500D01*
X020221Y015273D02*
X020191Y015321D01*
X020158Y015366D01*
X020122Y015409D01*
X020084Y015450D01*
X020042Y015487D01*
X019998Y015522D01*
X019952Y015553D01*
X019903Y015582D01*
X019853Y015606D01*
X019801Y015627D01*
X019747Y015645D01*
X019693Y015658D01*
X019638Y015668D01*
X019582Y015674D01*
X019526Y015676D01*
X019473Y015674D01*
X019419Y015669D01*
X019367Y015660D01*
X019315Y015648D01*
X019264Y015632D01*
X019214Y015613D01*
X019165Y015590D01*
X019118Y015564D01*
X019073Y015536D01*
X019030Y015504D01*
X018990Y015470D01*
X018951Y015432D01*
X018915Y015393D01*
X018911Y014364D02*
X018947Y014324D01*
X018986Y014286D01*
X019027Y014251D01*
X019070Y014219D01*
X019115Y014189D01*
X019162Y014163D01*
X019211Y014141D01*
X019262Y014121D01*
X019313Y014105D01*
X019365Y014092D01*
X019419Y014083D01*
X019472Y014078D01*
X019526Y014076D01*
X024526Y014076D02*
X024580Y014078D01*
X024634Y014083D01*
X024687Y014092D01*
X024740Y014105D01*
X024791Y014121D01*
X024841Y014141D01*
X024890Y014164D01*
X024938Y014190D01*
X024983Y014219D01*
X025026Y014252D01*
X025067Y014287D01*
X025106Y014325D01*
X025142Y014365D01*
X025175Y014408D01*
X025205Y014453D01*
X025232Y014500D01*
X025221Y015273D02*
X025191Y015321D01*
X025158Y015366D01*
X025122Y015409D01*
X025084Y015450D01*
X025042Y015487D01*
X024998Y015522D01*
X024952Y015553D01*
X024903Y015582D01*
X024853Y015606D01*
X024801Y015627D01*
X024747Y015645D01*
X024693Y015658D01*
X024638Y015668D01*
X024582Y015674D01*
X024526Y015676D01*
X024473Y015674D01*
X024419Y015669D01*
X024367Y015660D01*
X024315Y015648D01*
X024264Y015632D01*
X024214Y015613D01*
X024165Y015590D01*
X024118Y015564D01*
X024073Y015536D01*
X024030Y015504D01*
X023990Y015470D01*
X023951Y015432D01*
X023915Y015393D01*
X023911Y014364D02*
X023947Y014324D01*
X023986Y014286D01*
X024027Y014251D01*
X024070Y014219D01*
X024115Y014189D01*
X024162Y014163D01*
X024211Y014141D01*
X024262Y014121D01*
X024313Y014105D01*
X024365Y014092D01*
X024419Y014083D01*
X024472Y014078D01*
X024526Y014076D01*
D20*
X029001Y028376D03*
X009801Y028376D03*
D21*
X024005Y032041D03*
D22*
X024100Y033251D03*
X027550Y033251D03*
D23*
X026825Y033351D03*
X025825Y033351D03*
X024825Y033351D03*
D24*
X025325Y033251D03*
X026325Y033251D03*
D25*
X022126Y004976D02*
X016926Y004976D01*
X016926Y002276D01*
X018726Y002276D01*
X020326Y002276D02*
X022126Y002276D01*
X022126Y004976D01*
D26*
X019982Y005661D02*
X019561Y005661D01*
X019771Y005661D02*
X019771Y006291D01*
X019561Y006081D01*
X019337Y006291D02*
X019127Y006291D01*
X019232Y006291D02*
X019232Y005766D01*
X019127Y005661D01*
X019022Y005661D01*
X018917Y005766D01*
D27*
X018526Y004126D03*
X018526Y003126D03*
X019526Y003126D03*
X019526Y004126D03*
X020526Y004126D03*
X020526Y003126D03*
M02*
