G75*
%MOIN*%
%OFA0B0*%
%FSLAX24Y24*%
%IPPOS*%
%LPD*%
%AMOC8*
5,1,8,0,0,1.08239X$1,22.5*
%
%ADD10C,0.0000*%
%ADD11C,0.0040*%
D10*
X007676Y000126D02*
X007676Y033501D01*
X031376Y033501D01*
X031376Y000126D01*
X007676Y000126D01*
D11*
X014219Y002646D02*
X014526Y002646D01*
X014373Y002646D02*
X014373Y003106D01*
X014526Y002953D01*
X014679Y003029D02*
X014679Y002876D01*
X014756Y002799D01*
X014986Y002799D01*
X014986Y002646D02*
X014986Y003106D01*
X014756Y003106D01*
X014679Y003029D01*
X015140Y003029D02*
X015140Y002876D01*
X015217Y002799D01*
X015447Y002799D01*
X015447Y002646D02*
X015447Y003106D01*
X015217Y003106D01*
X015140Y003029D01*
X015293Y002799D02*
X015140Y002646D01*
X015140Y004146D02*
X015293Y004299D01*
X015217Y004299D02*
X015447Y004299D01*
X015447Y004146D02*
X015447Y004606D01*
X015217Y004606D01*
X015140Y004529D01*
X015140Y004376D01*
X015217Y004299D01*
X014986Y004299D02*
X014756Y004299D01*
X014679Y004376D01*
X014679Y004529D01*
X014756Y004606D01*
X014986Y004606D01*
X014986Y004146D01*
X014526Y004146D02*
X014219Y004453D01*
X014219Y004529D01*
X014296Y004606D01*
X014449Y004606D01*
X014526Y004529D01*
X014526Y004146D02*
X014219Y004146D01*
X019046Y005205D02*
X019507Y005205D01*
X019507Y005435D01*
X019430Y005512D01*
X019276Y005512D01*
X019200Y005435D01*
X019200Y005205D01*
X019200Y005358D02*
X019046Y005512D01*
X019123Y005665D02*
X019046Y005742D01*
X019046Y005896D01*
X019123Y005972D01*
X019200Y005972D01*
X019276Y005896D01*
X019276Y005742D01*
X019353Y005665D01*
X019430Y005665D01*
X019507Y005742D01*
X019507Y005896D01*
X019430Y005972D01*
X019353Y006126D02*
X019507Y006279D01*
X019046Y006279D01*
X019046Y006126D02*
X019046Y006433D01*
X022546Y006472D02*
X022546Y006165D01*
X022546Y006319D02*
X023007Y006319D01*
X022853Y006165D01*
X022930Y006012D02*
X023007Y005935D01*
X023007Y005782D01*
X022930Y005705D01*
X022623Y005705D01*
X022546Y005782D01*
X022546Y005935D01*
X022623Y006012D01*
X022623Y006626D02*
X022546Y006703D01*
X022546Y006856D01*
X022623Y006933D01*
X022700Y006933D01*
X022776Y006856D01*
X022776Y006626D01*
X022623Y006626D01*
X022776Y006626D02*
X022930Y006779D01*
X023007Y006933D01*
X025546Y011955D02*
X026007Y011955D01*
X026007Y012185D01*
X025930Y012262D01*
X025776Y012262D01*
X025700Y012185D01*
X025700Y011955D01*
X025700Y012108D02*
X025546Y012262D01*
X025546Y012415D02*
X025546Y012722D01*
X025546Y012876D02*
X025853Y013183D01*
X025930Y013183D01*
X026007Y013106D01*
X026007Y012953D01*
X025930Y012876D01*
X025546Y012876D02*
X025546Y013183D01*
X025546Y012415D02*
X026007Y012415D01*
X025217Y017396D02*
X025217Y017856D01*
X024986Y017856D01*
X024910Y017779D01*
X024910Y017626D01*
X024986Y017549D01*
X025217Y017549D01*
X025063Y017549D02*
X024910Y017396D01*
X024756Y017472D02*
X024679Y017396D01*
X024526Y017396D01*
X024449Y017472D01*
X024449Y017549D01*
X024526Y017626D01*
X024603Y017626D01*
X024526Y017626D02*
X024449Y017703D01*
X024449Y017779D01*
X024526Y017856D01*
X024679Y017856D01*
X024756Y017779D01*
X024910Y018646D02*
X025063Y018799D01*
X024986Y018799D02*
X025217Y018799D01*
X025217Y018646D02*
X025217Y019106D01*
X024986Y019106D01*
X024910Y019029D01*
X024910Y018876D01*
X024986Y018799D01*
X024756Y018876D02*
X024449Y018876D01*
X024526Y018646D02*
X024526Y019106D01*
X024756Y018876D01*
X020197Y018356D02*
X020197Y017896D01*
X020197Y018049D02*
X019967Y018049D01*
X019890Y018126D01*
X019890Y018279D01*
X019967Y018356D01*
X020197Y018356D01*
X020043Y018049D02*
X019890Y017896D01*
X019736Y017896D02*
X019736Y018356D01*
X019736Y017896D02*
X019429Y017896D01*
X019276Y017972D02*
X019199Y017896D01*
X019046Y017896D01*
X018969Y017972D01*
X018969Y018049D01*
X019046Y018126D01*
X019123Y018126D01*
X019046Y018126D02*
X018969Y018203D01*
X018969Y018279D01*
X019046Y018356D01*
X019199Y018356D01*
X019276Y018279D01*
X014717Y018646D02*
X014717Y019106D01*
X014486Y019106D01*
X014410Y019029D01*
X014410Y018876D01*
X014486Y018799D01*
X014717Y018799D01*
X014563Y018799D02*
X014410Y018646D01*
X014256Y018646D02*
X013949Y018953D01*
X013949Y019029D01*
X014026Y019106D01*
X014179Y019106D01*
X014256Y019029D01*
X014256Y018646D02*
X013949Y018646D01*
X014103Y017856D02*
X014103Y017396D01*
X014256Y017396D02*
X013949Y017396D01*
X014256Y017703D02*
X014103Y017856D01*
X014410Y017779D02*
X014410Y017626D01*
X014486Y017549D01*
X014717Y017549D01*
X014717Y017396D02*
X014717Y017856D01*
X014486Y017856D01*
X014410Y017779D01*
X014563Y017549D02*
X014410Y017396D01*
X013046Y013183D02*
X013046Y012876D01*
X013046Y013029D02*
X013507Y013029D01*
X013353Y012876D01*
X013046Y012722D02*
X013046Y012415D01*
X013507Y012415D01*
X013430Y012262D02*
X013276Y012262D01*
X013200Y012185D01*
X013200Y011955D01*
X013200Y012108D02*
X013046Y012262D01*
X013046Y011955D02*
X013507Y011955D01*
X013507Y012185D01*
X013430Y012262D01*
X023296Y028146D02*
X023219Y028222D01*
X023219Y028299D01*
X023296Y028376D01*
X023373Y028376D01*
X023296Y028376D02*
X023219Y028453D01*
X023219Y028529D01*
X023296Y028606D01*
X023449Y028606D01*
X023526Y028529D01*
X023526Y028222D02*
X023449Y028146D01*
X023296Y028146D01*
X023679Y028146D02*
X023986Y028146D01*
X023833Y028146D02*
X023833Y028606D01*
X023986Y028453D01*
X024140Y028529D02*
X024217Y028606D01*
X024370Y028606D01*
X024447Y028529D01*
X024447Y028222D01*
X024370Y028146D01*
X024217Y028146D01*
X024140Y028222D01*
X025469Y028376D02*
X025776Y028376D01*
X025546Y028606D01*
X025546Y028146D01*
X025929Y028146D02*
X026236Y028146D01*
X026083Y028146D02*
X026083Y028606D01*
X026236Y028453D01*
X026390Y028529D02*
X026467Y028606D01*
X026620Y028606D01*
X026697Y028529D01*
X026697Y028222D01*
X026620Y028146D01*
X026467Y028146D01*
X026390Y028222D01*
X023680Y031205D02*
X023373Y031205D01*
X023296Y031282D01*
X023296Y031435D01*
X023373Y031512D01*
X023296Y031665D02*
X023296Y031972D01*
X023296Y031819D02*
X023757Y031819D01*
X023603Y031665D01*
X023680Y031512D02*
X023757Y031435D01*
X023757Y031282D01*
X023680Y031205D01*
X023680Y032126D02*
X023757Y032203D01*
X023757Y032356D01*
X023680Y032433D01*
X023603Y032433D01*
X023296Y032126D01*
X023296Y032433D01*
X020842Y032722D02*
X020765Y032646D01*
X020611Y032646D01*
X020535Y032722D01*
X020381Y032722D02*
X020381Y032876D01*
X020151Y032876D01*
X020074Y032799D01*
X020074Y032722D01*
X020151Y032646D01*
X020304Y032646D01*
X020381Y032722D01*
X020381Y032876D02*
X020228Y033029D01*
X020074Y033106D01*
X020535Y033029D02*
X020611Y033106D01*
X020765Y033106D01*
X020842Y033029D01*
X020842Y032722D01*
X014592Y032662D02*
X014515Y032586D01*
X014361Y032586D01*
X014285Y032662D01*
X014131Y032662D02*
X014054Y032586D01*
X013901Y032586D01*
X013824Y032662D01*
X013824Y032816D01*
X013901Y032892D01*
X013978Y032892D01*
X014131Y032816D01*
X014131Y033046D01*
X013824Y033046D01*
X014285Y032969D02*
X014361Y033046D01*
X014515Y033046D01*
X014592Y032969D01*
X014592Y032662D01*
X012197Y030779D02*
X012197Y030472D01*
X012120Y030396D01*
X011967Y030396D01*
X011890Y030472D01*
X011736Y030396D02*
X011429Y030396D01*
X011276Y030396D02*
X010969Y030396D01*
X011123Y030396D02*
X011123Y030856D01*
X011276Y030703D01*
X011583Y030856D02*
X011583Y030396D01*
X011736Y030703D02*
X011583Y030856D01*
X011890Y030779D02*
X011967Y030856D01*
X012120Y030856D01*
X012197Y030779D01*
M02*
