G75*
%MOIN*%
%OFA0B0*%
%FSLAX24Y24*%
%IPPOS*%
%LPD*%
%AMOC8*
5,1,8,0,0,1.08239X$1,22.5*
%
%ADD10C,0.0000*%
%ADD11C,0.0433*%
%ADD12OC8,0.0512*%
%ADD13R,0.0591X0.0591*%
%ADD14R,0.0709X0.0866*%
%ADD15R,0.0630X0.0710*%
%ADD16R,0.0710X0.0630*%
%ADD17C,0.1000*%
%ADD18OC8,0.1000*%
%ADD19C,0.0600*%
%ADD20OC8,0.0500*%
%ADD21C,0.0500*%
%ADD22R,0.0689X0.0689*%
%ADD23C,0.0705*%
%ADD24C,0.2756*%
D10*
X007676Y000126D02*
X007676Y033501D01*
X031376Y033501D01*
X031376Y000126D01*
X007676Y000126D01*
D11*
X012440Y029868D02*
X012440Y030301D01*
X013227Y030301D02*
X013227Y029868D01*
X014014Y029868D02*
X014014Y030301D01*
X014802Y030301D02*
X014802Y029868D01*
X015589Y029868D02*
X015589Y030301D01*
X015195Y031443D02*
X015195Y031876D01*
X014408Y031659D02*
X014408Y032092D01*
X013621Y032092D02*
X013621Y031659D01*
X012833Y031876D02*
X012833Y031443D01*
X015983Y031659D02*
X015983Y032092D01*
X016377Y030301D02*
X016377Y029868D01*
X017164Y029868D02*
X017164Y030301D01*
X017951Y030301D02*
X017951Y029868D01*
X018739Y029868D02*
X018739Y030301D01*
X019132Y031443D02*
X019132Y031876D01*
X019920Y031659D02*
X019920Y032092D01*
X020707Y032092D02*
X020707Y031659D01*
X021495Y031876D02*
X021495Y031443D01*
X021888Y030301D02*
X021888Y029868D01*
X021101Y029868D02*
X021101Y030301D01*
X020314Y030301D02*
X020314Y029868D01*
X019526Y029868D02*
X019526Y030301D01*
X018345Y031659D02*
X018345Y032092D01*
D12*
X017558Y031876D03*
X016770Y031876D03*
D13*
X016776Y027376D03*
X015776Y027376D03*
X015776Y025376D03*
X016776Y025376D03*
X017776Y025376D03*
X018776Y025376D03*
X018776Y027376D03*
X017776Y027376D03*
X018776Y022376D03*
X018276Y021376D03*
X019276Y021376D03*
X019776Y022376D03*
X020276Y021376D03*
X020776Y022376D03*
X023026Y016626D03*
X024026Y014876D03*
X025026Y014876D03*
X025026Y016626D03*
X020026Y014876D03*
X019026Y014876D03*
X016026Y016626D03*
X015026Y014876D03*
X014026Y014876D03*
X014026Y016626D03*
D14*
X015237Y032751D03*
X017065Y032751D03*
D15*
X018091Y032876D03*
X019211Y032876D03*
X023216Y029126D03*
X024336Y029126D03*
X025466Y029126D03*
X026586Y029126D03*
X023586Y018876D03*
X022466Y018876D03*
X022466Y017626D03*
X023586Y017626D03*
X016586Y017626D03*
X016586Y018876D03*
X015466Y018876D03*
X015466Y017626D03*
X015716Y004376D03*
X016836Y004376D03*
X016836Y002876D03*
X015716Y002876D03*
D16*
X020026Y005316D03*
X020026Y006435D03*
X022776Y007566D03*
X022776Y008685D03*
X025026Y012066D03*
X025026Y013185D03*
X019526Y016316D03*
X019526Y017435D03*
X014026Y013185D03*
X014026Y012066D03*
X012026Y031316D03*
X012026Y032435D03*
X022526Y032435D03*
X022526Y031316D03*
D17*
X027776Y028376D03*
X011026Y028376D03*
D18*
X009026Y028376D03*
X029776Y028376D03*
D19*
X026825Y032201D02*
X026825Y032801D01*
X025825Y032801D02*
X025825Y032201D01*
X024825Y032201D02*
X024825Y032801D01*
X022526Y015176D02*
X022526Y014576D01*
X021526Y014576D02*
X021526Y015176D01*
X017526Y015176D02*
X017526Y014576D01*
X016526Y014576D02*
X016526Y015176D01*
D20*
X024176Y030126D03*
X025626Y030126D03*
D21*
X026426Y030126D03*
X023376Y030126D03*
D22*
X020526Y004126D03*
X020526Y003126D03*
X019526Y003126D03*
X019526Y004126D03*
X018526Y004126D03*
X018526Y003126D03*
D23*
X011879Y012641D02*
X011174Y012641D01*
X011174Y014610D02*
X011879Y014610D01*
X011629Y018923D02*
X010924Y018923D01*
X010924Y020891D02*
X011629Y020891D01*
X011629Y022860D02*
X010924Y022860D01*
X010924Y024828D02*
X011629Y024828D01*
X027424Y024828D02*
X028129Y024828D01*
X028129Y022860D02*
X027424Y022860D01*
X027424Y020891D02*
X028129Y020891D01*
X028129Y018923D02*
X027424Y018923D01*
D24*
X029369Y031968D03*
X009684Y031968D03*
X009684Y002409D03*
X029369Y002409D03*
M02*
