G75*
%MOIN*%
%OFA0B0*%
%FSLAX24Y24*%
%IPPOS*%
%LPD*%
%AMOC8*
5,1,8,0,0,1.08239X$1,22.5*
%
%ADD10C,0.0000*%
%ADD11C,0.0040*%
D10*
X007676Y000126D02*
X007676Y033501D01*
X031376Y033501D01*
X031376Y000126D01*
X007676Y000126D01*
D11*
X013296Y002210D02*
X013603Y002517D01*
X013680Y002517D01*
X013757Y002440D01*
X013757Y002287D01*
X013680Y002210D01*
X013296Y002210D02*
X013296Y002517D01*
X013296Y002670D02*
X013603Y002977D01*
X013603Y002670D02*
X013296Y002977D01*
X013296Y003591D02*
X013296Y003898D01*
X013296Y003745D02*
X013757Y003745D01*
X013603Y003591D01*
X013680Y004052D02*
X013373Y004052D01*
X013680Y004358D01*
X013373Y004358D01*
X013296Y004282D01*
X013296Y004128D01*
X013373Y004052D01*
X013680Y004052D02*
X013757Y004128D01*
X013757Y004282D01*
X013680Y004358D01*
X013757Y004512D02*
X013296Y004512D01*
X013450Y004512D02*
X013296Y004742D01*
X013450Y004512D02*
X013603Y004742D01*
X014219Y004529D02*
X014296Y004606D01*
X014449Y004606D01*
X014526Y004529D01*
X014679Y004529D02*
X014679Y004376D01*
X014756Y004299D01*
X014986Y004299D01*
X014986Y004146D02*
X014986Y004606D01*
X014756Y004606D01*
X014679Y004529D01*
X014526Y004146D02*
X014219Y004453D01*
X014219Y004529D01*
X014219Y004146D02*
X014526Y004146D01*
X015140Y004146D02*
X015293Y004299D01*
X015217Y004299D02*
X015447Y004299D01*
X015447Y004146D02*
X015447Y004606D01*
X015217Y004606D01*
X015140Y004529D01*
X015140Y004376D01*
X015217Y004299D01*
X015217Y003106D02*
X015140Y003029D01*
X015140Y002876D01*
X015217Y002799D01*
X015447Y002799D01*
X015447Y002646D02*
X015447Y003106D01*
X015217Y003106D01*
X014986Y003106D02*
X014756Y003106D01*
X014679Y003029D01*
X014679Y002876D01*
X014756Y002799D01*
X014986Y002799D01*
X014986Y002646D02*
X014986Y003106D01*
X015293Y002799D02*
X015140Y002646D01*
X014526Y002646D02*
X014219Y002646D01*
X014373Y002646D02*
X014373Y003106D01*
X014526Y002953D01*
X019046Y005205D02*
X019507Y005205D01*
X019507Y005435D01*
X019430Y005512D01*
X019276Y005512D01*
X019200Y005435D01*
X019200Y005205D01*
X019200Y005358D02*
X019046Y005512D01*
X019123Y005665D02*
X019046Y005742D01*
X019046Y005896D01*
X019123Y005972D01*
X019200Y005972D01*
X019276Y005896D01*
X019276Y005742D01*
X019353Y005665D01*
X019430Y005665D01*
X019507Y005742D01*
X019507Y005896D01*
X019430Y005972D01*
X019353Y006126D02*
X019507Y006279D01*
X019046Y006279D01*
X019046Y006126D02*
X019046Y006433D01*
X020796Y006297D02*
X020796Y006143D01*
X020873Y006066D01*
X021180Y006373D01*
X020873Y006373D01*
X020796Y006297D01*
X020873Y006066D02*
X021180Y006066D01*
X021257Y006143D01*
X021257Y006297D01*
X021180Y006373D01*
X021180Y005913D02*
X020873Y005913D01*
X020796Y005836D01*
X020796Y005683D01*
X020873Y005606D01*
X021180Y005913D01*
X021257Y005836D01*
X021257Y005683D01*
X021180Y005606D01*
X020873Y005606D01*
X020796Y005453D02*
X020796Y005146D01*
X021103Y005453D01*
X021180Y005453D01*
X021257Y005376D01*
X021257Y005222D01*
X021180Y005146D01*
X022546Y005782D02*
X022623Y005705D01*
X022930Y005705D01*
X023007Y005782D01*
X023007Y005935D01*
X022930Y006012D01*
X022853Y006165D02*
X023007Y006319D01*
X022546Y006319D01*
X022546Y006472D02*
X022546Y006165D01*
X022623Y006012D02*
X022546Y005935D01*
X022546Y005782D01*
X022623Y006626D02*
X022546Y006703D01*
X022546Y006856D01*
X022623Y006933D01*
X022700Y006933D01*
X022776Y006856D01*
X022776Y006626D01*
X022623Y006626D01*
X022776Y006626D02*
X022930Y006779D01*
X023007Y006933D01*
X023296Y007084D02*
X023526Y007084D01*
X023603Y007007D01*
X023603Y006777D01*
X023296Y006777D01*
X023373Y006623D02*
X023296Y006547D01*
X023296Y006393D01*
X023373Y006316D01*
X023680Y006623D01*
X023373Y006623D01*
X023373Y006316D02*
X023680Y006316D01*
X023757Y006393D01*
X023757Y006547D01*
X023680Y006623D01*
X023680Y006163D02*
X023373Y005856D01*
X023296Y005933D01*
X023296Y006086D01*
X023373Y006163D01*
X023680Y006163D01*
X023757Y006086D01*
X023757Y005933D01*
X023680Y005856D01*
X023373Y005856D01*
X023296Y005703D02*
X023296Y005396D01*
X023296Y005549D02*
X023757Y005549D01*
X023603Y005396D01*
X023526Y007237D02*
X023526Y007391D01*
X023296Y007237D02*
X023757Y007237D01*
X023757Y007544D01*
X023868Y009646D02*
X024098Y009646D01*
X024175Y009722D01*
X024175Y009876D01*
X024098Y009953D01*
X023868Y009953D01*
X023714Y009876D02*
X023714Y009722D01*
X023637Y009646D01*
X023484Y009646D01*
X023407Y009722D01*
X023407Y009876D01*
X023484Y009953D01*
X023637Y009953D01*
X023714Y009876D01*
X023254Y009953D02*
X023254Y009646D01*
X023100Y009646D02*
X023100Y009876D01*
X023024Y009953D01*
X022947Y009876D01*
X022947Y009646D01*
X022793Y009646D02*
X022486Y010106D01*
X022333Y009953D02*
X022103Y009953D01*
X022026Y009876D01*
X022026Y009722D01*
X022103Y009646D01*
X022333Y009646D01*
X022333Y009492D02*
X022333Y009953D01*
X021873Y009876D02*
X021873Y009722D01*
X021796Y009646D01*
X021642Y009646D01*
X021566Y009799D02*
X021873Y009799D01*
X021873Y009876D02*
X021796Y009953D01*
X021642Y009953D01*
X021566Y009876D01*
X021566Y009799D01*
X021412Y009953D02*
X021259Y009953D01*
X021335Y010029D02*
X021335Y009722D01*
X021259Y009646D01*
X021105Y009722D02*
X021105Y009876D01*
X021029Y009953D01*
X020875Y009953D01*
X020798Y009876D01*
X020798Y009799D01*
X021105Y009799D01*
X021105Y009722D02*
X021029Y009646D01*
X020875Y009646D01*
X020645Y009646D02*
X020645Y009953D01*
X020491Y009953D02*
X020415Y009953D01*
X020491Y009953D02*
X020645Y009799D01*
X020261Y009722D02*
X020184Y009646D01*
X020108Y009722D01*
X020031Y009646D01*
X019954Y009722D01*
X019954Y009953D01*
X019801Y009876D02*
X019724Y009953D01*
X019571Y009953D01*
X019494Y009876D01*
X019494Y009799D01*
X019801Y009799D01*
X019801Y009722D02*
X019801Y009876D01*
X019801Y009722D02*
X019724Y009646D01*
X019571Y009646D01*
X019340Y009646D02*
X019187Y009646D01*
X019264Y009646D02*
X019264Y009953D01*
X019340Y009953D01*
X019264Y010106D02*
X019264Y010183D01*
X018957Y009953D02*
X019033Y009876D01*
X018957Y009799D01*
X018803Y009799D01*
X018727Y009722D01*
X018803Y009646D01*
X019033Y009646D01*
X018957Y009953D02*
X018727Y009953D01*
X018573Y009876D02*
X018496Y009953D01*
X018266Y009953D01*
X018113Y009953D02*
X018036Y009953D01*
X018036Y009646D01*
X018113Y009646D02*
X017959Y009646D01*
X017806Y009722D02*
X017806Y009876D01*
X017729Y009953D01*
X017499Y009953D01*
X017499Y009569D01*
X017576Y009492D01*
X017652Y009492D01*
X017729Y009646D02*
X017499Y009646D01*
X017345Y009646D02*
X017038Y010106D01*
X016885Y009953D02*
X016885Y009492D01*
X016885Y009646D02*
X016655Y009646D01*
X016578Y009722D01*
X016578Y009876D01*
X016655Y009953D01*
X016885Y009953D01*
X016425Y009953D02*
X016425Y009646D01*
X016425Y009799D02*
X016271Y009953D01*
X016194Y009953D01*
X016041Y009876D02*
X016041Y009722D01*
X015964Y009646D01*
X015811Y009646D01*
X015734Y009722D01*
X015734Y009876D01*
X015811Y009953D01*
X015964Y009953D01*
X016041Y009876D01*
X015581Y009492D02*
X015504Y009492D01*
X015427Y009569D01*
X015427Y009953D01*
X015427Y010106D02*
X015427Y010183D01*
X015197Y009953D02*
X015043Y009953D01*
X014967Y009876D01*
X014967Y009799D01*
X015274Y009799D01*
X015274Y009722D02*
X015274Y009876D01*
X015197Y009953D01*
X015274Y009722D02*
X015197Y009646D01*
X015043Y009646D01*
X014813Y009722D02*
X014813Y009876D01*
X014737Y009953D01*
X014506Y009953D01*
X014353Y009953D02*
X014199Y009953D01*
X014276Y010029D02*
X014276Y009722D01*
X014199Y009646D01*
X014046Y009569D02*
X013739Y009569D01*
X013586Y009722D02*
X013509Y009799D01*
X013279Y009799D01*
X013279Y009876D02*
X013279Y009646D01*
X013509Y009646D01*
X013586Y009722D01*
X013509Y009953D02*
X013355Y009953D01*
X013279Y009876D01*
X013125Y009953D02*
X013125Y009722D01*
X013048Y009646D01*
X012818Y009646D01*
X012818Y009953D01*
X012665Y009876D02*
X012665Y009722D01*
X012588Y009646D01*
X012358Y009646D01*
X012358Y010106D01*
X012358Y009953D02*
X012588Y009953D01*
X012665Y009876D01*
X012204Y009953D02*
X012128Y009953D01*
X012128Y009646D01*
X012204Y009646D02*
X012051Y009646D01*
X011897Y009722D02*
X011821Y009646D01*
X011667Y009646D01*
X011590Y009722D01*
X011590Y009876D01*
X011667Y009953D01*
X011821Y009953D01*
X011897Y009876D01*
X011897Y009722D01*
X012128Y010106D02*
X012128Y010183D01*
X011437Y009569D02*
X011130Y009569D01*
X010977Y009646D02*
X010977Y010106D01*
X010900Y009953D02*
X010746Y009953D01*
X010670Y009876D01*
X010670Y009646D01*
X010516Y009722D02*
X010516Y009876D01*
X010440Y009953D01*
X010286Y009953D01*
X010209Y009876D01*
X010209Y009722D01*
X010286Y009646D01*
X010440Y009646D01*
X010516Y009722D01*
X010056Y009646D02*
X010056Y009953D01*
X009979Y009953D01*
X009902Y009876D01*
X009826Y009953D01*
X009749Y009876D01*
X009749Y009646D01*
X009902Y009646D02*
X009902Y009876D01*
X009595Y009876D02*
X009595Y009722D01*
X009519Y009646D01*
X009365Y009646D01*
X009289Y009799D02*
X009595Y009799D01*
X009595Y009876D02*
X009519Y009953D01*
X009365Y009953D01*
X009289Y009876D01*
X009289Y009799D01*
X010900Y009953D02*
X010977Y009876D01*
X013046Y011955D02*
X013507Y011955D01*
X013507Y012185D01*
X013430Y012262D01*
X013276Y012262D01*
X013200Y012185D01*
X013200Y011955D01*
X013200Y012108D02*
X013046Y012262D01*
X013046Y012415D02*
X013046Y012722D01*
X013046Y012876D02*
X013046Y013183D01*
X013046Y013029D02*
X013507Y013029D01*
X013353Y012876D01*
X013507Y012415D02*
X013046Y012415D01*
X014796Y012396D02*
X015103Y012703D01*
X015180Y012703D01*
X015257Y012626D01*
X015257Y012472D01*
X015180Y012396D01*
X014796Y012396D02*
X014796Y012703D01*
X014796Y012856D02*
X015257Y012856D01*
X015103Y013086D02*
X014950Y012856D01*
X014796Y013086D01*
X014813Y009722D02*
X014737Y009646D01*
X014506Y009646D01*
X017729Y009646D02*
X017806Y009722D01*
X018036Y010106D02*
X018036Y010183D01*
X018343Y009799D02*
X018266Y009722D01*
X018343Y009646D01*
X018573Y009646D01*
X018496Y009799D02*
X018343Y009799D01*
X018496Y009799D02*
X018573Y009876D01*
X020261Y009953D02*
X020261Y009722D01*
X023100Y009876D02*
X023177Y009953D01*
X023254Y009953D01*
X024328Y009722D02*
X024328Y009646D01*
X024405Y009646D01*
X024405Y009722D01*
X024328Y009722D01*
X024558Y009722D02*
X024558Y009876D01*
X024635Y009953D01*
X024865Y009953D01*
X024865Y010106D02*
X024865Y009646D01*
X024635Y009646D01*
X024558Y009722D01*
X025019Y009646D02*
X025019Y009953D01*
X025326Y009953D02*
X025326Y009722D01*
X025249Y009646D01*
X025019Y009646D01*
X025479Y009646D02*
X025479Y009876D01*
X025556Y009953D01*
X025709Y009953D01*
X025786Y009876D01*
X025939Y009953D02*
X026093Y009953D01*
X026016Y010029D02*
X026016Y009722D01*
X025939Y009646D01*
X025786Y009646D02*
X025786Y010106D01*
X026323Y010106D02*
X026323Y010183D01*
X026323Y009953D02*
X026323Y009646D01*
X026400Y009646D02*
X026246Y009646D01*
X026553Y009646D02*
X026783Y009646D01*
X026860Y009722D01*
X026860Y009876D01*
X026783Y009953D01*
X026553Y009953D01*
X026553Y009569D01*
X026630Y009492D01*
X026707Y009492D01*
X026400Y009953D02*
X026323Y009953D01*
X027014Y010106D02*
X027321Y009646D01*
X027781Y009646D02*
X027474Y010106D01*
X027934Y009953D02*
X027934Y009876D01*
X028011Y009876D01*
X028011Y009953D01*
X027934Y009953D01*
X028165Y009953D02*
X028395Y009953D01*
X028472Y009876D01*
X028395Y009799D01*
X028241Y009799D01*
X028165Y009722D01*
X028241Y009646D01*
X028472Y009646D01*
X028625Y009722D02*
X028702Y009646D01*
X028932Y009646D01*
X029085Y009646D02*
X029162Y009722D01*
X029162Y010029D01*
X029239Y009953D02*
X029085Y009953D01*
X028932Y009953D02*
X028932Y009492D01*
X028625Y009722D02*
X028625Y009876D01*
X028702Y009953D01*
X028932Y009953D01*
X029392Y009953D02*
X029546Y009953D01*
X029469Y010029D02*
X029469Y009722D01*
X029392Y009646D01*
X029699Y009646D02*
X029699Y009876D01*
X029776Y009953D01*
X029929Y009953D01*
X030006Y009876D01*
X030006Y010106D02*
X030006Y009646D01*
X028011Y009646D02*
X028011Y009722D01*
X027934Y009722D01*
X027934Y009646D01*
X028011Y009646D01*
X026007Y011955D02*
X026007Y012185D01*
X025930Y012262D01*
X025776Y012262D01*
X025700Y012185D01*
X025700Y011955D01*
X025700Y012108D02*
X025546Y012262D01*
X025546Y012415D02*
X025546Y012722D01*
X025546Y012876D02*
X025853Y013183D01*
X025930Y013183D01*
X026007Y013106D01*
X026007Y012953D01*
X025930Y012876D01*
X025546Y012876D02*
X025546Y013183D01*
X025546Y012415D02*
X026007Y012415D01*
X026007Y011955D02*
X025546Y011955D01*
X024257Y012722D02*
X024180Y012646D01*
X024257Y012722D02*
X024257Y012876D01*
X024180Y012953D01*
X024103Y012953D01*
X023796Y012646D01*
X023796Y012953D01*
X023796Y013106D02*
X024257Y013106D01*
X024103Y013336D02*
X023950Y013106D01*
X023796Y013336D01*
X024526Y017396D02*
X024679Y017396D01*
X024756Y017472D01*
X024910Y017396D02*
X025063Y017549D01*
X024986Y017549D02*
X025217Y017549D01*
X025217Y017396D02*
X025217Y017856D01*
X024986Y017856D01*
X024910Y017779D01*
X024910Y017626D01*
X024986Y017549D01*
X024756Y017779D02*
X024679Y017856D01*
X024526Y017856D01*
X024449Y017779D01*
X024449Y017703D01*
X024526Y017626D01*
X024449Y017549D01*
X024449Y017472D01*
X024526Y017396D01*
X024526Y017626D02*
X024603Y017626D01*
X024526Y018646D02*
X024526Y019106D01*
X024756Y018876D01*
X024449Y018876D01*
X024910Y018876D02*
X024986Y018799D01*
X025217Y018799D01*
X025217Y018646D02*
X025217Y019106D01*
X024986Y019106D01*
X024910Y019029D01*
X024910Y018876D01*
X025063Y018799D02*
X024910Y018646D01*
X025006Y019646D02*
X024699Y019953D01*
X024699Y020029D01*
X024776Y020106D01*
X024929Y020106D01*
X025006Y020029D01*
X025006Y019646D02*
X024699Y019646D01*
X024546Y019646D02*
X024239Y019953D01*
X024546Y019953D02*
X024239Y019646D01*
X023625Y019646D02*
X023318Y019646D01*
X023472Y019646D02*
X023472Y020106D01*
X023625Y019953D01*
X023165Y020029D02*
X023165Y019722D01*
X022858Y020029D01*
X022858Y019722D01*
X022934Y019646D01*
X023088Y019646D01*
X023165Y019722D01*
X023165Y020029D02*
X023088Y020106D01*
X022934Y020106D01*
X022858Y020029D01*
X022704Y020106D02*
X022704Y019646D01*
X022704Y019799D02*
X022474Y019953D01*
X022704Y019799D02*
X022474Y019646D01*
X020197Y018356D02*
X020197Y017896D01*
X020197Y018049D02*
X019967Y018049D01*
X019890Y018126D01*
X019890Y018279D01*
X019967Y018356D01*
X020197Y018356D01*
X020043Y018049D02*
X019890Y017896D01*
X019736Y017896D02*
X019736Y018356D01*
X019756Y018646D02*
X019449Y018953D01*
X019449Y019029D01*
X019526Y019106D01*
X019679Y019106D01*
X019756Y019029D01*
X019756Y018646D02*
X019449Y018646D01*
X019296Y018646D02*
X019296Y019106D01*
X019066Y018953D02*
X019296Y018799D01*
X019066Y018646D01*
X019046Y018356D02*
X018969Y018279D01*
X018969Y018203D01*
X019046Y018126D01*
X018969Y018049D01*
X018969Y017972D01*
X019046Y017896D01*
X019199Y017896D01*
X019276Y017972D01*
X019429Y017896D02*
X019736Y017896D01*
X019276Y018279D02*
X019199Y018356D01*
X019046Y018356D01*
X019046Y018126D02*
X019123Y018126D01*
X016256Y019646D02*
X015949Y019953D01*
X015949Y020029D01*
X016026Y020106D01*
X016179Y020106D01*
X016256Y020029D01*
X016256Y019646D02*
X015949Y019646D01*
X015796Y019646D02*
X015489Y019953D01*
X015796Y019953D02*
X015489Y019646D01*
X014875Y019646D02*
X014568Y019646D01*
X014722Y019646D02*
X014722Y020106D01*
X014875Y019953D01*
X014415Y020029D02*
X014338Y020106D01*
X014184Y020106D01*
X014108Y020029D01*
X014415Y019722D01*
X014338Y019646D01*
X014184Y019646D01*
X014108Y019722D01*
X014108Y020029D01*
X013954Y020106D02*
X013954Y019646D01*
X013954Y019799D02*
X013724Y019953D01*
X013954Y019799D02*
X013724Y019646D01*
X014026Y019106D02*
X014179Y019106D01*
X014256Y019029D01*
X014410Y019029D02*
X014486Y019106D01*
X014717Y019106D01*
X014717Y018646D01*
X014717Y018799D02*
X014486Y018799D01*
X014410Y018876D01*
X014410Y019029D01*
X014563Y018799D02*
X014410Y018646D01*
X014256Y018646D02*
X013949Y018953D01*
X013949Y019029D01*
X014026Y019106D01*
X014415Y019722D02*
X014415Y020029D01*
X014256Y018646D02*
X013949Y018646D01*
X014103Y017856D02*
X014103Y017396D01*
X014256Y017396D02*
X013949Y017396D01*
X014256Y017703D02*
X014103Y017856D01*
X014410Y017779D02*
X014410Y017626D01*
X014486Y017549D01*
X014717Y017549D01*
X014717Y017396D02*
X014717Y017856D01*
X014486Y017856D01*
X014410Y017779D01*
X014563Y017549D02*
X014410Y017396D01*
X011756Y029646D02*
X011449Y029646D01*
X011603Y029646D02*
X011603Y030106D01*
X011756Y029953D01*
X011736Y030396D02*
X011429Y030396D01*
X011276Y030396D02*
X010969Y030396D01*
X011123Y030396D02*
X011123Y030856D01*
X011276Y030703D01*
X011583Y030856D02*
X011583Y030396D01*
X011890Y030472D02*
X011967Y030396D01*
X012120Y030396D01*
X012197Y030472D01*
X012197Y030779D01*
X012120Y030856D01*
X011967Y030856D01*
X011890Y030779D01*
X011736Y030703D02*
X011583Y030856D01*
X011219Y030106D02*
X011066Y030106D01*
X010989Y030029D01*
X011296Y029722D01*
X011219Y029646D01*
X011066Y029646D01*
X010989Y029722D01*
X010989Y030029D01*
X010835Y030029D02*
X010835Y029722D01*
X010528Y030029D01*
X010528Y029722D01*
X010605Y029646D01*
X010759Y029646D01*
X010835Y029722D01*
X010835Y030029D02*
X010759Y030106D01*
X010605Y030106D01*
X010528Y030029D01*
X010375Y029953D02*
X010375Y029646D01*
X010375Y029953D02*
X010145Y029953D01*
X010068Y029876D01*
X010068Y029646D01*
X009915Y029646D02*
X009915Y030106D01*
X009608Y030106D01*
X009761Y029876D02*
X009915Y029876D01*
X011219Y030106D02*
X011296Y030029D01*
X011296Y029722D01*
X013901Y032586D02*
X014054Y032586D01*
X014131Y032662D01*
X014285Y032662D02*
X014361Y032586D01*
X014515Y032586D01*
X014592Y032662D01*
X014592Y032969D01*
X014515Y033046D01*
X014361Y033046D01*
X014285Y032969D01*
X014131Y033046D02*
X014131Y032816D01*
X013978Y032892D01*
X013901Y032892D01*
X013824Y032816D01*
X013824Y032662D01*
X013901Y032586D01*
X013824Y033046D02*
X014131Y033046D01*
X015568Y031356D02*
X015875Y031356D01*
X015875Y030896D01*
X016028Y030972D02*
X016028Y031126D01*
X015875Y031126D02*
X015722Y031126D01*
X016028Y030972D02*
X016105Y030896D01*
X016182Y030896D01*
X016259Y030972D01*
X016259Y030819D01*
X016335Y030742D01*
X016259Y030972D02*
X016259Y031126D01*
X016489Y031279D02*
X016796Y030972D01*
X016796Y030896D01*
X017026Y030896D02*
X017026Y031356D01*
X017256Y031126D01*
X016949Y031126D01*
X016796Y031356D02*
X016489Y031356D01*
X016489Y031279D01*
X020074Y032722D02*
X020074Y032799D01*
X020151Y032876D01*
X020381Y032876D01*
X020381Y032722D01*
X020304Y032646D01*
X020151Y032646D01*
X020074Y032722D01*
X020228Y033029D02*
X020381Y032876D01*
X020228Y033029D02*
X020074Y033106D01*
X020535Y033029D02*
X020611Y033106D01*
X020765Y033106D01*
X020842Y033029D01*
X020842Y032722D01*
X020765Y032646D01*
X020611Y032646D01*
X020535Y032722D01*
X023296Y032433D02*
X023296Y032126D01*
X023603Y032433D01*
X023680Y032433D01*
X023757Y032356D01*
X023757Y032203D01*
X023680Y032126D01*
X023757Y031819D02*
X023296Y031819D01*
X023296Y031972D02*
X023296Y031665D01*
X023373Y031512D02*
X023296Y031435D01*
X023296Y031282D01*
X023373Y031205D01*
X023680Y031205D01*
X023757Y031282D01*
X023757Y031435D01*
X023680Y031512D01*
X023603Y031665D02*
X023757Y031819D01*
X023977Y031356D02*
X024283Y031356D01*
X024283Y030896D01*
X024437Y030896D02*
X024437Y031126D01*
X024514Y031203D01*
X024744Y031203D01*
X024744Y030896D01*
X024897Y030972D02*
X024897Y031279D01*
X025204Y030972D01*
X025127Y030896D01*
X024974Y030896D01*
X024897Y030972D01*
X025204Y030972D02*
X025204Y031279D01*
X025127Y031356D01*
X024974Y031356D01*
X024897Y031279D01*
X025358Y031279D02*
X025358Y030972D01*
X025434Y030896D01*
X025588Y030896D01*
X025665Y030972D01*
X025358Y031279D01*
X025434Y031356D01*
X025588Y031356D01*
X025665Y031279D01*
X025665Y030972D01*
X025818Y030896D02*
X026125Y030896D01*
X025972Y030896D02*
X025972Y031356D01*
X026125Y031203D01*
X026739Y031203D02*
X027046Y030896D01*
X027276Y030896D02*
X027276Y031356D01*
X027506Y031126D01*
X027199Y031126D01*
X027046Y031203D02*
X026739Y030896D01*
X026620Y028606D02*
X026697Y028529D01*
X026697Y028222D01*
X026620Y028146D01*
X026467Y028146D01*
X026390Y028222D01*
X026236Y028146D02*
X025929Y028146D01*
X026083Y028146D02*
X026083Y028606D01*
X026236Y028453D01*
X026390Y028529D02*
X026467Y028606D01*
X026620Y028606D01*
X025776Y028376D02*
X025469Y028376D01*
X025546Y028606D02*
X025776Y028376D01*
X025546Y028146D02*
X025546Y028606D01*
X024447Y028529D02*
X024447Y028222D01*
X024370Y028146D01*
X024217Y028146D01*
X024140Y028222D01*
X023986Y028146D02*
X023679Y028146D01*
X023833Y028146D02*
X023833Y028606D01*
X023986Y028453D01*
X024140Y028529D02*
X024217Y028606D01*
X024370Y028606D01*
X024447Y028529D01*
X023526Y028529D02*
X023449Y028606D01*
X023296Y028606D01*
X023219Y028529D01*
X023219Y028453D01*
X023296Y028376D01*
X023219Y028299D01*
X023219Y028222D01*
X023296Y028146D01*
X023449Y028146D01*
X023526Y028222D01*
X023373Y028376D02*
X023296Y028376D01*
X024130Y031126D02*
X024283Y031126D01*
M02*
