%
M48
M72
T01C0.0236
T02C0.0276
T03C0.0315
T04C0.0320
T05C0.0394
T06C0.0400
T07C0.0470
T08C0.1260
%
T01
X15216Y10876
X17026Y11626
X17026Y8126
X20026Y7185
X21776Y8876
X22026Y7566
X23776Y8126
X25026Y11376
X24026Y12126
X21901Y11626
X20526Y12876
X20526Y16126
X26276Y26126
X21526Y32626
X12776Y32626
T02
X12833Y31876
X13621Y31876
X14408Y31876
X15195Y31876
X15983Y31876
X16770Y31876
X17558Y31876
X18345Y31876
X19132Y31876
X19920Y31876
X20707Y31876
X21495Y31876
X21888Y30301
X21101Y30301
X20314Y30301
X19526Y30301
X18739Y30301
X17951Y30301
X17164Y30301
X16377Y30301
X15589Y30301
X14802Y30301
X14014Y30301
X13227Y30301
X12440Y30301
T03
X15776Y27376
X16776Y27376
X17776Y27376
X18776Y27376
X18776Y25376
X17776Y25376
X16776Y25376
X15776Y25376
X16026Y16626
X15026Y14876
X14026Y14876
X14026Y16626
X19026Y14876
X20026Y14876
X23026Y16626
X24026Y14876
X25026Y14876
X25026Y16626
T04
X20776Y22376
X20276Y21376
X19776Y22376
X19276Y21376
X18776Y22376
X18276Y21376
X23376Y30126
X24176Y30126
X25626Y30126
X26426Y30126
T05
X20526Y4126
X20526Y3126
X19526Y3126
X19526Y4126
X18526Y4126
X18526Y3126
T06
X17526Y14876
X16526Y14876
X21526Y14876
X22526Y14876
X27776Y28376
X29776Y28376
X26825Y32501
X25825Y32501
X24825Y32501
X11026Y28376
X9026Y28376
T07
X11276Y24828
X11276Y22860
X11276Y20891
X11276Y18923
X11526Y14610
X11526Y12641
X27776Y18923
X27776Y20891
X27776Y22860
X27776Y24828
T08
X9684Y2409
X29369Y2409
X29369Y31968
X9684Y31968
M30
